<mxfile host="app.diagrams.net" modified="2023-02-14T13:53:59.011Z" agent="5.0 (Windows)" etag="hKXDfnvBdrIbsIjxgqyI" version="20.8.20" type="github">
  <diagram name="Seite-1" id="x9M6AdpwJ8nIM4zPpMPn">
    <mxGraphModel dx="2457" dy="1498" grid="1" gridSize="10" guides="1" tooltips="1" connect="1" arrows="1" fold="1" page="1" pageScale="1" pageWidth="827" pageHeight="1169" math="0" shadow="0">
      <root>
        <mxCell id="0" />
        <mxCell id="1" parent="0" />
        <mxCell id="4XYgDZvhQAc6iErdswOd-3" value="obpa:Building" style="rounded=1;whiteSpace=wrap;html=1;" vertex="1" parent="1">
          <mxGeometry x="80" y="150" width="120" height="20" as="geometry" />
        </mxCell>
        <mxCell id="4XYgDZvhQAc6iErdswOd-4" value="" style="shape=image;verticalLabelPosition=bottom;labelBackgroundColor=default;verticalAlign=top;aspect=fixed;imageAspect=0;image=data:image/png,iVBORw0KGgoAAAANSUhEUgAABSgAAAKSCAYAAADRZzUVAAAgAElEQVR4Xuy9fbAW1ZUvvORbcA6QIIqFHkQRg2BAB4sZkcjIUEGd15jivjjU1M3UtaQmJrfmj5tbTlk1Xie5RV0rM1Vz53XMlFSm4p0UJRNKx7oqKYYMho8JE4bEAEERRY46AQHDhxyCB4++vfp5+nm6++mP1Xvv3v3166pTHE7vvfZav71Xr96/XnvvSz51Loq43njjjag/429AAAgAgUoicMMNN4j0xrNPBBMKAQFrCEh915pCaAgIAAEgAASAABAAAkAACAAB4whcAoLSOKYQCASAQAkRkJIcIChL2HlQqdEISH230SDBeCAABIAAEAACQAAIAAEgUHEEQFBWvAOhPhAAAjIEpCQHCEoZnigFBGwhIPVdvz7wY1u9g3aAgBwBFV+WS+8tieeADnqoCwSAABCoFwK2Y1C90LNnDQhKe1ijJSAABApEQBqUMKEpsJPQNBCIQEDquyAoMXyAQLkRUPFlHYsQz3XQQ10gAASAQL0QsB2D6oWePWtAUNrDGi0BASBQIALSoIQJTYGdhKaBAAhKjAEgUFsEpHHYFACI56aQhBwgAASAQPURsB2Dqo9YMRaAoCwGd7QKBICAZQSkQQkTGssdg+aAQAoCUt/1i4EfY1gBgfIhoOLLOlbgOaCDHuoCASAABOqFgO0YVC/07FkDgtIe1mgJCACBAhGQBiVMaArsJDQNBCIQkPouCEoMHyBQbgRUfFnHIsRzHfRQFwgAASBQLwRsx6B6oWfPGhCU9rBGS0AACBSIgDQoYUJTYCehaSAAghJjAAjUFgFpHDYFAOK5KSQhBwgAASBQfQRsx6DqI1aMBSAoi8EdrQIBIGAZAWlQwoTGcsegOSCQgoDUd/1i4McYVkCgfAio+LKOFXgO6KCHukAACACBeiFgOwbVCz171pSUoNxGj81+iDbQKlp38Ju0JBIPSRl7QJprqa52mUMoXVJWDLOWT9cAJcqHgDQomZ/QYHyZGQ0D9MwDy2ntzxfQo5ufpa/0m5FKJOkfSRlT+kBOGAGp74KgxNgBAuVGQMWXdSwyH891tEFdIAAEgAAQKBIB2zGoSFur3LYmQelNGP0QLKAFqx6mJ765hOTzx/DkTzIZVKlTha4qwi4J3lXAztMxqz1Zy1cJC+jqISANSioTmoFnHqDla3/uNrVq3UFyHn++qwifrmO/myIoVfpDpU4d+6AYm6S+C4KymP5Bq0BAioCKL0tlR5VTiec67VWjrqlYWg1r47U0gYMJGVlwxHwlC1ooCwTCCNiOQegBNQRyICjbiqxaRweDs/QEDVUmfyp11ECyWytfuzwiZcGjm+nZTgpS3QJeVnuylrc7ItCaGQSkQSn7hMYbP3HPvnx92gw66lKinylBeZIy6RqYmgio9IdKnXSLUEKGgNR3/dKy+3GaLogTaQjhPhBIQ0DFl9NkJt2XPwdMJVzoaGurrqlYGta3as9IEzhIZbSxWfAobX72TnrFXQ2StEowbixUDWNbYxrtAAEZArZjkEwrlAojYIig7C65G3jmMSeTaAOR+xD+SoYsSr9qkgewpEwVOzxfu8wQBWXHNSuGWcuX3X7oF4WANCjJJzTtVrY9RrMf2uA88tbRik0PRbx01nt8SZ4pkjLpo1Y6EUiXFCwh6R9JmaztorwUAanv6hKUyISW9khdy3VJqt5MeBM25y3fhI75ylDxZR2N5PE8iqBst5wp4UJHW1t1i4yltmyUtGMCB6kMEJSSHkEZIJA3ArZjUN721FV+fgRlJ6BHTezSslEi6gw4f3vE2ZfSXUW5gFY9uoJo7VrfPpXhOu2gQY/SuhVv0VMOadqquooefeKb3f3LHHLhAYdcaC3O9K7oPc62Ocs4n3KWcXbKBmT52nvYac+TmblMGjaso9PWY4/Q2hYYjknrOkvq43WMfvlqvYRH9dEAbXPaeMppw7N3gUM6P/zEV2iJu3ZfiG8H03Ybq5z+uG5TB8cFzv+fePBa+q6/b9c961sim6YHq5J1bLBSfpuX0ZbwnqeOzGceecohm9rWh8dNXZ8INbZLGpTkE5oWWNsem00PbWg9M679Lv8eXuYt8OnE55DE1xT9K3Gcp7Wb9EzxBlJaGYF/d8ZkdyKw6tEb6I3IZ3p94k2NXTGzaVLf9QvO6sfdmNCW0kNKCPw4s2XlqSD5iCApUx6LVDQx9yGiFRfSYoGKjtWuo+LLOhbLnwO9RJOZhAsd7fOqKyXV8mq/LHJN4GBCRhY8zD2jsrSKskCgLgjYjkF1wc22HYYIypDagexJExPGhC+bnYN0YgjKIPPYUtTTb+AZemD52hA56RaIOITBkx9nq0RHSZm0SZCEaIzS0VtSELwXTVBK9EwoE5k9G4Nf5Ij3lj1o6hE7NrjRJIIyTleV5Ri2XRrtxSEgDUryCY1vHHljvp1N6WxE6dviIsWnU59DEl9T8a+0cZ7WbtIzxeuFpOeVxL/9vSkpX5d4Az/2IyD1XX+dbH7MIQGZ0LyPbnD7l+A4rD9BacrvbJMWpvTOX46KL+toJX8OJBCUvnienKggiT+tZ01iYoTWh8M2WhIZzoFzqR/7MiUVRNifaKsEr7QPpW17UzBlsvkR30fNdU6iypJ+yUdPR742lqxj0sfYro2P3rCplXzijbm0BAwkU+g8HlC3gQjYjkENhNiIyfkQlKxah6SSBCDpBN4hiDZzUOFnvUcueqRRPEHJSy+f+IpzaE+4TmdC0t6PMfz/AMQDTowaIFrSPvzHkfWYQ252Txr3Bbp1TzgZgI6SHFiW82nk3ld0SZkULDwChMk3F4tW0NuyjLMO03Rk2FqHeSTuQenHqYN3nC3c1TH4BvDrkiGr1m128fEyDDir1X1ZIA/TNkHs/L9FIPv7PaRHf1SZtLHhI5ZcEjOUQelh3BnDjPHyiGwIIz4IIZYQkAYl+YTGT2p4e7p649z/kUPm0x2f7HkOdYm5eF9T8K+BFiHTfVaHx7mk3bhnioDYED1n/HKSnp8e3nWJN5acoiLNSH3Xb04mP3ZdGZnQfvyCS5xNZkK3WhlwnnOP+FavuKspvtnaFqj1nuK8NzkrZd5wVsq47wAH+R3BeUY9893Oihius4LWOhP6uPuriDY4K2QCH5DeoEfXPUxvPdVdkfOos2rDeUX0kdSt53nnHcUHTAuXsB6+dp4geiT84Tv0Acv//pWEQ4s0T9C3Iv7rV1PFl3XMlD8HYj6ARSZchDTKMt9J/SCp++GQfShPGVG9ETMPE9vq//ifQ7JJ511nFa26wdH/jTfouiccn+8QlBKbwmUEiRS+OcQz7p6Tce08SG+H77sEZT8l1/PmLnG66XhOPeoePXqUpk6dSiNHjqyHQbBCGwHbMUhb4YYKMERQ+ifj3SAfv3w4LUswdF8lK8lbgux8IeSll63zYEJyY4Jn3N5D7he4Tc7LbiDIhINUMPsyuMwn+qt6sIyMzAhmaHVHb7KOQoIyEm9vAtdLtsbiG3CqXuKglywN4eO9VISW2gXwojbJkiVjzdUrPoOy33cic0/Y7zmhuaFPjgqaLQ1K8glN1yei4OhOQqUfYIJSus+hqOdG2jM0yteDcu58pXvyePQ4l7SrQVCKnjN+zVSenxHP/XAcCP+/JPGmgi6Wm8pS3/UrkMWPO/EAmdAdCOUEpSSzOTg0/Ht9+u94z8weYrDdLwPtZdM9Ay3lvic3rl3vfSr6fS2gYWArj7Aebjt3vtK7Mqf9fhJe9p2GQ5q+uTlcjoJVfFlHHflzIG3FABN/aUkAgg9kaYkRqR/IBR8OTcjwkZzipIL+6Llb/MdXAV6duVxCMoQY03YyhDsf5Evw0dPEh9zUj7Gb6bqnWgTmKucZ8k3vANPIer4EjHVEDyV+ZNbxnGrXPXv2LP30pz+l48eP04QJE+i2226jadOmVdsoaG8EAdsxyIjSDRRikaD0EXep2Y9xRGI3k27AkdH6Sp2WQZlEUHaz8Vp9z8sdnOzHzunWvhHhBUDnRfNZPp1clEHpBRJPh6hgGC4jJCi9rEPOoHzGyaC81smgbJN1vCdltI4ZCcqkzEUng6D1ZS8pU8zvURoEZcYMyvixETcG0zIoG/hkqKHJ0qAkn9DEZSm0wYvNqgg/39KeQxJf0/Cv2APNJO0aICgTnzP+gZjl+VnxeFND/9MxSeq7/jbkfuzU6slaRiZ0VH9FrsBInXxzxqFPWqe846POapOvOKspOkRcKGvIv792d9WMz7f9/dYhBrv3w4Rgd9VG+xDHwMcIL1spvJVLa5VKaz9J5/2w3yMg49uJXqniPb/a8lNxWOJbZRKlrx9UHe+yW1fFl3U0lD8HouJdOOGC411SooKAcEtJjIglpR0QvOzdtHfv9I/sktiu8E4RJihTk0AEeBlKNtn22AOOD3f3lF/3bCsjuxfLYDLGg28b+JCb+jHWIyhD24ulfCx99NE3nKMYItMy22NFx3OqWXd4eJj27dtHBw8eJP7df02fPt0lKseNG1dN46C1EQRsxyAjSjdQiCGCMgo5Qfp7LLmYIcVfg6BsBXGK2G8ywp7O0urwPYGdkjR/KZkRs3TDfXHxsgl71O++cIdffjLvQdljS44EZdLyCwmmvmVhsmUSYbI7rq8b+KSogcnSoCSe0MS8dHazc+OWHQefb+nPobwnE2nPtGQfj36mBGVGl5FkrEQRlBGDMdPzIC37VJIRFhej4rFK7+caOFlOJkh9V5WgjFrK68lCJnQX1UjiLXXyHSQoo2QECUqix/jQutCHk6R6/B7jEQnd/go/N9MIl4Hedjv7v3X9OnXlh5OdlXhATtsuhxnp2W4nEofOe4zsY1BOLmhMrIov6zQujueRZFWIoExNAoj4sBFOyPBt/dSyK5QY0ZP9GLZe8D5gQkbPSoP0VRlf6SEo0z6+CvASEZRp7XgYthI6Hupsc0UdgtL9+OBuzRVKGunJoNToj9iPsTEEZcTHn0ACRk8GpY6nVL8uL+f+yU9+QhcuXIg1ZsyYMTRnzhz3B1czEbAdg5qJsr7VuRCUvC/Qww96pz07SvZs8vswXbfpISf7Li77MeKrWmYZgiDue1FYsGBBG80baMXDD7pf9UNT7PZX9O4XuFU3bHC2N+pd4h3edLq1GTNL82UAhU6h7ZZJmzyH8fSf4u196Y/TkXVw5D/g23vJXf4ejfcz33VOsfa+ODovUQtWPdw5LdxvS25LvN3NqJzTtBP1kIyvtDLRp3g/5pzivSGwnh+H5Og/coqTIA1K0glN9CS0ZZ93rzVZbk984z6mpD6HBM8ypcmE5xdx41zSbtwzJdzPUc8doX93RLX1oUdp3Yq3OvvQdfaw9R7ZmWNFGeNNcX5SxpalvuvXXerHPad3hwGQfjxMIx4kE20VPzYxgWZXjNyfOvQWFFWmZ1/s9nMlsP92V06nnc5Kjy654H4w9faVDm3tEtaP925czmmN7UMNvS0repdzhzIW/Qee+E/aDrfrkQOd1SotG3r06GwJE34XDL0vePLa7avgkBRzyui3UTqp+LKObfLngODDlE6iQjv+p3+oiluZkbSdVNy8IYyciozeBAfpR4B0WwWYC56bae20sl6JbnD3n3Tmbc4UqWWDR1BGjLCe574OlmkfY70DB8MHtKbhgz0ouVeYkGRikglK6dXX10eLFi2iKVOmSKugXE0QsB2DagKbdTM0CUrr+hpt0NsUn7+cPdgmEL/7CJN3Uad4pzUdvVQg9HofuZwgTTLuAwEgoI+ANCjJJzT6OrEEs88hMzpBinkE0M/qmEp919+C2I+RCe0sdewSbx6GUXtxG8mEjiN5EjILWaf4pa8tAiV2WatHSMYePhasH/yoFByz/kzNntHcIT5DBFOYkHSJETfNsnVIWfiKPVAntERc3Z0KraniyzoKi58Dvr0O/e0FEy4ESQBpH8hSP0jyYHfGUOwHcuGHQ20ZaRnHbgZBaE4Tv31NbBJIGl4CgnJJGqahpebdrSOyfPTU/JCbmGyRMH9Mwyexn3U8p/x1eQk3L+XmJd3h5dxS7WfOnEm33HILcWYlrmYgYDsGNQNV81Y2mKBM+zLF+5NkuUBQZkELZYGAbQSkQUk+oTFhgennkAmdIMM8AuhnHUylvutvQ+rHyIT23nVispwDHWciE9rh5pysw6ecZZattR7B1Rnx/eH3IWdZ7LoVzgkRa31LwX33naxH5wBwZ3+2De1Mqe6J3F3itU2mhA7YCWRxBmwP7yXOqve2w1W6+92xns7+4M7LZJRd2XAI6hte46PjXzbrqviyjn7S54BOG1nqNulDlS1bbbWTpZ9RNl8E+PAbPgSHD8PRvZicZJKSyUpc9UfAdgyqP6L5WNhggtIBNOLL0wLnhfPhzpLsLKCDoMyCFsoCAdsISIOS9QmN0eeQbVTRnhgB9LMYqnBBqe/669n2Y0ySlbtXqWJniXdoKbiSMFSyhoCKL+soZ/s5kKxrkz5U2bLVVjs6oxB1TSHAy7lfffVVOnz4sCmRHTm83HvhwoU0efJk47IhsDwI2I5B5bG8Wpo0m6CsVl9BWyAABDQQkAalck1oNAxGVSBQEwSkvlscQYlJct5DLXqJt8p2PHlrCvlJCKj4sg6ipYvnTfpQZctWW+3oDETU1UbAW849NDSkLStJgHeIDpZ95wpzYcJtx6DCDK14wyAoK96BUB8IAAEZAtKgVLoJjcw8lAICtUVA6rvFEZROy5gk5zr+3IMunCXb7SMAW8urndUuvJ0jruogoOLLOtYhnuugh7pAoHgETp48ST/72c+I/7V1jRs3jm677TaaPn26rSbRjiUEbMcgS2bVrhkQlLXrUhgEBIBAFALSoIQJDcYPECgXAlLfLZSgLBdk0AYIlBIBFV/WMQTxXAc91AUCxSHAmZK/+MUv6NChQ4UpMW3aNJeonDBhQmE6oGGzCNiOQWa1b440EJTN6WtYCgQajYA0KGFC0+hhAuNLiIDUd0FQlrDzoBIQ8CGg4ss6ACKe66CHukCgGAR4j0nea5L3nCz6GjlyJHnLvvl3XNVGwHYMqjZaxWkPgrI47NEyEAACFhGQBiVMaCx2CpoCAgIEpL4LglIAJooAgQIRUPFlHXURz3XQQ10gYBcBPpWbT+fmU7rLdvX19dGtt95KnFWJq7oI2I5B1UWqWM1BUBaLP1oHAkDAEgLSoFStCc02emz2Q7SBVtG6g9+kJZawRDNAwCYCUt8FQWmzV9AWEMiOgIovZ2+lW6Na8VzHUtQFAtVFYHh4mPbt20cHDhwovRH9/f0uUcn7VOKqHgK2Y1D1ECqHxiAoy9EP0AIIAIGcEZAGpWpNaPIgKPOQmXPnQnytEZD6LgjKWg8DGFcDBFR8WcfsasVzHUtRFwhUE4GjR4/ST37yk1Is55YiyCd8z5s3j2bPni2tgnIlQcB2DCqJ2ZVTAwRl5boMCgMBIKCCgDQoFTGhGXjmAVq+9ue04NHN9GymY2nzIBPzkKnSY6gDBFoISH23ugQlfA5jvRkIqPiyDjJFxHMdfVEXCDQBgS1btrhmXrx4kU6dOlVZk3nZt5dJuXjxYmRVVqAnbcegCkBSShVBUJayW6AUEAACphGQBqUiJjTlIihNIw95QEAPAanvgqD0IwDSU2/UoXYeCKj4so4eRcRzHX1RFwg0AYH169fXzsz77rsPp31XoFdtx6AKQFJKFUFQlrJboBQQAAKmEZAGpWwTmgHa9tgj9NSGn9PP2wovWPAoPfzEV2hJP/9hgJ55YDmtpUdp3Yq36Km1G1rlFqyiR5/4Jn2lv33fq9yWsWrdQfqmu6FkmvwoEiKtjiN222P0wENtXTpAL6BHNz/r6BQhc2AbPfPIU7T2521FO/q3Kg888xg94rNtnWNby35cQEAfAanv+lvK5sf6Orb8AJnQZpCElLoioOLLOlgU8RzQ0Rd1gUATEABB2YReLqeNtmNQOVEov1YgKMvfR9AQCAABAwhIg5J8QhNNLrZU9Q6tSSjjEJmbn72TXmECM5KglMgPk4mCOgPP0APL13YI1S60cQSl10a4E9o2OmTnbIfsZNJ11Q1OmTfeoOueYKLTQKdBBBBwEJD6LghKDBcgUG4EVHxZxyJ5PNdpBXWBABDIggAIyixooaxJBGzHIJO6N0kWCMom9TZsBQINRkAalMQTmg7R5xB1m9sZg06m4WPL+VRth6J0syC7hOGCR9fRE19ZQv3+eu2TtyMzr0TyQwSlpA61CMXOfpdtgrG7/2VIZoeAZEL1K9TvZnUuJ+YkXRvb8pigROZkgx0sR9OlvqtOUKZlHSMTOsfuhegGIaDiyzrwiOO5TiOoCwSAQCYEQFBmgguFDSJgOwYZVL1RopQIyvfee6/Sm9pOmDCBZs6c2aiOhrFAoOkISIOSeELjEXer1tHB1nps99r22OwuedchKL3sRLcEPTabSUwvyzJmaahIfgyZmKRTf3QGZXdZeVBmf3vZatT48epse+wBx+bu8u91zzqEbdMHHOw3hoDUd9UISkHWsbdVQyjT2W0PmdDG+hmC6o+Aii/roCKO5zqNoC4QAAJKCOzatYsOHz6sVLcMlaZOnUrLli0rgyrQQYiA7RgkVAvFQggoEZR4oGAcAQEgUDUEpEFJPKHxCEQmGlMzKDUIykT5MQRlUh3eY7Kd5dnqwwW06tEn6JudNdlpGZRxPe9koT3zCD2kdBp51UYT9LWJgNR3/TqJ/ViSdYxMaJvdjbZqjICKL+vAIX4O6DSCukAACCgh4CU8DQ4OxhKV8+bNi5TNxCbXC19MGl5xxRU9f8+jDSQ8KXV7oZVsx6BCja1w4yAoK9x5UB0IAAE5AtKgJJ/QpO0v2VoO7R6S83MZQelZE14e3mOlm7XF8jPsQdmu4yhEzhaU7QNxovALy0zeg7KfD8jZxPsEOrLe2ECcSNldLi7vH5QEAnEISH1XiaAUZSpn8+PA+BfJRyY0Rn8zEFDxZR1k5PFcpxXUBQJAQAeB48eP05YtWyJFrF69OvLvXJ7rhS8mNKNITRtt6GCAunYQsB2D7FhVv1ZAUNavT2EREAACEQhIg1KmCQ2fbv1d53Rrb3mzk424YNXD9ISz5Lt1RoyM2HCXfT/gLPtuHfHdJQ9T5cecuJ2kk2+fzAULFrSRuoFWPPwgfcU9ejta5mPOKd4bvFO83VrtJeqhQ3cWOMvLu/ZjKAIBfQSkvutvSezHyIQOdRAyofVHLCTEIaDiyzpoip8DOo2gLhAAAloI2CAPbbShBQIqW0HAdgyyYlQNGwFBWcNOhUlAAAj0IiANSnWf0LT2yHSWda97gh50WdQB+u4jTI76szwxgoBAeRCQ+q4SQZm6vyQyocszEqBJ1RFQ8WUdm+sez3WwQV0gUBYEbJCHNtooC57QIx4B2zEIfaGGgDGCMi4FW00ts7VeeOGFwD4V2NTWLL6QBgSqgIA0KNV7QiM5EKQKvQkdm4SA1HfVCErm6JEJvQSZ0E1yqcJsVfFlHWXrHc91kEFdIFAeBGyQhzbaKA+i0CQOAdsxCD2hhgAISjXcUAsIAIGKISANSrWf0PAS79By7QULVtHDTzgnb7fWpeMCAqVCQOq7ygRlqayVKYNMaBlOKFUuBFR8WceC2sdzHXBQFwiUBAEb5KGNNkoCJ9RIQMB2DEJnqCEAglKA26kLn9Dmt8/TvhMX6fVfD9HZjz4R1EIRIKCHQN/YEXTtxNF08+Wj6c5rLqWr+0bpCWx4bWlQwoSm4QMF5pcOAanvNoegRCZ06QYpFBIhoOLLIsExhRDPddBDXSBgBwEb5KGNNuyghVZ0ELAdg3R0bXJdEJQpvb/prfP03X0f0rmLn9Inn3za5LEC2wtEYPzoEXTPzEvpofl9BWpR7aalQQkTmmr3M7SvHwJS320OQelYikzo+g30Blik4ss6sCCe66CHukDADgI2yEMbbdhBC63oIGA7Buno2uS6ICgTev+/b/01vXnqIg1eRMZkk52kLLZfOuoSuqZvNP3V732Gxoy8pCxqVUYPaVDChKYyXQpFG4KA1HcbRVA2pO9hZr0QUPFlHQQQz3XQQ10gYAcBG+ShjTbsoIVWdBCwHYN0dG1yXRCUMb3/wqFB+vt95+g3ICeb7B+ls32sQ0x+ceZ4+totyKTM2jnSoIQJTVZkUR4I5IuA1HdBUObbD5AOBHQRUPFlnTYRz3XQQ10gYAcBG+ShjTbsoIVWdBCwHYN0dG1y3dwIylOnTtGePXusY3vTTTfRtGnTAu1mPcX7/cFh+urmk3RuCJmT1jsQDaYiMGHMCFp7x2T63JQxqWVRoIuANChhQoNRAwTKhYDUd0FQlqvfoA0QCCOg4ss6KCKe66CHukDADgI2yEMbbdhBC63oIGA7Buno2uS6uRGUSQ+CPAFftGgRzZw5U4ug/J6z5+SG187RMLaczLOrIFsDgTuuvpT+/HcnaUhoXlVpUMKEpnljAxaXGwGp74KgLHc/QjsgoOLLOqghnuugh7pAwA4CNshDG23YQQut6CBgOwbp6NrkuiAoI3qf9578xfGPmjwuYHvJEbjyspH0f+6ZWnIty6WeNChhQlOufoM2QEDquyAoMVaAQLkRUPFlHYsQz3XQQ10gYAcBG+ShjTbsoIVWdBCwHYN0dG1y3dwIysHBQTp8+LB1bKdPn06TJ08OtJt1ifcfbDxGHyF90nrfocFsCGxeFdzKIFvt5pWWBiVMaJo3NmBxuRGQ+i4IynL3I7QDAiq+rIMa4rkOeqgLBOwgYIM8tNGGHbTQig4CtmOQjq5NrpsbQVkmULMSlMs3HC2T+tAFCEQiAIIy28CQBiVMaLLhitJAIG8EpL4LgjLvnoB8IKCHgIov67SIeK6DHuoCATsI2CAPbbRhBy20ooOA7Riko2uT64KgjOh9EJRNdonq2F4XgvLdHetpO91BqxdfnSv40qCkM6GxZUuuQEE4ECgZAlLfBUFZso6DOkAghICKL+uAqBPPddpFXSAABHBW5GQAACAASURBVOQI2CAPbbQhtxgli0LAdgwqys6qt5sbQVnlJd4gKKs+rJuhPwjKbP0cHZRO0rannqR/mbqKHl/5OVegzoQGBGW2PkFpICBBQOWFUsePJTqhDBAAAtkRUPHl7K10a+A5oIMe6gIBOwjYIA9ttGEHLbSig4DtGKSja5Pr5kZQVvkUbxCUTXaJ6tgOgjJbX1WRoJQSntJy2RBDaSBQDgRUXihBTJSj76AFEPAjoOLLOgjiOaCDHuoCATsI2CAPbbRhBy20ooOA7Riko2uT64KgjOh9EJRNdonq2A6CMltfSYOSzoTGNFEolSctlw0xlAYC5UBA6rt+bXX8uBxWQwsgUD8EVHxZBwU8B3TQQ10gYAcBG+ShjTbsoIVWdBCwHYN0dG1y3dwIylOnTtGePXusY3vTTTfRtGnB041xSI71bkCDFhAolqA8Q/tffon2nvYMvYbuWL2YeBfJM/tfppfeuYbuuXsuTXRvv0s71m+nszffQ3fPbf2F3t1Bzp/cOs7NwB6ULtnm1PfkORJj23JlndlPL7+0l1qqOPXumUT7XjpN81x9WnVPz1tN/+WuG1ptv7aRHt9AtOrxlcSLul/b+DhtoNYSb/f392726R7U1ZMXZXfLrPB+mkm6e7rdQbR9O73jKjeJbr7nbpo7MVyPTYvapzOpXApuFsYomgACJhBQeaEEMWECecgAAmYRUPFlHQ3wHNBBD3WBgB0EbJCHNtqwgxZa0UHAdgzS0bXJdXMjKMsEKgjKMvUGdDGFQHEEZZv46usSZgFS0SUM36FrXKKtRfC9PMBW99Pd7YNw/ERemNQLEpS9bQUJ0PD9FhnqtN4mOLMRlC3y8r02Scg6t+q/cw2Tq9QhO73zfCJ17xz4I9T9tEdKtgnOs12CVJoZGUuMxvWRqUEIOUDAAgIqL5QgJix0DJoAAhkRUPHljE0EiuM5oIMe6gIBOwjYIA9ttGEHLbSig4DtGKSja5PrgqCM6H0s8W6yS1TH9sIISl/2Y/fc7RYx6LCCtPhqP6k30c2o3DdxnpMlOED9oaxGJvoSSbgw2el2D7e1jyYxAUohMtS93c3OzJpBSXSSnvvrJ9uEpMOuRrbfHSPhbNGALWm6t7MkObuzc4B5CFtlgjK1j6ozzqEpEFB5oQQxgXEDBMqHgIov61iB54AOeqgLBOwgYIM8tNGGHbTQig4CtmOQjq5NrpsbQTk0NESnT3fWf1rDuK+vj8aNGxdor3kZlOPp0a8upOu2/5ge3G8NeuMNrfxPX6C/pAM04wcnomXPnUNH7if6xrcO0EbjrZdfYHkJyvYy79PzaPXiPifrcB9NvLu1lHug3yHj+phU9JZgSwhKb/l2sE+uYTKU/GRk+74WQUm0+7m/7ixRd5QPLlcPLCdvtzcpJuMxqmy7iqt7m8gFQVl+X4OGxSKg8kIJYqLYPkPrQCAKARVf1kESzwEd9FAXCNhBwAZ5aKMNO2ihFR0EbMcgHV2bXDc3ghKneBc5rOwTlHOXLqQXF48PGv16ArnYA09L5zUnu3WyEZS99YvsARttl5mgbGUeMgnZTwMvn6F5vB8lE4cD/XTPpH30kktetvIvs2dQ+tCNylLUJCjf2P1ce4n67UQ7W/tXuqq2Ccc+l1xs6ZA9g9I/MrrLz5FBacNj0EZVEVB5oQQxUdXeht51RkDFl3XwwHNABz3UBQJ2ELBBHtpoww5aaEUHAdsxSEfXJtcFQRnR+9Vf4l0QQXnjCbr3O0ecRbd8XU7f/fM5NHPHblq69bzAx0BQCkAKFCmMoGwfevOO79AWl2T07Z3o7d14uu8aZz/I/hYZyQTfztPUx8fB+JY1Z92DMohT6ACeTtZi95AdT/7j/+Uup+prtNE5IWe/szg86pAcls0TGq6zz9nHsqVq6/CfXoKyvd9lXAald7iPbx/IoO5CgjKAa/Qo6cW/rVtiH2UdcSgPBIpBQOWFEsREMX2FVoFAEgIqvqyDKJ4DOuihLhCwg4AN8tBGG3bQQis6CNiOQTq6NrkuCMqI3gdBmd0l3AzKAEFJlJoBmdJMan0s8c7eUcZqeIfRtAX6SDqvCTe70DnuurWc2WX42qdx+0/o7s2gTD/Fm2X5ZIRP8W4diu07Bdyvq0NMfn0qbX3yOC2NOMWbJbsTGjcL02EnQydneza1bHQOt7m5j/a+M6lz6nf6Kd5+3dMJysAJ5ZGneLfR9mPQKZfeR8aGAwQBgRwRUHmhBDGRY4dANBBQREDFlxWbcqvhOaCDHuoCATsI2CAPbbRhBy20ooOA7Riko2uT6+ZGUJYJ1HruQdnOOJziIX3Ctxejl0F5gOj+OcR5Y0Tn6emnd9Pa9/l3vn8T0XNH6Lo1Ufe9Ms6S60j5bfLRISS9/R97CMorZtDWNf10+HlvH8yIrM4QwRgmJHsIyrbMaz17dgzSGmdrQ0+HYPk0DBwhAXkejn6cyjSKe3XxZ1CeOnWKfvrTn9KFCxdowoQJdNlll9Ho0aNpzJgxgYpXXHGF+/8RI0bQlCmdzi23oVm1izwghkgalDChyQo4ygOBfBGQ+q5fC/hxvn0C6UBABQEVX1Zpx6uD54AOeqgLBOwgYIM8tNGGHbTQig4CtmOQjq5NrguCMqL3y59BGbMcukMYeuRll2xr7RE52CbzZPf9h+xEkodhgjK8B+XJAd+Sb12CMmxzawn5XdQlSaMIyjVTuhi496d4OoWWoLtk5eX0zx0St/yPBT9BmXXP18mTJ9OKFSsSjRweHiYmPitHZIKgLP/ghYZAIAMCKi+UICYyAIyiQMASAiq+rKMangM66KEuEMgXgQMHDtCvfvUrunjxojvfiLqmTp0a+Xc+iJcP5A1fnKTBP+ErjzZ4LnXrrbfmCxKkG0XAdgwyqnyDhIGgrCJBGbm0uUW4kZuxGLUHZZb7vaBELeH2l4pd4h0iTQMni2fJoIwiEBPrpxCiPfLs79up+5zRIShHjRpFn//852n27NmxavDLwqZNm9z748aNo76+Ppo4caL7Owdlzs6Me3HQtU2rPghKLfhQGQiUDQGVF0oQE2XrRegDBOQrGUxhheeAKSQhBwiYR2Dnzp00MDBgXrAliZJkD0uqoBkhAirvk0LRKGYQgVISlIcPH6Zdu3Ypmblo0SKaOXNmoG7tlnjbICijlj8HMiKD3RNJYAaWeWtmUEbZrENQhg/xqXgGJX9FfPfdd+nEiRP04Ycf0vnz590vklFfF72eY3Iy6cvfe++9R9u2bUv1Q/5SyVmW/JNEeKYKyrmANChhQpNzR0A8EMiIgNR3/WLhxxlBRnEgYAEBFV/WUQvPAR30UBcI5IMAr9DavXs38Xy/6hcnaixevNhN3sBVfgRsx6DyI1JODUFQRvRL6Zd4qxCUaWShn6Cj8P6RRCoZlN4ej619KDUJStMZlG2CsrU/Z+v6UWe/zHI6a1gr6SnenAl59uxZ4mXgJ0+e7CyjuP3226m/vz/WWP6qefDgQbeO5Jo+fTotWbJEUrSQMtKghAlNId2DRoFALAJS3/ULgB9jQAGB8iGg4ss6VuA5oIMe6gIB8wjwnIQzJ3leUpeLV5RxghTPg3CVGwHbMajcaJRXOxCUEX1TeoLSI9deP0AzfnDCtSC4v6Jsj0n//oyBPSp7Drhp7/foy6B020s6JKdHp/Cp3ml7SEaXn7ljNy3det53wE3yHpSxS8qZ5L3jvG+PzPI6aZxmUoIyXJ+zKj/44AN3mXbaFz8mJ/nAHb74ZeLMmTPuQTz8d87Q9JOX8+fPpzlznG0GEi6Wwe0Xsa+lNChhQlM9X4DG9UZA6rt+FODH9R4TsK6aCKj4so6leA7ooIe6QMAsArzn5L59+4gzKOt48QrOhQsX0siRI+toXi1ssh2DagFaAUaUkqBkAkT1ywrvkxcmXWq3xNsdKB7B1x41PQfSOKd0bz9Bv39/P3VOvQ6c4r2Qrtsed8p3O2Oyc+iNc9AMn5h9Y5fQiyQoEw/JCevsEItPn6evrRlPf/utA7TRuZ3tFO+0+ukZmy1SdnzA7aqURalKUEqfM/wCwb7D/siZlrx8O4pY5K+hTFTyCeHsf0kXv5jwDwdv/tI4bdo099/waeNSHbOUkwYlTGiyoIqyQCB/BKS+C4Iy/75AC0BABwEVX9ZpD/FcBz3UBQJmEOD5BG8ZdfToUTMCSyyF50FLly6NPKinxGo3RjXbMagxwBo2tJQEpWEbXZJlcHCwI5b3i1i2bFlsM+XPoNRFqHoHwuhaHK4fPNW8fTdy6bzpls3Jy5ugjNqDkn3n5ptvVj4cZ/PmzZFLxpmk9H7yIiulQQkTGnNjFJKAgAkEpL4LgtIE2pABBPJDQMWXdbRBPNdBD3WBgBkEeA7Oc/GmXMwxlPIQ0aZ0QIKdtmMQIFdDAARlBG4gKNUGU5VqRe2pGUlaltiovAlK3rNy79697t6V4YvJxHnz5rnLxLNcvO/M+++/72ZlRl1eZuWsWbOMB3dpUMKEJkuPoiwQyB8Bqe+CoMy/L9ACENBBQMWXddpDPNdBD3WBgBkEQFCawRFS9BGwHYP0NW6mBBCUICibOfLJ26fTb353P8sqgJI3QelhwNst8L4xUaft8dJv3nuST/LOcrFMXurBB/HEHcLDXx9/53d+J7PsOD2kQQkTmiw9ibJAIH8EpL4LgjL/vkALQEAHARVf1mkP8VwHPdQFAmYQ4KSEHTt2mBFWASm33npr5gSOCphVCxVtx6BagFaAESAoG0lQFjDS0KRxBGwRlJ7i/AX01VdfdUlF/8VZj7fccgtx1qPKxS8u7777rntiuH/vWd5L9r777jO22bQ0KGFCo9KLqAME8kNA6rsgKPPrA0gGAiYQUPFlnXYRz3XQQ10gAASAQL0QsB2D6oWePWtAUIKgtDfa0JJRBGwTlJ7yfCgOH3TDe1R6F5OUK1asSD0kJw0AJiiZqORsTc7M5IN5TF3SoFS1Cc37g8O0+e3ztPfERTp0aojOX/zUFGSQAwQiERg78hKa3jeKfveqsfTbV46lz00ZkytSUt8tM0EJP811iEB4BAK2/VTSCSq+LJEbV6Zq8VzHVtQFAkAACACBZARsxyD0hxoCIChBUKqNHNQqHIGiCErPcF6a/bOf/cxdoj1nzhyXUDR1cVbl6NGjjWVPsl7SoFSlCc0/7P+Qnj90ns4NfWIKesgBApkQmDBmBM2/fAz9t9sm0mXO73lcUt8tK0EJP81jVEBmFgRs+KlEHxVflsgFQamDEuoCASAABJqBgO0Y1AxUzVsJghIEpflRBYlWECiaoGQjh4eH3YxHznTkLMoyX9KgVAWCcmj4U3rohyfp1IVhuvAxMibLPO6aoNsoh5ecdtko+t93fTYXklLqu2UjKOGnTRj91bExbz+VIKHiyxK5ICh1UEJdIAAEgEAzELAdg5qBqnkrK0VQMhmiQoK88MILxPvneRcfvrFs2bJYNOt/irf5gQSJ9hEoA0Fp32r1FqVBqQoE5bpXz9KLb52n34CcVB8QqGkUASY/5k8dS2u/8BmjclmY1HfLRlDCT40PBQjURCBPP5WopuLLErkgKHVQQl0gAASAQDMQsB2DmoGqeSsrQ1AyOblt2za69NJLadGiRQEkdu3a5f4//HevUFaCcsUPjtIwVkyaH22QaBQBEJTZ4JQGpbITlG+dukiP/PjXdPYjPKSyjQCUzhsBXuL98ILfomUzxhttSuq7ZSIo4adGhwCEGUQgLz+VqKjiyxK5ICh1UEJdIAAEgEAzELAdg5qBqnkrK0FQeuTk0aNHXQRmzpzZISOZnOQDNcJ/90OVlaD86uaTxJMLXECgrAj0jR1BG790RVnV69HLO1Bn+vTpRnQ+fvy4u7x82rRpYnnSoFR2gvLpX3xIG18/J7YbBYGATQQ+72RRfnup2SxKqe/67Szaj+GnNkcd2sqKQB5+KtFBxZclcuPKFP0c0NEddYEAEAACQMAsArZjkFntmyOtEgQlH8Lxox/9yCUkvItJSr48cpJ/HzNmjHuS8IQJEwI9mJWg/Js9Z+jFN883ZxTA0sohUNTkQgUoPvDm5ZdfJv534cKFNGvWLBUxbh0mOjmTmq+0rRrCjUiDUtknNH+65QN67YMhZQxREQjkiUAeH0+kvuu3q2g/hp/mOcogWxeBPPxUopOKL0vkxpUp+jmgozvqAgEgAASAgFkEbMcgs9o3R1puBOXQ0BCdPn06M5J8cu/kyZN76nH2JBMTfpLSX4jJybvuuiuyblaCcu+JIfofO07RIE7Gzdx/qJA/AuNGXUJfv6WPll9rdhllXprv3r2bDh061BHPB+rceuutSs2dOnWKNm3a1Km7ZMkSkmZlSoNS2Sc0f7DxGH3kHJKDCwiUFQHT209IfbdMBCX8tKyjE3p5CJj2UwmyKr4cJ/e1jY/TBlpFj6/8XGzTZY/nnuLv7lhP2+kOWr34agmMKAMEgAAQAAIKCJiMQQrNo4oQgdwISl6CuWXLFqEa3WJJWVFxJGUSOcmSsxKUXOcvHILy345eoI+xzVvmPkSFfBG4bvJo+s7yKfk2YlA6Z05u3bqVmFz0LiYVb7/9dqVDr/hDhbdknA/NuuWWW0RZmdKgVPYJDQ7xMjg4ISoXBEwTH1Lf9RtTtB/DT3MZWhBqEAHTfipRTcWX4+QWS1Ceof0vv0R7+8yQiiAoJaMHZYAAEAACegiYjEF6mqB2EgKVIijZECY6vL0o/WQHZ1LFXSoE5ZCTofSVl07QmY+GQVLCh0qDwJTxI+lvf38KTR7nHJlboYszn3fu3NkhFll13j+S/ZZJxiwXZ2dzFuXg4GCnGhOet912G40bNy5WlDQoFU1spGEB4iMNIdwvGgHTxIfUd/12F+3H8NOiRyHaT0PAtJ+mtcf3VXw5Ti4IynjEpYSntJykb1EGCAABIFB2BEzGoLLbWmX9ciMoOVtqz549mbHh5d1xyz/9B+KEBfsPzgnfUyEoWcY5Z4n3X/30DL16fIgGLyKVMnNnooIxBMaOvISm942itUs+Uzly0g8CPxMOHjzY+ZMqScnkJGdS+rMymeicM2cO8RJyzqoOX9KgVDSxkTZoQHykIYT7RSNgmviQ+q7f7qL9GH5a9ChE+2kImPbTtPb4voovx8ktlqCUWCsvY5oolMqTlpNbgpJAAAgAgfIiYDIGldfK6muWG0FpGpowOckEBGdlhQ/OWbRoUU/TqgSlJ+jfj31E/7D/HA2cvUjnL2Lvt6x9O4Y+piEalbUayjsIeMTkPTMvpXuvDx7+VFWA9u3bR/zjXaokJfs+72/pPyiLZTJRyR8s5s2bF8iolAaloomNtH4F8ZGGEO4XjYBp4kPqu367i/Zj+GnRoxDtpyFg2k/T2uP7N9zwGdr21JP0L8e90nNp1eMriXeRPLntKXpy/1z6+sNLqLWJzWu08fENdPz3vk4PL2lva/PaRnL+5NZxbgb2oHQJS6e+J8+RSM/99ZO0t7Md/jV0x+rF1Nnl8cx+evmlvdS67dy7ZxLte+k0zXPLtJZwn563mjrbQr67g9Zvp44MP7nn/n72Zrrn7rk00TMtUL69JDxGl16iMKm8p9sdRNu30ztue5Po5nvuprkTw/XYtKhl6EnlknWV9DPKAAEgAATKiIDK+2QZ7ai7TpUgKMP7WXp7TvLedv6Dc5iYWL58ec9BOboEZd0HQZ72MYm0efNmt1+yLuXNUy/ILhYBUyQlW3Hy5EniDxhnz54NGPXlL38ZBGWx3YzWG4qAaeJD5YUSBGVDBx/MFiNg2k/TGz5Dx7a8RP8ytXuwTYBUPLmNnnpyP839+sPk8pEOGfnUL1nqTfRw+yAcf9ZkOIMySFCebBGh47rk3Jn9L9NL71zTJhHDe0i+Szsc9vEdJioVCEpyycizbZKQdW7Jf+eae8jhLHvIzjAhGfx/7/6Wkbqf9khJcpoPEqTSzMhYYtS3t6ZbxsEtQO6mdzZKAAEgAARKh4DK+2TpjGiAQpUgKLkfOEuKSYjwgTjewTlchvez42ys8AWCsriRzMt5eVkvL9vnpbe4gICHQJiknDVrFi1cuFAZoIGBATpw4IC77JufA0uXLg3IkgYlG8QG68gfXlR8AplZykMEFS0hYJr4kPqu3zwbfpwEJ/zU0mBDM8oImPbTVEVcEq/Pl+HINVpZks4faeXnWqTi/rmtjEnOqHzlcieOb/gl3eRmWbbuH1/KZZm/TDjFu012XnnPMier0NOMSch9NIkzDYmzJx060s06bN+PyHiUZlAGCUlHoJudGZLvAyhIOLYJRu8U78i6Pt3bWZJy3eJ7poegDGWJtmq2yFuHoexmk6Z2NgoAASAABMqHgMr7ZPmsqL9GlSEouSuYpOQ9KvnHf3mH5kSRk1wOBGUxA5mzJxl7znTlw0vuu+8+ZFEW0xWlbdUjKfv6+twPDPyv7sXE34gRI2jKlOBJ5+GgdPr0aTpy5AjNmDGDJk2a1GnWBrHhZYVPmDDBJe/5kB/pBeJDihTKFYWAaeJD5YXShh8n4Qs/LWr0oV0pAqp+yqsV+J0uaq/nxLZTCcr2Mu/jS+nxlZc7ZOQrdPnDraXcv7zJISUv5wzL47S0vSQ8naD8F+qsJPcpdg0TbRRcru3e1iIomZPsZmg6KZO+bE1HdmA5eVuZSd0l4QGiMKpsu4qr+9XZlp8n9QkISqm3oBwQAAJ1QEDlfbIOdlfNhkoRlKrggqBURU6vnpc96UlBFqUennWtfejQIerv788+2ckISDgovfLKK8Q/fDGZeeWVV7o/fE2dOjWj9GzFw9tWcHvz58/vIVWjpFaT+BhPj351IV23/cf04P5sWBVdeuV/+gL9JR2gGT84Ea3K3Dl05H6ib3zrAG0sWtmStK9KfMSpr/JCCYIyx8GAMZ8juPZEZ/HToaEheu+99+jNN990t1XhD878gS3TJSAonbTJNgl5E/3yqRN0J+9HyftO/vIm+vrUrfSkS17yjpUqGZQ+baOyFDUJym7W5O1EO337V7YJxz5fBmL2DEo/0iAoM407FAYCQAAItBFQeZ8EePYRAEFpH/NGtOjPnvQMRhZlI7q+tEaGg9L3vvc9N4My7uJMbSYuObvS+92UcbwcfefOnT3imKhlojJp4geCMr4X5i5dSC8uHh8s8HoCudgjqkWkrjnZrZONoOytb2rMVElOFuJDYpfKCyUISgmyimWEBKXrOzf62zhPTz+9m9a+r9iukWp5+mieso0YHxAi8VMmI5mU5JjlP5Ry9erVCgq9S3udpcL754b2oDz+e76DcdrLuKfyIuybWmQkk5b/eJymOn9x0ifd5d18Zd2DMqhwa9ny2Zt5j0hvSTYfmNPdazGYXRjeozK0LLstnOvsc2TwyTWtw3acq4egbMuKy6Bs71+517cPZFB3IUEZPrQnosd6D/dp6+Y7WCfyACCF3kcVIAAEgEDRCKi8TxatcxPbB0HZxF63YHM4e9JrElmUFsBHE5EIhIMS72nLEy/+kVy8BD3LUuwkmd6eulFl+DAp3ptyzpw5kVmlTSUoU4lCB0yXoLzxBN37nSM8lXWuy+m7fz6HZu7YTUu3nhd0MwhKAUipRSTER6oQXwGVF0oQlFkQzlg2laBs+d1doY8D3geEHz1fZCa1ORKx95lkTnbGHlEqHuenvC0PE5K8uiF8+Bw3xEu7V650ll4rXDfcMOzuOdlJpJ/qJydbAt3TvJ1jvue6+1K6f2mf/O0/oTuNoGzVC57izX/zHfYSPsW7dSi27zAYj5Rs1wuc8h1NULaWiTvsZOjkbDdjsnOcuHO4zc19tPedSZ1Tv9NP8fbrnk5QBpaUR57i3e48Pwadcn67nXI+IlWhy1EFCAABIFAaBFTeJ0ujfIMUAUHZoM62ZWpU9qTXNrIobfUC2gkjkBSUeOka/xw7dsydmPEhNuFLsqRt9+7dNHr0aHevVc669Pbo4r/5985NIii9drnuvHnzeg7SAUEZs9TaAa6XoCSSEJtJ3pJaP5WsaZ4vgqAkqqafCsdqyph3fWbKgO9DQVdu0j1h66UplvpsKI2m0YqE/ZT3c+fYxDEw6eK9ou+9914l62xPDjN9qIg8IEbJTFQCAkAACACBEiJgOwaVEIJKqASCshLdVC0l47InPSuQRVmt/qyLttKgxBMaJtk/+OADd68t/uGMkuXLl6dCsXHjRuK9utIuJupZpuQKH6RTTeLD24PyANH9TmaVa3h4uWc7+6hzttGJ9r6O4b87VduZWa0lpF65CILyihm0dU0/He5kbEXshRkiW8KkQw8J0ZZ5rWfDjkFas7i7B2WwvMDugDxvRJRhKaxkdMqID3VJrZpS3/W3k4mY0FUwon6efhpJ8gXGcchnApmMcX7GRnDm4wx66/kT9Pv399O1no9Sy48Sx3zHD1vZkxSXJenqOaG91FvSXpRPJNmQ7nMBH43wv7c7GdeKz6TAnrV6uuYwNDsimaAcHBx0MyWZmJTGJN4zedmyZUqqqfiyUkPtSpmeAyAodaBGXSAABIBA6RGwHYNKD0hJFTRGUOZ9qIQOfkw0+PfO0Xm50tGjCXWTsic9+5FF2YSRUD4bpUEp04TGZyZP7p577rncDPcO0ln9o4u5tZGfYG+S3iXeWss9B4MkZHjvRx/5GJWtFElQhvegPOnP5NIlKMNLONtLWalLkkYRlGumdO0OkkuhJeguWXI5/XPh+/TpjQRkUOacQRkg+bivWuPy91/nrQwoch/VFa/xsure8R8cr73j2ZPd3Zc1Zsx7vtrzUSA0lgJjPKq9NJ9Is6H3WRMmdGMzHwO4prUTnZ0d6f+xz7V0XfU8Mb72ZXSB/uvUI8RZk1kvXg3AH5r541nWg3KkcTirTnHlM8VzEJSmYIccIAAEgEApEbAdg0oJQgWUMkZQVsDWjoogKPPrrbTsSa9l+1mUEXv25AeDI9l2e/rG9O6BFJJZwMs7T57OnTtHs2bN0jZQGpQyxz0OAQAAIABJREFUTWh8WvmzLvl3zqT0LxXnk7t1L352/X8fzKLf0BhdUZbrR53i7cu0oqiTsIOZWJLllLFLvDtEpyZBGUUgJmZgprTXI6+6p537BxQIypwJygAh6eyt6h9HbrajnOQO+kxE9qNgzAceJgoEZSDbUsEngjZk9/GW/un71YafL7EfTbwMysil8H6M03XN80G9/q7RxNuSRG1pkqVdPkyOPzxPmzaNrrrqqkTSUhqHs7SfVFY1nptqH3KAABAAAkCgPAjYjkHlsbxamoCgrFZ/lVpbSfakZ4D9LErbhGG+7QU3XG+jmrQRes/IaennPyUyG0HZW9/k4GRyj0+5ZoKS93Pk/R95zOhc0qBkY0LDtqXt8+W3debMme5elJy5kufSUR18k+sWR1C2yBtvmXc6IZC4xDuKcNAhKMOkCDIoI4eR1Hf9lW34cdKYz9tP/WQZ+Q+HStsTNWpLgU6WcQRBKRjzQRwkS7y9LRGiyqZlUDqtJdqQ3cdZ/8hl84ntCDIoS05Qeh8SDhw4QPwj2Z5EEiM4q5KJSiYs+YdjuHep+LKkzbgyRT8HdHRHXSAABIAAEDCLgO0YZFb75kgDQdmcvs7dUmn2pKeI3SzKfAnDXnDzbc8lKN+5pnMCpHOeJO1Yv53O3nwP3T13oqCvy01QMtm9efPmTmYHk3M8XnQuaVCyMaHhE8R5z6+kiw/Juf766+nGG28MkLN5Ex86GMfXjSAN/MRhjhmURglKQTZZ9B6UvlOLA6SFt8S1i1yxJxyb6X1kUOadQemRdJwp+UuiLy+k67a3x1gSyR2R3Wg8g9Ij+wL7MHbHVdQWB8H9KlN8ItUGBYKyZ8m8h69//9rePW6rnkHp91PeouQnP/mJaMk3fyjjg99Onz6dSGoyMcmnfYOgNPNchRQgAASAABDQQ0A6F9RrBbV1EQBBqYsg6rsIZMme9CCzm0WZL2FYPEHpUJQ71tN2uoNWL75aaVSm1re8xJtP1d62bZtri4ksSmlQKpqg5OwTJiWvvfbazing/g6tMkHp34sxuAdlm5TwHeYRuW9c6GTg1ENyPLLEVy9tz73kQ3Kisrv48JDkPSg75BF3pJ+g5N/vOB952rGSE5ekEghKCwRle2x/zRl7dCPR337rAG10+z+8T2or08/dg/JE+NCott8lZVBGZvlGjHnffrGdDMfA4TztjMMb/QdAxWRsJvlED0EZtiErQRmztDu1neisy8jnS+xzLV3XPF06yk951QITlUkH5ixZsoSmT5/eUY23L+Fl4u+//75LcHp7vkdtpySNw6bsthHPTekKOUAACAABIJAvArZjUL7W1Fe6EkFZXzhgmSoCWbMnvXbMZlG2swJPe9KvoTtWL6YWXecRlHcQbd9O77h/m0Q333M3tRIO+f5Ootvn0emXou53ZeyNlN8mCJ2sxlabae2ly3MYR1q/vaVpS92bOxmTPRmUZ/bTyy/tpb47VlOLn4wgZEMEY5iQ7CEo2zJb5jpY3dxHe/dSB9NgeYG9AXkdo3x90Dv6Nm3aZCyLUhqUbExotm7d2pOpwlkpc+bMof7+/kQ3rC5BeZPje97pwGxi+KTqUOZU4HAbp7h/uWXSKd6Jh+Rwu/52HGLx6fP0tTXjOwRPtlO80+qnExAtonZ8oM+rnkUJgtIOQdkiuy/vnGrfHUQhX/IRZMHx5vggn0LvkIb3fucI7W/7Rs8J3IGlzjFj3k9Quor0ZkJS2Kdj2kvziWQb0n0u4OMehn4PbOOV3E7CMymQPZr0XEvXNTEYaN6M81MmGPft2+cu+466+ATvpIMxT548SfyBkWNaOJ6F4zATobrbtyTBYCOea3YDqgMBIAAEgIAlBKRzQUvqoJkYBEBQYmgYQeDQoUORX9z5Jde75s2b19MWv5iaOADFI+R69lQMEYZ7T3dJydY+jn0BQjHt/ul5HgHYm7HoEnYJ7bn3z3okYy+BGCD8XDLvHbqmQ6AGoYvcg9JHYOoTlOEl4K0l5I5GiQSlH7+gvaEl6Cn2edaazKKUBiUbE5otW7aQd2gOZ6JwxmTShM/f+9UkKI08ZmonJJhF2jYvbQ/BCqAAgtISQdkeC3887BzdjQsIAAEgAAQyIcD7ey9atChTHRQGAkCgughI54LVtbAemoOgrEc/ltaK9evXd3RbvXp1fnpGLj9ukWIOo+ZkFUYt8c5yv1f13n0g/WXSMxjDEoPykveUjGo7iiD1E6qtjMy4DMgQ4RpFICbWT7G3R558yb0/i5IzDOfPn680jqRByQZByRmUl112mZsxyUu6s1wgKLOgVe6yUaeOR5KW5TajRzsQlCAoKzZkoS4QAAINRAAEZQM7HSY3GgHpXLDRIJXAeBCUJeiEOqtQK4IyaolyIGsxI0GZKs/LWmS5/uXoTn5kzyE5TpHAMu90gjRxiXcU4atDUIYP8RFmULLl/ixKzrj98pe/rOQy0qBkg6DkJXT+gwOyGASCMgtaZS/b3i9wil/P7n6WZdc+Tj8QlCAoqzp2oTcQAALNQQAEZXP6GpYCAUZAOhcEWsUiAIKyWPxr33qpCco0Qs9Pojm7cwX3eIwhCTs9Ksko9O8ZmSLPJQfPdvZrzJ2gNJ1B2SYofTtq0jWd/TKT3YDJvOeff75zWmja/ldx0qRByQZBqeP4ICh10ENdGwiAoCyOoPzeyKU2uhht1AABFT/l/SWnTAl8UcmERDgOf/zxx7R//37693//d/djZPiaO3cuffGLX3RXHKhcZY/nKjahjh4Chw8fpl27drlCQFDqYYnaQKBqCEjnglWzq276gqCsW4+WzB5rBKVHgF3TPcU6as/HtD0mY+/3HELTzm70ZVBmWmItkBfoyhBhGLvEu7PHZXiPzLQ9JKPLn735HrqbTxHqZHsm70EZu6ScCdZ9kzqH/GQdprt37ybe51TnhVIalMo+oQFBmXX0oLxtBFSIjyQdpb7rl1G0H9v0U/8elCAobY/26rZn2k8lSCT58rFjx+iVV16h119/PSCKV07ceeedSnsFFv0ckGCCMnYRAEFpF2+0BgTKhIDK+2SZ9G+KLiAom9LTBdlpj6BkA/1Lop3/9hwa45zSPe8aemf7XuqcTB04xfslOj0v7pTvdoZj5wjv9qnW73RJt0wEpaNe8KCbkLzwCd5OeX/GYfohOWE8HGLxnkm076XTNK99snm2U7zT6qcvKY/SWZpFyVkbmzdvdkcxL41euXJl5iXS0qBU9gmNTeKjoMcGmq04AqaJD6nvgqAkAkFZceexqL5pP5WoLvHlOKKSDzPhbMosV9njeRZbUNYMAiAozeAIKUCgighIYlAV7aqbziAo69ajJbPHLkGpY7z80BadVppaN3hiehuFyION4hF64YUXaHBw0F1exhOVvr6+THBKg1LZJzQgKDN1OwoXgIBp4kPquyAoQVAWMNwr26RpP5UAkcWX33zzTXrxxRfp9OnTxFmUf/Inf0KTJk2SNNMpU/Z4nskYFDaCAAhKIzBCCBCoJAJZYlAlDayJ0iAoa9KRZTUDBGVZe8auXlFL0iNJywS1zp49m5mU9IuTBqWyT2hAUNodu2gtOwKmiQ+p74KgBEGZfbQ2t4ZpP5UgmdWXeY9KXvY9ffp0uvHGGyVNBMqUPZ5nNggVtBEAQakNIQQAgcoikDUGVdbQiisOgrLiHVh29UFQlr2HbOnXylDtrJB3m+3uZ2lDC2lQKvuEZsUPjtLwJzYQQxtAQA0B08SH1HfLRFDa9FPsQak2Tptey7SfSvBU8WWJ3LgyZY/nOrahrhoCICjVcEMtIFAHBGzHoDpgVoQNICiLQL1BbVaHoGxQpzTUVGlQKvuE5j+/dJyOnRtuaC/C7LIjMHbkJfR/V15pVE2p75aJoLTppyAojQ63RgjLw08lwKn4skQuCEodlJpVFwRls/ob1gIBPwK2YxDQV0MABKUabqglRAAEpRAoFMsdAWlQKjtB+Td7ztCLb57PHS80AARUELhu8mj6zvIpKlVj60h9t0wEpU0/BUFpdLg1QlgefioBTsWXJXJBUOqg1Ky6ICib1d+wFgiAoKzeGABBWb0+g8ZAAAgoICCdGJWdoPzX/7hA3/63MzR4Eeu8FYYBquSIwBgne/L+WePpwc9nO8AqTSWp75aJoLTppyAo00YQ7vsRyMtPJSir+LJE7rlz5+iyyy7rKVr2eC6xDWXMIgCC0iyekAYEqoRAXjGoShhUQVcQlFXoJegIBICANgLSoFSFCc2fbvmAXvtgSBsTCAACJhGYOmEk/f2Ky4kJEJOX1HfLRFCyLrb8FASlydFWf1l5+akEORVfTpPLp31v3LiRvvjFL9L8+fMDxasQz9Psw32zCICgNIsnpAGBKiGQRwyqkv1V0RUEZVV6CnoCASCghYA0KFVhQnPqwif00A9P0FnnXzLLBWlhjMrNRWDSuJH0V0s/Q1f3jTIOgtR3y0ZQ2vJTEJTGh1xtBebppxLQVHw5Se7rr79Ozz77rFtk3Lhx9PWvfz2QSVmFeC7BDWXMIQCC0hyWkAQEqoaA6RhUNfuroi8Iyqr0FPQEAkBACwFpUKrKhObdsx/T4ztP0Ynzw3Th40+1sEFlIKCEgDPsxo66hCaOG0F/cftk4n3t8rikvls2gpL1seGnICjzGHU1kmnJTyWIqfhyktwLFy7Qk08+SbzEm6+5c+fSypUrO1WqEs8l2KGMGQRAUJrBEVKAQBURMB2DqohBFXQGQVmFXoKOQAAIdBA4deoUXbx40c2W6OuT73UnDUpVm9D8w/4P6V9/9REdOXORhrEtJTzFIgKcLXnLFWPpoc//lvFl3X4zpL5bRoLS0ylPPwVBaXHQV7ApW34qgUbFl9Pk8hLv73//+51i3/jGNzpZlFWL52m24r4+AiAo9TGEBCBQVQTyiEFVxaLMeoOgLHPvQDcgAAQCCOi8WEqDEiY0GHRAoFwISH23zARlnoiuX7++I3716tV5NgXZQEALARVfljTIBCUTlXwtW7aMFi9e7P6OeC5Br1lldN4jm4UUrAUC9UMgrxhUP6SKtQgEZbH4o3UgAAQyIPDee+/Rtm3b3BrTp0+nJUuWiGtLgxImNGJIURAIWEFA6rt+ZZrkxyAorQxDNGIAARVfljT76quv0j/90z+5Ra+88kr6kz/5ExCUEuAaWAYEZQM7HSYDgTYCecUgAGwWARCUZvGENCAABHJE4Pjx47Rlyxa3halTp7qZEtJLGpSaRGxIsUM5IFAkAlLfBUFJhAzKIkcq2k5DQMWX02Tyfd6L8n/9r//lFuXtX/7sz/7M/R3xXIJes8qAoGxWf8NaIOBHIK8YBJTNIgCC0iyekAYEgECOCAwODtILL7zgtsD7T957773i1qRBCRMaMaQoCASsICD1Xb8yTfJjZFBaGYZoxAACKr4sbZYJSiYq+WKCkonKJj0HpDg1vRwIyqaPANjfZATyjEFNxtW07SAoTSMKeQEEMHHCgDCJwNDQEG3cuNEVOXLkSPe0Tv5XckmDEiY0EjRRBgjYQ0DquyAokUFpb1SiJRUEVHxZ2s7f/d3f0bFjx9zivMSbl3ojnkvRa045EJTN6WtYCgTCCOQZg4C2OQRAUJrDEpIiEABBiWFhGgHOoORMSr5WrFhBkydPFjUhDUqY0IjgRCEgYA0Bqe+CoARBaW1QoiElBFR8WdrQs88+S6+//rpbnD9ezp07FwSlFLwGlQNB2aDOhqlAIIRAnjEIYJtDAASlOSwhCQQlxoAFBHbu3EkDAwNuS7feeivNnj1b1Ko0KIGgFMGJQkDAGgJS3wVBCYLS2qBEQ0oIqPiytKEf/vCHtGvXLrc4n+LNe1QjnkvRa045EJTN6WtYCgTCCOQZg4C2OQRAUAqwfH9wmDa/fZ72nrhIh04N0fmLnwpqoQgj8MfDWztAfG/kUoCSAYGxIy+h6X2j6HevGku/feVY+tyUMRlq17fowYMHac+ePa6B/f39dPvtt4uMlQYlTGhEcKIQELCGgNR3/Qo1yY+xUsHaUERDmgio+LK0yTfffJO+//3v04wZM2jRokV04403gqCUgtegciAoG9TZMBUIhBDIMwYBbHMIgKBMwfIf9n9Izx86T+eGPjGHOiQBgYwITBgzguZfPob+220T6TLn9yZfJ0+epM2bN7sQTJgwge677z4RHNKg1CRiQwQcCgGBghGQ+i4ISmRQFjxU0XwKAiq+LAX1448/pnPnztGkSZM6VRDPpeg1pxwIyub0NSwFAmEE8oxBQNscAiAoY7AcGv6UHvrhSTp1YZgufIyMSXNDDpJUERjl8JLTLhtF//uuzzaapBweHnYPyuF/+Vq+fDlNmTIlFVZpUMKEJhVKFAACVhGQ+i4IShCUVgcmGsuMgIovZ27EV6Gu8Rwru9RHxWfoHF3z6UlXwK/pMnrnkvT3R/XW6lUTK7vq1Z9NtMZ2DGoixiZsBkEZg+K6V8/Si2+dp9+AnDQxziDDEAJMUs6fOpbWfuEzhiRWUwzvM8VfwfniPSh5L8q0SxqU6jqhScMH94FAWRGQ+i4IShCUZR3D0KuFgIov62BXx3iOlV06IwJ1TSGAlV2mkIQcmwjYjkE2batTWyAoI3rzrVMX6ZEf/5rOfoRl3XUa7HWxhZd4P7zgt2jZjPF1MSmzHUePHnX3oZw5c6b7M27cuFQZ0qBUxwlNKjgoAARKjIDUd0FQgqAs8TCGaiAotcYAVnZpwYfKOSCAlV05gAqRuSKg8j6Zq0IQHokACMoIWJ7+xYe08fVzGDJAoLQIfN7Jovz20mZnUWbtHGlQAkGZFVmUBwL5IiD1XRCUICjzHYmQrouAii/rtFmneI6VXTojAXXzQgAru/JCFnLzQMB2DMrDhibIBEEZ0ct/uuUDeu2DoRL0/3h69KsL6brtP6YH95dAHahQGgT6xo6gjV+6ojT6VEERaVCq04SmCv0CHYFAGgJS3wVBCYIybSzhfrEIqPiyjsb+eD40NERjxozREVdYXazsKgx6NCxAACu7BCChSCkQsB2DSmF0BZUAQRnRaX+w8Rh95BySU/xVHEG58j99gf7yRh8Crx+gGT84UTwkuWjQwnnNyWrZuHnVtFzQqKtQaVACQVnXEQC7qoqA1HdBUIKgrOoYb4reKr6sg40Xz5mc/NGPfkR9fX20cOHCyhGVWNmlMwpQ1wYCWNllA2W0oYuA7Rikq29T64OgjOj55RuOlmQ8FEFQXk7f/fM5dFeIkGTC8msnd9PSredzxcYlRilforC3DRCUuXZqSYRLgxIIypJ0GNQAAm0EpL4LghIEJZym3Aio+LKORRzPh4eHadu2bcR7V/PFJOWiRYtoypTqnN5cnpVdOr2BunVGACu76ty79bHNdgyqD3J2LQFBCYIygIBL3k0ZoHu/c4SKWFVeDEFp1+lMtYYMymxISoMSCMpsuKI0EMgbAanvgqAEQZn3WIR8PQRUfFmnRS+e7969mw4dOtQRNXLkSJo3bx7NmTNHR7y1uuVZ2WXNZDRUQQQwL6lgpzVMZdsxqGHwGjMXBGXhBGU7e6/zIfcEfeNbB2ijq5eXQXmA6H4nq9H923l6+undtPZ97/5NRM8doevWRN3vylgTKZ+otZTba7OVPUnPp+15qaOzo9PcOXTk/su7yJ9kQvQ4/T+8zNr/QdvN4iRHpxn01vMn6Pfv76drXft/SfTl0N6crkzqwa4jz5U12FrK3dPGiRYOgcxNTRuNuWi8ILwIZANZGpRAUGbDFaWBQN4ISH3Xr0eT/Hj9+vUd01evXp13d0A+EFBGQMWXlRtzKvqfA4cPH6af/exnxMu9vWvy5Mnuku+yZ1OWZ2WXTm+gbt0RwLyk7j1cfftsx6DqI1aMBSAoI3C39yLQu7Q4SBh6JFmXlJy7dCG9uHiwTcTJ7vsP2QkTcYH2rphBW9dcTv/cIUCjBmV2nQNZmSlt9BKF7SXnFEXc+ojUAEEZreOK11rlo7I0g3/TtNGSL+NFIBrouI3wpUGpScSGpaGKZoCAFgJS3wVBiQxKrYGGyrkjoOLLOkqF4/nZs2dp165ddPLkyYDYmTNn0vz582ncuHE6zeVW1968JDcTILgBCGBe0oBOrriJtmNQxeEqTH0QlEUSlD1Zf6yMP4sxag/KLPd7jXMJTidjMnIJt4SgVNE5UKel/8wd0ftZxhGUwazOCFz8bWQmQUOkpbaNdvwZLwJBnHmfqX379tHBgwfp3nvvpQkTJgQKSIMSCEo74xetAAEpAlLfBUEJglI6plCuGARUfFlH07h4fuDAAeIffzYlL/u+/vrr6aabbiodUQmCUmcUoK4tBDAvsYU02lFFwHYMUtWz6fVAUNadoHTJOl4a7bvcJdVRe0wKlngbIe+8rEjWyb9kPSq7MUqnFIIyUseu/akZlEZszP/RgheBIMZbt27tbII/depUWrZsGQjK/IchWgACuSOg8kLZpA8NWOKd+xBEA4YQUPFlnaaTngMXLlygPXv20MDAQKCJJUuW0PTp03WaNV4XBKVxSCEwBwQwL8kBVIg0ioDtGGRU+QYJA0FZNYKyTTgedveJjCDq/NmD1CInW2VbhiZmUDr3Uw+pMU3eufImdPbVRAal/OmDF4EgVsePH6ctW7Z0/sj7Ss2aNavzf2lQahKxIR9tKAkEikNA6rt+DZvkxyAoixubaDkbAiq+nK2FYGnJc4DfHV599VV32TfvSblixQqdJnOpC4IyF1gh1DACmJcYBhTijCNgOwYZN6AhAkFQFklQtpdz3+Ue4HLC1SR4irZsj8k1U2L2qAyQmSy9nbnoy6AM7nnpFPEyLn06cU2X2JxypH1ojXMgT4rO/n0vW4fi+A+w8YEeWo7de4p4dFZnkMgM71Mp2IMydFJ5pDxTNub0MMGLQC+w/pM6ebnW8uXL3QkHX9KgJJnQ5NSlEAsEgEAEAlLf9Vdtkh+DoITbVAUBFV/WsS3Lc+C9996jMWPGEK/AKNsFgrJsPQJ9ohDAvATjouwI2I5BZcejrPqBoIzoGbsvAv7lzo4ygeXXTLQ5p3Rv906wZmXDp3jzadZxp3y3icXF49tWOnV3DNKaG893lnj3EJRuyfAJ1s6fAoRlms4JJ2yHT/B2RP/If2q4f0l65xTvqJPF/To4B+g8fZ6+tmY8/W3nBPSQjn79e9qIOsVbw0ZL3o4XgV6geR/KF198kQYHB92bvA8lZ0PwpEMalLJMaCx1NZoBAo1GQOq7ICixB2WjHaUCxqv4so5ZecRzzrg8deqUS2R6H0B1dJTUtTsvkWiEMkCgFwHMSzAqyo6A7RhUdjzKqh8Iyoieqc6LQNQhOmUdatDLNAJ4EYhGlE/p3LRpEzFZyRdPIpYuXUqf+9znRF2Qx4RG1DAKAQEgEImAygtlk/wYGZRwnKogoOLLOrbl8RzYtm0bcbYlX3zq91VXXeW+Z/C/eZ0CXo55CeYcOmOxCXUxL2lCL1fbRtsxqNpoFac9CEoQlMWNPrSshQBeBOLh48kDTyK8a/bs2fSHf/iHIrzzmNCIGkYhIAAEQFAqjAEQlAqgoUohCNieHJqO53ywzgsvvND5ABoGkTMqPbJy2rRpxjBuOkHZWu3lhzN4wKYxoDMJ6t1OKlP1xMJ5yjanZVgS5iX5YQvJZhCwHYPMaN08KSAoQVA2b9TXxGK8CCR35L59+4h/vOvOO+8k/km7TE9o0trDfSAABJIRUHmhbJIfg6CEB1UFARVf1rHN9HOACcpf/epXdPToUfdnaGgoUT1Th+40l6Bsb7cUtS++s31VYIsonYGiVNccidh7QKg52UqmKVbCvEQROFSzhoDtGGTNsJo1BIKy0gRlzUYjzMmEAF4E0uHyL8Xi0hKS0vSEJl1LlAACQCAJAZUXyib5MQhK+E9VEFDxZR3b8n4O8MnfvCclr9rg38NXX18f3XvvvYkmMMl5+vTpQJlJkya5e2d7V1MJyt6DM7swJd3TGTNF1O0lKIvQQr9NzEv0MYSEfBGwHYPytaa+0kFQgqCs7+iuuWV4EUjvYN6HkklKznQYNWoUPfDAA3T99dcnVsx7QpOuNUoAASDgR0DlhbJJfgyCEv5SFQRUfFnHNpvPASYamazk9w3OsuTD+qZPn05LlixxTfCIyN/85jfEe2V717Fjx+jEiROJZh67ZBL9cMQCHSiEdcOHZDqHUHYOn/T2oIw7mLN9sOdzR+i6NXPoLrfF8FLsJPlEwYM7W9mT5D9I02+Fe+jmBHr66d209n0uO4Peet47VLTdLs2grWv66dqA9b2Hja6Z4hXIYm9bXzpAM37g9J//AM62uLd37KalW887/4uzO/5Q0tisSkVdhQNAudj8T4/Q/E/eFtefN28e8U/SFV4JlSa8KJlpeuF+eRCwHYPKY3m1NAFBGdFf5fhSWa2BBG3tIwCCUoY5k5Q7d+50syfTyEmWaHNCI7MgudSpC5/Q5rfP074TF+n1Xw/R2Y8+MSEWMoBALAJ9Y0fQtRNH082Xj6Y7r7mUru4blStaKi+UZfLj9weHXR/d6/jooVNDdP7ip0bx+uPhrR153xu51KhsCKsuAmNHXkLTHd/83avG0m9fOZY+N6WbkVeUVSq+rKNrns8Bf+Yjk479/f09qjJJOWHCBPfvnGG5efNmJXPevORK2jFCdtCfUgNupd5lxUHC0CPTugTf3KUL6cXFg20SU3b/uu0/pgf3t7QMk3CB9tqE3+E4gtK9fzn9c4egZFLUTzC2CM6ZHkkYKN+1N16fXnvCWZuxmY8B8rT3cKFIuz2is92BwTLZ+8Z2hikISnXPQ017CNiOQfYsq1dLICgj+hMEZb0GeV2tAUGZrWelQSnPCU02jdNLb3rrPH1334d0ziE8PvnELOmR3jpKAAFnSjt6BN0z81J6aH5fbnBIfdevQFn8+B/2f0jPHzpP54by+3AAgjK3oVcbwRPGjKD5l4+h/3bbRLrM+b2oS8WXdXTVfQ4lC9nyAAAgAElEQVQwwcg/p06dIiYhmWTkfSj9GZCsn2SvSZbDB+xIr0suuYQ+/bQV160QlC6pRr6MSW7Zn8UYdYp3lvu9lrsE540n6N7vHKE2Z9ktpEBQBrItBYRkWKOgPhH2hjCKJihDxGhEh4ftjpIT+JtK30TWkY6+7OVAUGbHDDXsI2A7Btm3sB4tgqCM6EcQlPUY3HW3AgRlth6WBiXdCU02rdRL//etv6Y3T12kwYv5ER/q2qFmkxC4dNQldE3faPqr3/sMjXGytkxfUt/1t1u0Hw8Nf0oP/fAknbowTBc+zvfjAQhK0yOunvJGObzktMtG0f++67OFkZQqvqzTG6rPASYkN23aJG6a94tcuXJlYnkmNnfs2OHuLcmEpnfxPpWXXnppT90RI0bQlCmt9bxW5iUqJFgmAtMxJGIZNJ0ciCYoA7KjWD4/oRq1HDwtgzJNHzWCMjJzMcXuOhCU3EOYl4gfGShYEAK2Y1BBZla+WRCUEV1o5UWg8kMHBhSNAF4EsvWANCipTmiyaaNX+oVDg/T3+87Rb0BO6gGJ2sYQ4OWkX5w5nr52i/lMSqnvlomgXPfqWXrRyXD+Tc7kJNsMgtLYMK69ICYp508dS2u/8JlCbFXxZR1FVeM5L9/euHFjYtPjxo0jJhdHjhzpEolp++np2GFlXqJCUAayHCMIPX8WY3s/SP+S7cQMSgewpMNjgkRgPEHZ2guzdQVO/Y7I0NTOoAws7W43mtpOtJ1Vy6BkazEv0fFy1LWBgO0YZMOmOrYBgjKiV628CJR0NLX2f/ErF97gOrvitvdBya5hNWvgRSBbv6UFJc5u4AmH6oQmmzbqpXk/u69uPpnrklF17VCzyQjwMtK1d0w2vtddmu9GYV6kH7/lZDY/8uNfW9sPFgRlk70uu+28xPvhBb9Fy2aMz15Zs4aKL+s06X8O8LJsPm37/fffp6VL0/dqfe6555ytUz4hPlF74sSJ7vvBFVdc4f7LxKTNy868pEXy3fV6+9AXx8Dg+7tsj8k1U2L2qOwh6trt+TIog3teOgp4mYc+nRj3Vjn//CSCoGSy8I7zMdmZXdldwjSsT9YMypil3VK7pwQzSYPkrKxv/PtpkuUl3iAobT4R0JYqArZjkKqeTa8HghIEZQCB8NfK1gbY1D4lT81dTBKUSV9T1bSrbi0QlNn6LikoHTlyhJ599ln64he/SOPH25+0ZbHke86ekxteO0fOClJcQKB0CNxx9aX05787yaheKi+URRKUT//iQ9r4+jmjGCQJA0FpDeraNPR5J4vy20vtZ1Gq+LIO6Hv37qVDhw7RwMBAYN/IFStWBJZZ67Rho64dgpItaRNhnlGB5dftU7q3eydlc6HeE7Gv2x53yjdRa07hvWM5dXcM0hqHaPT2oOwhKF09Qjrxn3qWhUef+B1sr2WUP4syWZ+MBKVLCF4eHA5tYjXN7sDS93ad3vlOWt8sJBCUNrwRbVQZAdsxqMpYFak7CMoI9O29CBTZ9dFtxwXEwMbTBaoNgrILPgjKbAMxLih9/PHH9Hd/93fu5vd8TZs2jX7nd37HzZIo48V7T/7i+EdlVA06AQG68rKR9H/umWoUCZUXyiIJyj/d8gG99sGQUQyShIGgtAZ1bRrqGzuCNn7pCuv2qPiyipIcz1955RXav7/n6BVX3Pz582nOnDkqogupU415SdQhOoXA5TYaPGG8rUcBWYXFIWC/5TrPSw4fPkz8w9fMmTPdH1zVQ8BWDKoeMuXSGARlRH9U40Ugn4GUTFDy17sZ9Nbz3tdT78upt+zD0+lE4BTA3j1mkss758LSo19dSGtae4MTuV8TB4N/6/z9RD5AVEBqnV8E8oA/LiidPn2avv/973cISm6bN7G/5ZZbSvkC8gcbj9FHSJ/MY4hApiEETD+bVF4oiyQobfsoCEpDA7dhYkz7qQQ+FV+WyPWX2bVrF23ZsoX446P/4r0i+/v7aerUqXTVVVeV9iNklL3VmJeUkKAMnRAeSVpmHWAoH4tAEc8UW92xb98+4h++eL/ZPPectWVTE9uxEYOaiKtpm0FQRiBajRcB00OhJS9MUAaXW3jLC/wEZJtMPBnas8Z5KfjGtw4QbzEeten0Gl/5tPusw4rXfkwPOh/CkUHZ7fc6vwjkMbqTghJPZDjbgk/Y9F9lzKZs8vMpj3EBmeYRMP1sUnmhLJKgtO2jICjNj+EmSDTtpxLMVHxZItcrw3Gcf8JxnLOdpk+f7h5oU8XL9jNFDaNyEZQ9yQ6uUcEECjU7USsOgSKeKbZ6AwSlLaTzbSfvGJSv9s2RDoIyoq+r8SKQzyDtPSTHH8xjNqG+nwIZk95+Md6y8AAB6T/R733PhnZm5tO7aa17yt/l9M/8e+d+11YQlF0s6vwikMfolgQl3kD/H//xHwN7VZUtm7LJz6c8xgVkmkfA9LNJ4rthK0BQmu9XSKwXAqb9VIKOii9L5HIZXtb95JNPdorzydq8EoL/rfqFuF/1HmyG/kU8U2whC4LSFtL5tpNnDMpX82ZJB0EJgjKAQDIBaIqg7KdrI3B3N64m3mQ6THiCoIx6LNX5RSCPx7A0KL322mvuMo4DB5yN3n1XWbIpMVHJY3RApkkETD+bpL7rtwEEpckehaw6ImDaTyUYqfiyRC6XefXVV+mf/umf3OLXX389/dEf/REV+RyQ6i0ph7gvQQllikagiGeKLZtBUNpCOt928oxB+WreLOkgKCP6u8kvAnYIyvgMydZJdsiglDyG6vwiILE/axlpUPImNJyNwXtZnT17ttPUhAkT6L777svatNHyTX4+GQUSwnJDwPSzSeq7ICiJvjdyaW79CsH1QsC0n0rQUfFliVyvjLfEe+XKlTR37lwQlFnAQ1kgoIlAEc8UTZXF1UFQiqEqdcG8Y1Cpja+QciAoIzprxQ+O0vAnFepFg6pmJiipvS+le5BN68AaV8aUAbr3O0eIz09M22MyqH70npaBPSh9sg2aXjlRdX4RyKMzpEHJn3ExPDwcyKa89dZbafbs2UbUGxgYoMmTJ1NfX18meSAoM8GFwgUgYPrZJPVdv6lFZk7Z9lHsQVnAIK9Bk6p+OjQ05B4kp3Kp+HLWdvjD4m//9m/TqFGjQFBmBQ/lgYAGAqrPFI0mrVUFQWkN6lwbshGDcjWgIcJBUEZ09H9+6TgdOzfckCEQNDM7Qcn1vcNz2rJOdslJ/kv6Kd5cqnevy7s81XzkZyvDsr1E3P/3hvXW2JGX0P9deWXDrNYzVxqUooiN48eP0y9/+UtasmSJsU32d+7cSbznJZ8EOGfOHLFxtskPsWIoCATaCJiepEh9198BICgxHIFAMgJZ/ZTj4J49e9yPdHzojMql4ssq7Xh1inwO6Ogdrou4bxJNyMoLgazPlLz0yEMuCMo8ULUv03YMsm9hPVoEQRnRj3+z5wy9+Ob5evRwCazoJShLoFTFVbhu8mj6zvLqb/xusxukQcnWhGbz5s3upv588Sb+ixYtEmVTYqJic9SgLRUETE9SpL4LghJLvFXGa1PrSP301KlT7v6OR48edaHiWGWToDx37hwdOXKE3nzzTbrxxhvdH+llK55L9VEt1+SVXaqYoZ59BKTPFPua6bcIglIfwzJIUHmfLIPeTdMBBGVEj//rf1ygb//bGRq82NB13oa9ACdvmwV0jJM9ef+s8fTg57MtDTarRfWkSYOSzoSGl74x8Thr1iy69tprE5fBPffcc3ThwoUOkCNHjhRlU1aRoHSfAe6c8jw9/fRuWvu+3vgxLS+rNqnPtLnJh31lba9q5U1PUqS+C4ISBGXVfKVIfdP8dHBw0CUmeTsS/5U3QXns2DHiH15hwMSk9yGPdZg/fz596UtfEsOmE8/FjVgo2OSVXRbgRRMGEKj7yi4QlAYGSQlEqLxPlkDtxqkAgjKmy/90ywf02gdDjRsQRg3uLMc2Q0oY1a3CwqZOGEl/v+JyYqISlxwBaVDSmdAcPHjQXQLnXdOnTyfvx79nF+9tuWHDhkjlOZty4cKF7v6UUVe5CcrePWTTDr5K68EeMjDlIK2wPDeDe/H44J8zbQ8RvS/uX1J3390eGwIEZQQmaUZX/H4a8ZHVPKnv+uXq+HFW/cLlbftoUXtQdj8UeAiUIdbn6W95ytYdddnrx/kpf2jjyThnLHKsCl+8LQn/qFxhXz59+rRLgvK//MOEZNI1btw4+rM/+zNx00U+B8RKCgpiZZcAJBQpFIG6r+wCQVno8DLWuMr7pLHGIUiMAAjKGKhOXfiEHvrhCTrr/EvggcQDCgXzRWDSuJH0V0s/Q1f3jcq3oRpKlwYlnQnNiy++GDj12w8jE5VXXHGFSzyOHj2aNm3alIgy70vJk0DOrPRftsmPbEMhYgKvmU3YQ1BmlNe7xURrz9yZO3bT0q2SrTxAUGYbA0QgKFtLYW1d9gnK3sPx2FbvY8CPnv8xPcgn5BVymSMRezOlzckuBJpQo2E/ZTKSP7IdOHCAmKSMu6QEJWdgTpgwISAmiqD867/+61Q4OH7OmDHDXd7Nv0svnXgubcNGOazssoEy2lBFoAkru0BQqo6OctWTzgXLpXXztAFBmdDn7579mB7feYpOnB+mCx9/2rzRAYvLgYAz9MaOuoQmjhtBf3H7ZOKvlLiyIyANSjoTGp7U8XI4zjzhfbt0Lz7hm5fTcVald5WboIywmAnFO87Tvd85QiqcRSRBmUFe1B64qUu0UzoutX5GElV3nJStPgjKehOU7vifEjwMzxuDSffKNk7T9En18zQBJb/v99PDhw+7mYz+bUfi1Of9J/mHY5yfyHz//dbeHR988IGbecmrBlauXBkQExWH/+f//J/08ccfd8pNmjSJrrzySveHSUkmJPlEbpVLJ56rtJdnHazsyhNdyNZBoAkru/iDC//wxR9ewh9fdPBDXXsISOeC9jRCS1EIgKAUjIt/2P8h/euvPqIjZy7SMLalFCAWLDKGPqYhUnu5zNxYDStwtuQtV4ylhz7/W1jWrdG/0qBkakLDLzK8hxZP/HTJSn82ZdkJSv+kvmcJaGdpdTsTyeNdfUuuW3VO0De+dYA2Ov2tK6+HoGxvPXG4k+XV0uW67b6srxDBGCYqoped99O17vh0lrnuGKQ1iynSBiKvvQNE98+hu7w6/r05O9tj+Ad8GZbPyhwQBGWRBOU97nhe0/mm0fUlIs58nEFvPX+Cfv9+Hq/tMUUzaOsab/x6fdwdb0GfbGVPUlyWpOs7E9p7zaq15/lItA3p/hPwzwhferuTPR16DpGHVfjvDibtZ1RsVmUk3um6yjwqn1LspxyjmJg8e/ZsLo0wQenf3iQqDu/atctt2yMleRm3qctUPDelj44crOzSQQ9180IAK7vyQhZy80BAOhfMo23IlCMAglKOFUoqIMBf0fnQkOXLl/csVVUQhypAQBkBaVDKY0LjkZW82T9PBFUISy+bcvWPLipjYKNiesZj9JLpFa+1CMIkgtLVvycjM1le5B6UJ/3ZX7oEZbj99vLXDtkRJFm75EuIAOpkpIWWoGfcc9NGH6e1AYKyOILyqq8/TmtOdvdHjSIX7/KNzRZp6dvyIGK8BWT0EPyh0RCo3+sL6e31+mPwmeKRh3H+E/Y3n34B8jStnWg5kbrE4p2ua5ov5XX/Uuez8X/97CE6fvx4Xk0QE4133323+693SeOwKaXyiOemdFORg5VdKqihjnEEsLLLOKQQaAcB2zHIjlX1awUEZf36tFQWeYeG3HrrrTR79uxS6QZlmoWANCjZmNBs27bNzVzJevFS7789NZt+Q2OyVrVWPpWgzEi46cqLXeLdydLUJCij7EnMwExpr0deRHlrvanWEAjK4gjKxx//Widzt9V7/ozHiOzHrONNgaAMZFtmbc+xIOjD2f3Vj0PS3rPhZ0XUEu/A3yK3cvBjnK6rmoeZqbVxxQR3v0nO8s9yMeF49dVXB4hH/tvEiRNdMZ/97GdjP0hL43AWfZLK2ojnpnTNIgcru7KgFSx75aen6Uo6TUzSv01T6dglk9SFNbQmVnY1tONrYLbtGFQDyAoxAQRlIbA3o1HOnnzhhRfcPY345fW+++5DFmUzur6UVkqDko0JDR+QI82i5MxJ3u+rv7/f3fOmSku83YEQznjMuD9jKkGZIi+KoGydLN5PrWXe6SRC4hLvqPZ1CEpBRlspHcynFAjKChGUmcebZIm3t71BVNn0jE3PP1tbJrSvTtZzdn9lCZF7Y0ZtpeDLrq47Qen5Kb+jvf766+7eyUmH43hdwbHo9ttvV3oMSeOwkvCISjbiuSldIccOAv7DTphMX7ZsGeYmdqBHK0CgcARsx6DCDa6oAiAoK9pxVVDby570dEUWZRV6rb46SoOSjQnNxo0bEyeCTOjzJJCJST71239VnqAsQQalUYLSdAZlmzBq7U3Zuoo9FTn7MwEEZfUIyizjLenwmCARGE9QxrYXkaGpnUEZWNrdHs+p7QiWeFc8gzLsp0xOvv322y5Z6R0GEeX9U6dOdUkdlUsah1VkR9WxEc9N6Qo5dhD48Y9/TP/xH//RaYxXptx5552BvVLtaIJWgAAQsI2A7Rhk2766tAeCsi49WTI7/NmTnmrIoixZJzVMHWlQyntCw5NAJijDFx8kwKeVMinJE8C4q/IEZfuQmPA+ebnuQeks5/afIh7OpgoSLml7SIaJi6iMMD5wJPqgn+4hOTGH8mieel4GtwZBWRxBecfjj9Nd4UOnQvubBpZcC8ZbeF/YToajrx0ed61y/sOcIgjKtPZ6iMO2PypnUIb803OQ1Haisy4jnxWxeKdnexbpr0l+OjAw4C7/jsr0B0FZZK+hbR0E9uzZQ5w8Eb54dcqSJUt6PgjrtIW6QAAIlA8B6VywfJo3SyMQlM3qb2vWhrMnvYaRRWmtC9BQCAFpUMqboOQJHy/x9i7OlGRikn9GjhyZ2m/VJyjZRI8EbJsrPMXbLR1JcMTLSz8kJ6yPQyw+fZ6+tmY8/W3ESeIdIoa6B5EEl6Sm1U8nLaJ0rlIWJQjK4gjK7438f91DbzoZioEDoaKXZ6eNtx6C0nXEkM/xnwJtdcuET/xOay943yE8dwzSGof4bH1kSPef3n0iLw8+V9vPm+R2nCr+JeCxp3iHcMh4AFfqAz/HAhI/5UN0OKPSv2cyCMocOwWic0GAkyZ27tyZuPc3v3/x1gX8LoYLCACBeiIgnQvW0/rqWAWCsjp9VRlNo7InPeWRRVmZbqydotKglDdByRM9nvBxpiS/CHPmZJar7ARlFltQtheBFmkyGDzoJOO+nUXjKiE+sugo9V2/zLz9OEl/2z76x8NbO+p8b+TSLNC2DqCxON5st5cJjIYVzuKnZ8+edTMqObPSe49TgUvFl1Xa8eoU+RzQ0Rt1zSHAe6xu3bpVvO/3vHnziH9wAQEgUD8EbMeg+iFoxyIQlHZwblQrcdmTHgjIomzUcCiNsdKgVPYJjW3yozQd2BBFog71iSR1SoxHFuJDYobUd0FQEikRlKEtEPIcb3UY35IxW4UyKn7KZA+TlLNnz1YyUcWXlRpqVyp7PNexDXXTEeAVK9u2bUvcUzVKCq9sWbRokWhVS7oWKFEHBA4fPkz8wxcnGPAPruohYDsGVQ+hcmgMgrIc/VAbLZKyJz0jkUVZm+6ulCHSoFT2CQ0IykoNOwVlW0tY10zxV+3uZ6kg0HoVFeIjSUmp74KgzE5Qenui2htv1R/f1h0qpwZN+6lETRVflsiNK1P2eK5jG+omI8CrVXbt2iU6mT5KEh9QyPtS8v6UuICA//R3ZNlWdzzYjkHVRapYzUFQFot/7VpPy570DEYWZe26vvQGSYNS2Sc0IChLP9Qar6Bp4kPquyAoVQjKxg/XxgJg2k8lQKr4skQuCEodlOpXVzoXSbOcEyqYpOSTvnE1GwEQlPXof9sxqB6o2bcCBKV9zGvboiR70jMeWZS1HQalNUwalEBQlrYLoVhFEDBNfEh9FwQlCMqKuEgp1DTtpxKjVHxZIhcEpQ5K9aq7e/duOnTokDGj+PCcW265hWbNmmVMJgRVDwEQlNXrsyiNbcegeqBm3woQlPYxr22LWb9YIouytkOhlIZJgxIIylJ2H5SqEAKmiQ+p74KgBEFZITcpXFXTfioxSMWXJXJBUOqgVI+6Q0ND7kndR48ezcUg3neV5y24mokACMp69LvtGFQP1OxbAYLSPua1bDFL9qQHALIoazkUSmuUNCiBoCxtF0KxiiBgmviQ+i4IShCUFXGRUqhp2k8lRqn4skQuCEodlOpRl0+Zf/XVV3Mzhpd5L1y4kHhvSlzNQwAEZT363HYMqgdq9q0AQWkf81q2mDV70gPBXhblGdr/8kt0et5qWnx19brg3R3raTvdQatVlX93B63fTnTH6sVUQfONdJg0KIGgNAI3hDQYAdPEh9R3QVCCoGyw22U23bSfShRQ8WWJXCWCMuK9yH3XeoelTaKb77mb5k7UaV1a18z7qfZ7olTdjOVsYjo4OOgu737zzTeVD8cJmzd9+nS68cYbaerUqRktR/E6IQCCsh69aTsG1QM1+1aAoLSPeS1b5BeCCxcu9NjGD3Tv4lPPwhdnUdrZ18XMC6C881rt7e3TIBV9jWm/eIKgJGlQAkEpH+UoCQSiEDBNfEh9tywE5YofHKXhT+yNjT8e3tpp7Hsjl9prGC1VGgHTfioBQ8WXJXLjyiTG8/B70Zn99PJL79A11ohJT2v5+2mX7GvXvab7jqn9npgR6B5dokjdgjDlVV0DAwPEcxAmLVWuadOm0W233YZTvFXAq2EdEJT16FTbMageqNm3AgSlfcwb1eL69es79q5evbpA2+UvgGaUBEFpBkdzUqRBqewEpW3yw1wPQFJTEDBNfEh9tywE5X9+6TgdOzdsrbtBUFqDujYNjR15Cf3flVdat0fFl3WUzERQFvYhV/J++i7tcJbBvOMjJBkXJgn3TbqH7nZSPe0RlNG6nNn/Mr209zRdc4dvpVJhmBKdPHmSXnnlFeVMSk6guPfee2nMmDE6QxB1a4IACMp6dKTtGFQP1OxbAYLSPuaNarG5BKXZbtZ+8SzwJdEsEurSpEGp7ATlVzefpLdOXVQHAjWBQI4I9I0dQRu/dIXRFqS+WxaC8m/2nKEX3zxvFIMkYSAorUFdm4aumzyavrN8inV7VHxZR8nMBOW+SXTP3XPJysrujmHpBKX7Dnj25kTdtN8ThUAn6dJzj989C8CUD8rZtm0bcSYlX0wy3nXXXW5W5eHDh3tWfPG+knwIDi/nfvHFFzv3+e9cDySlcHDUuBgIynp0ru0YVA/U7FsBgtI+5o1q0S5B2c5aPO1BfI1vz0XvBfAOou3OV2i3iH+PIb6/k+j2eXT6paj7XD5JfutL9vZ3um0GXxbT2o+QH7t0J+JlNnKp0l5qQeHYeXMf7d3r34My2RbHGGfPyhZKLRHJL8ZVGNTSoFR2gtI2+VGFvoWO5UHg81PH0reXfsaoQlLf9TdapB//639coG//2xkavGhnnTcISqPDrfbCxjjZk/fPGk8Pfr7Puq0qvpxdyddo4+NbaeqqufSzDf/ivAe13/WIl3BHvxc56YntvSfbrXnvXwnvQuF3vvj3prR3trT3w1bGovNCm7iHei9BqfGeF2t3ii5uvbPu/p0T98Vgmr1DM9V477333NO8PXKSMyGXLl3aOdyG/87x4ec//zmNHj2avvCFLwT2l2Ryc+vW7rYZEyZMoGXLlmGpd6ZeqF9hEJT16FM7MageWBVpBQjKItFvQNv2CMreJdXBl0fvRa1LSraWo/S1SUzZff8hO+GXQQlBufd0t/3gl+Zo/Qf6Wy+k0WRn3DKasKz2chzyyNPetlwsHHLVzRwoaM+gvN1BGpSKJDYkGOw9MUT/Y8cpGhyyQ35IdEIZIMAIjBt1CX39lj5afu14o4BIfbcsBCXr8adbPqDXPhgyikOcMBCUVmCuTSNTJ4ykv19xOTFRaftS8eXsOjJBucGhI+c673c3tw8GTHsvcloJZ/ulvAsF3vkSy8oISv/7YeD9VPhOlvaeGLifJDP13l7qiyNLw3UtZ1Dyfvi7d+/uDJk4cnFoaKiTJdnX10vUc5blrl27OnKY5FyyZAnxSd64mokACMp69LudGFQPrIq0AgRlkeg3oG1rBGXkEmb/l96oJTRZ7vd2VoDUi+jLtJfF1tf2dlaj5EW4c4p3ystulKzUthiLfTTJ3Ry+hcvZm1v7GtXlkgalshOU3B9/4RCU/3b0wv/P3rsAaVWd+d4PNJfmkobWphs8zcUGhCCtIMFhAqIE5IiaQ5zDDDM99SU5x5FvxrEqViXzZco6SZGxDl/mmNTnTBmdT01KJzMciVSUb8BYBkQBDQmiBBBBFJuLSndDumnptmlo+Pbal/fd13ff915r7f+ueoum97o86/+s/e69f/2s9dAlMEpZpqcU40hr2WjQa5cnQNnZd5nue7mDupV/KWUOBEApxeWTySDGVlfRj5UI54k1QzLpz95JlGs5vKEaoKTVa+mGqve16n7PRayMA6aFeRaqVDYYoDT/AVwxphw1WRMseY/fEm/rM2sleyucU3XkD1CyJJ2/+c1viEU/GgcDjyxykkHKKIc9ErOqqormzJmjLgXHUTwFWLIlI+ESm1NR51XxlONrxNncg/gas4jWAFCK6DWBbJYKUOoPZqUV5MwPFZY+hwKUPntExm7LASiNZU7WyVTe3NyIulQHqS7XEZ1VBr0piQAo+weu0De2dNC5CwOAlAJ9H8psat3IKvrJ7XVUWz048WEGvXbNHfNwHZ/svkRr3+ikjt4B6rt0JXFdjAYBKFOTVo6Glak3XIluHqNcmz9YWEvsDwl5HVGu5fC2ugBKt2cs++9co/3CPAt5lY0JKCdGXOLt+8xaaWxe54Is8TZtJ5RBBCWDkmxJN4uKNI6k9hshUREAACAASURBVI5sb29X97I0t832qVywYAH2pQx/YaIGFMhdgWzuQbkPU3gDACiFdyHfA+AaUFr+EuzyAGn+i7u+d5F5WYtcEZQV5pFpTyGRIWXQmxIPYCPIVX1eWeL949+do33t/ZntdRfELpQplgIsG3CjEo21bvFVqcBJpmbQa5c3QGnY8/ODn9Gbn1yg1nMXaSCFqGcAymJdc2FHy6Ilb2oYTvfd+IVclnWb7Y1yLYcdL1FSEZS2nsM8C1nKRgCUtkhFv+hIZqlzCbc10rHiM2ulsdnOVbIlyyQ5LGpy3759atIb8zFr1ixqbm4mFvGYxNHd3a0C0M7OzlJzLHru5ptvpgkTJiTRBdqAAlAgIwWyuQdlNBiJuwGglNi5PAwtM0CpL4c5YU8sU8p6GGyPycp7AJkf9vS/LpsiKIPsQWlZwmP5632YPSjte1La95i0Lc8p/RXdew/KinMl4P5HPMy3SjYEvSmJAiiNsb51+gL9/OB5Ot59kXovphelxbt/YV+2Chhg8q6mEXT3tGhL6IJaHPTa5RVQBh1n1HLZ3WejWoh6UEBTIMq1HF47F0CpPyOWtq5xPBcpvfhF+9mehRxJcsyGupUtbdPjsS+4aY9y6x7pSsOGvaZnXNadWq6rmVqUzcorA0rnM6tFV999J0/QJGMljYctmh62FTd+moZ3rrrM9vDhw/TBBx+UEuGwZtiSbhbZ6LdPJIuKbGtrU3tuaGiwJMjxMocl1mEw9MiRI5YiTU1NdNNNNyGaMoIfUQUK5KFANvegPEYmV58AlHL5k7vRZPviZF6SokhhWX6tZ+lunkQndpqyOJaWLvtlUdQfBPcbC7z1zNjKw5iaWEZ9tg2SxdsrsQ1znc1+zyze9rIKeLxrLB3Y0kXNLYu0DeEtS3tczjsykrNKOsC0Z29kZ3yyR3I38VwMCnpTEg1QiqA9bIQCcRQIeu2a+yjSdZztfTaOJ1G36ApEuZbDa+YGKAM8F9lhms+zkOWZz/e5yfx8Z38m83s+NRSwZ+VWH85UOKk+FbJn0BIE9XlmrWSv71hcnlfZr9y2PEoQUDIwyRKV2CMmWddhoibjJDth+1Ky5DnmJd8sgQ6L2Jw+fXr4qYoaUAAKZKpANvegTIckZWcAlFK6lZ9BifPi5JZEhx8dYUl8BYLelIoENuKrihagQPoKBL12ASiJWlpa0ncIeoACERWIci1H7Eqthvt5HPXyr8ug5CeffEIMDJoT4BiW1dfXq4lr/KImzSOJAyhZOwxOvv322w5QypZ9M1DJoipxQAEowKcCWd+D+FSBf6sAKPn3ESzMRAEAykxkzrGToDclvNDk6CR0DQVcFAh67QJQAlDiAuJbgSjXcpwR4X4eR7186jIQyaAk+5ft/+h2sL0fr7/++kDLs+314wJKoz1m3969ex02AlTmM2/QKxQIokDW96AgNqGMUwEASswKKKAqAEAp+0QIelPCC43sMwHjE02BoNcuACUApWhzu2j2RrmW42iE+3kc9ZKty/Z+ZAfbz/HMmTPqzyzRzblz59SfGYxk/690sAzaLEqRZemOeiQFKI2xsL0w3333XYftDFSypecsojKphD1Rx4x6UAAKaApkfQ+C7tEUAKCMphtqQQEoIJgCQW9KeKERzLEwV3oFgl67ZiGKdB2Ls5WK9FMVA/RRIMq1HEfUIn0PxNEpyboMMhoRkCzK0LxfY5R+WLTkNddco2bMZolw4h5JAkrDFgZdvUAl26OSRXtOmzYNoDKu81AfCsRUIOt7UExzC1sdgLKwrsfAoUCxFAh6U8ILTbHmBUbLvwJBr10ASkRQ8j+bi21hlGs5jmK4n8dRL3jdIMuyg7bGICSDkSzDNvs36ejDNABlEFA5bNgwYhGgxieoHijHhwIsOZORoIlFxWKvUT78EtaKrO9BYe1DeU0BAErMBCgABQqhQNCbEl5oCjEdMEiBFAh67QJQAlAKNK0LaWqUazmOULifx1Gvcl0WNciAzaFDh4gls6l0MDg3duxYtcjo0aOJLX9mB1uqzc6x4+qrr04cRrrZlCagNPqrFFHJygBWpjcv02o5i3mTlu1ot6xA1vcgaB9NAQDKaLqhFhSAAoIpEPSmhBcawRwLc6VXIOi1axaiSNcxlnhLfwlIM8Ao13KcwRfpeyCOTmHq+sE31pY5AjLOfpFh7ApaNkvQZGh1+PBhT4gLWBnUc/mWy3Le5DtSuXvP+h4kt5rpjQ6AMj1t0TIUgAIcKRD0poQXGo6cBlOggKJA0GsXgBIRlLhg+FYgyrUcZ0S4n8dRz1qXwTYWLXnkyBHHvpJsn8WJEyeqYDKNZdnJjYIoL9DU2dmpRpyeOnWqIqxkkaR1dXXqh/1sRJgmqQHaCq9AXvMmvKWoUUmBrO9B8EY0BQAoo+mGWlAACgimQNCbEl5oBHMszJVegaDXLgAlAKX0F4PgA4xyLccZMu7ncdQr12VZt3fv3q1m2jYfbKn2zJkzhUoAwwNoCgIrDZ2ZxgxWskhUA1omvS9nMrNE7lZ4mDdyK5zN6LK+B2UzKvl6AaCUz6cYERSAAi4KBL0p4YUG0wcK8KVA0GsXgBKAkq+ZC2vsCkS5luOoiPt5HPWIWNQkAzMsctJ8sEQ2s2bNEjJRCG+gKQysNHzAYCXzgZHVnIFLM7TMaj/PeLNLrNq8zRux1OPH2qzvQfyMXCxLACjF8pdw1mJvLOFcJq3BQW9KeKGRdgpgYIIqEPTaBaAEoBR0ihfG7CjXchxxcD+Prp5b1CRbbnzTTTcJCSYNJdrb26mtrU39L8sUXl9fH12khGsyWGn+MFuTPFg0ppGgiLVrTljEtGAH4Ka74gCUSc7E/NrK+h6U30jF7hmAUmz/cW89ACX3LiqMgUFvSnihKcyUwEAFUSDotQtACUApyJQurJlRruU4YuF+Hk09tlciW9JtPtjekn/8x39MbL9JHNkpwIAlg8VdXV0qvGQ/p32wyExjWTmL1uQJ4qY9dq/2ASjzUj7ZfrO+ByVrfXFaA6Asjq9zGSkAZS6yo1MXBYLelPBCg+kDBfhSIOi1C0AJQMnXzIU1dgWiXMtxVMT9PLx6bDn3vn37ShVliJoMrwLfNRikvHjxYglWsr1BP//885LRZ8+eVZfnJ3kwUMk+LMLS2A8zyfZ5bwuAkncPBbMv63tQMKtQyq4AACXmRKoKAFCmKi8aD6FA0JsSXmhCiIqiUCADBYJeuwCUAJQZTEd0EUOBKNdyjO4I9/Nw6pkhDKvJQNSSJUsQNRlORq5LM5jZ19en2sggphGRyaIz2e+DRmiyPS8bGxtLH9kT9wBQcj2tAxuX9T0osGEoaFEAgDLAhGjrGaBXPuql/R0X6WhnP/VevBKgFopAgXgKDK8aRI01Q+jL1wynL40fTl+sGxavwYLXDnpTwgtNwScKhs+dAkGvXQBKAEruJi8MsigQ5VqOIyHu58HV27NnDx09erRUgS3pXrhwIbEIShzFUoBBShaFad4Ps5ICRYCVAJRyXANZ34PkUC37UQBQ+mj+84Of0QtHe+l8/+XsvYMeoYCuwKhhg2nOuGH07ZvH0GjlZxzhFQh6U8ILTXhtUQMKpKlA0GsXgBKAMs15iLbjKxDlWo7TK+7nwdTbu3cvHTlyxAInFy9ebMkMHawllJJRARZpyYAlA5fsw8BlT0+P61BlhZUAlHLM7KzvQXKolv0oACg9NO8fuEL3vax8CfcNUN8lRExmPzXRo12BIQqXnDB6CP3T0qsBKSNMj6A3JbzQRBAXVaBAigoEvXYBKAEoU5yGaDoBBaJcy3G6xf3cX71Tp07Rjh07SgWbmppo/vz5gJP+0hW6BFsqfvz4cfXDfnY7GKycPHkyNTc3W7KHiygcA7IGlLVnQxdxPEW1Oet7UFF1jjtuAEoPBZ/a102bP+ylzwEn484x1E9QAQYp59QPp3W3XpVgq8VoKuhNCS80xZgPGKU4CgS9dgEoASjFmdXFtDTKtRxHKdzPK6vH9hzcvHkz9ff3qwXZnoIschIHFAijQBBYycC3DKAyjC4oy58CWd+D+FNADIsAKF389GHnRfru63+g7gtY1i3GNC6WlWyJ9/1zv0DLpows1sBdR3uODr60hbqaW2jRxMpyBL0pVX6hCd4fL845uWs97aRbqMVLoJO7aP1OoltaFpGPhLwMyWGH7xi5tRyGBVEg6LULQAlAGWQ+oUx+CkS5luNYC0BZWb2tW7dSe3u7Wqi6upruvPNOJMSJM+FQV42mrBRZCVCJSZKnAlnfg/Icq8h9A1C6eO/J339GGw+fF9mvsF1yBW5UoigfWYIoSqLgwDDoTSlPQHnu4Eu0ZX+XdfZOqgAXHfNc02N/TbmOL7yzAEpn/cQuJbWfE0ShxhOsd+sYUxyDak7a7Qcbc5FKBb12ASgBKIt0XYg41ijXcpxxAlB6q2fP2L1s2TKqr6+PI7cQdRmQbWtrU21taGgoxJjzcgzbq5LNM7aNgP0AqMzLK8XuN+t7ULHVjj56AEoX7b619Sy9d1Zb7iDmMZIe+pv5NHXn63TvQTFHwKxe9ae30o/oEE15vsN9ELNnUes9RN95+BBtFHeYkSyvGT6YNn6tIVJduSpJCChPTKK77pxNY1RHnaRdSnhj9w130Z2ztd9UPvgFlAwiHqdJdEJhlElHa6YJKJ2AF4DSbxYmfR4PlJUVXbt2bamA+eek/YD2oIBoCgBQunuMLe3etGkTseQn7GBLb9mnCAeSnWTvZYDK7DVHj+4K4HlSjJkBQOnip69uPE0XlCQ54h7ZA8rZS+bT5kW2JceHK8BFh7iazWvOlOuEA5TO+uL6L5jlr6yeEKyg1KVkB5QKovRbou3jX9/6WSzxPneQXtrSRc0tzXQu4JL8MNPWd4xhGrOVTbPtGGYVqioeKAEoCzXhMdjEFACgdJdy3759dOjQIfUki5pk0ZNFOQAo8/O0F6hkyXRmzJihQnL2Mw4okJYCeJ5MS9lk2wWgdNFz+YZPk1U589ZyApQzO+juJ1pJC9ocRz/93ixq2rWHlmzvDaAAAGUAkSxFigMo9Yi10srnSaYIPANQ3kK0cycpwXnKMZZuuOtO0gIO2fk3iBY20+UtO/W5WU9feeB+WlxnyHmGdjz+GL2qbcOkHLNp9dpV9EX9f+9tXEsbDhq/08q2L1lNtGFDpPbovY20doMptLn+K/TA/YuJmXNmx+P0mNKX8X/lF/T4Y69S/eq1tEo1yOjf+L/yK7U9Ktms2kuraa1WQTlt/b/RpjZcRYuv1NOrr3rVDzBe3caSfEa7Jo3VcbUvUW0y/6xJzPr4BdGfLaH2x9w09TvvHKNjzLpuJR/PLutjaOr0v31esKmh1fNt3zKHAmgY9uJHeShgUgARlJgOUMBdAQBKpy4sapJFT7IoSnawpDgsOU5RDgDK/D3tBSpramro5ptvxrL7/F0krQUAlGK4FoDSxU8AlOEnrxpBaQGUAZZo+3QTLoIyvM2i1ygGoPRYsqwsg9aWCRvwsgwltX0caxznv/LAgyqUVAHZq/U60HMCP1fAZwOUr7aXIadavt2AjD7tqTDvIM22ANLyTNRss6I+MgHM+IBSh271BqB7jzYqdFOxyANwGpDOa7xa/favPED3a+K6jM+miaOMsw83H5k1t573A5T2MWvl372eQd6A/jcBX+Yt6xxxb98Otb3njOjfRLA/bwUAKPP2APrnVQEASqdnjhw5Qnv37lVP1NbW0ooVK3h1Xyp2AVCmImukRhmoZNG8n35qDQxi+1POnz8f0ZSRVEWlSgoAUIoxPwAohQWUesRhKQqsw7QXoxFBqSzfuGcWLVXH2EtPPrmH1qn7QrPz1xP9spWmrnE7b5RRlly7tq/DRwVIGvs/OgBlwxTavmYyHXvB2AfTJarTtoekHUg6AKXe5rXGeHb10JpF5T0oreX9NFAasbRnTASzTnxfxIUAlK7Lj7V9GRUCqWTudlvi7X7+vy+9TneoBtUUIqdHJVr97IhitJz2j2C0zxprezagZyvs1rd7BGfECEo3gFgxAtNnvB6wsX2JyT61TDstKUWlam0enK1DTbeoUDL7yMUGy3kfQOkDhSv7yyUCValgAZQ2/bT2fOx3rcP39w2s41cBAEp+fQPL8lUAgNKp/69+9StiYIgdDAJNnz49Xydl3DsAZcaCB+ju2LFj9Pbbb1N/fzn/A4umZNG97F8cUCApBQAok1Iy3XYAKF305T+C0mM5dAkYGvCyDNu0PSJ7dKAY7Lw5yY4rPLQDSvselGeOm5Z8xwWU9jFrS8iXUhmSugHKNXVlDdTzdYZNtiXoKqwcR78uQdx0L7wkWgegTAhQui1RtkQtmr0VAFD6tmdELbJ2rcvNXeGoZZm3f/8Vl3i7gbE4gFIHcZUiKF2jQtWhe0ed+gK+MIDSDwb6+Mu5nBuAMonvL7SRnAIAlMlpiZbkUgCA0upPBiYZoGRHdXU1rVy5snBRagCUfF7jDE4ySMlgpXGw/ShvuukmLiA6s8uwjUV4sg8O8RQAoBTDZwCUIgJK1+zVGnAjNWLRbQ/KMOedorgt4TaX8lzibYOmlsziYSIo3QBixfo+QNTRXvb7dsb9igCg9ACUakKW/VRji7AsRVCaI+rIvsejyz6QFkcFiSg07xnp054Kz9pLe2KmDiiTjqDUQaFpR01lm0ZzZKpHtKrFDhdNQ52PEUHp2OPT6S8AyrjfVKiftgIAlGkrjPZFVQCA0uo58/LuyZMn08KFC0V1bWS7ASgjS5dJRQYB9+zZU8owzzplMHDBggWZ9O/VCeZNrvIn1jkAZWJSptoQACUApa6AGWAqv3Jb/myJiLQK5wowLcu8Y0ZQukHZOIDSnsQHEZSpftFEb1xbrn1i0i3Usmii2oyaVbn7Brrrztk0Ju4elA5ApUc3miIoQy2xDtCelXda92z0XOJd2uPSDuP89pB0L2+NeHyV2n32oLQs2TZHJLKft9eXk/rYHe0ZvWhe5k16kqJyNGlme1COswNqD/+b9GdDtEJLvY4p8Y7fvqT2xEbRrw/UhAJEAJSYBVDAXQEASqsuu3fvLkWBzZs3T82cXLQDoIl/j3d3d9OOHTuI/WscDKgzSJlXlm/MG/7nTRALASiDqJR/GQDKogBKP1hoBnRk3z9SSV7rkgTHLF3qgDLpCEodUGr7c2rHttJ+mflfmEEsiBJBaV6eEKQPPsrokNIwZqwBJ9kv9CzdzZPoxM79pCX6tmfx3kJdzbdQjZLlW4v0c1lWXUpMo2e1PliGbqEApdK6dUmzrT17Bm+lvDni0D9JDrPfvERcSW7zQD1tN+3xGC6Lt199/yXlbjYbY3KLPjTcWIaQt1FHxczo/lmwfcdsj/Q0wcSK/mLGmpeAe2bxNvuETbFyZvYgiY34uM5ghagKAFCK6jnYnbYCAJRWhbdu3Urt7VoivuXLl1NdXWmj+bRdwU37AE3cuKKiISzbPIukNC/5njBhgrovZR6QEvNGjHnjZyUApZ9CfJwHoHTxA/97UOr7Lx4+RFOe71BHYN1fMdgek+b9GS17VDoS3Oj9mSIo1f4qJclx2GTP6u23h6R7+aZde2jJ9l5ThGflPSg9l5Sz6Mtbek17ZPJxQYaxIgygZDd4dnPt6emh5uZm9VOMo5xEp5wkpxgjz2KU9mzaap9+ez46DHNLgmMu5Hc+i5GiDyjArwIAlPz6BpblqwAApVV/c4Ictv/kqFGj8nVQDr0DNOUgeowuWcZ5tjWBceQFKTFvYjiRo6oAlBw5o4IpAJQu4vAPKJnRBuDTB+BISKNk6d7ZQbffM5lKWa8tWbzn09SdXlm+9YjJUtIbJdEMy5g9swz0XAFlxSQ5dpsVsPhkL/3tmpH0k4cP0UbldLgs3n71/ZeUa1B2pGUGiBRFGQRQmsGkMVAASjG+nEWw0m1Juiu0rDgYPwDpd14EpWAjFEhPAQDK9LRFy3wpcKqrjzb+/jT99vg5OnD6PJ2/cIkvAzm3ZtyVbhqvrDWpost0aFAj9dMQzi1O3rw5V1ppzuWP1Ib3Db6W9g2a4tvJ8KpB1FgzhL58zXD60vjh9MW6Yb51UCA5Bcx7p7JWGxsb1UjKLA8AyizVTq8vAMr0tE2yZQBKFzXFAJRxpoF4CWHijNatrjWruV7CNflQ0j0n114lQOkGJo2eASiT8wFa0uBhaYW8KoiybHztKvpiYHH8AKTf+cAdoSAUkFIBAEop3YpB2RR49PVW+tnvPqbuPkBJTI7oCoy/0qVCWnacVrYEOj1obKjGRg0bTHPGDaNv3zyGRis/48hGAfZew/ZQNY6sE+cAUGbj57R7AaBMW+Fk2gegdNERgDKZycVzK257ZrpCS44H4QYoK4FJYyjFApRlB+KmxPFkhmlQAApEVgCAMrJ0qCiAAhcuXabb/+Ut6ujpp8/7BwSwGCbKrsAQhUtOGD2E/mnp1YCUGTr70KFDtG/fvlKP8+fPp+nTp2diAQBlJjKn3gneBVOXOJEOACgBKBOZSOI1YuzTaba8vJ+lCOMxA8ogYBKA8joR3AoboQAUgAKhFACgDCUXCgumwLpff0j//van1AM4KZjn5DaXQco59cNp3a1XyT1QzkbHEuccPXpUtYoly1mxYgXV1NSkbiUAZeoSZ9IBAGUmMsfuBICykIAy9rxBAxwowABlGDDpByjXr18falQtLS2+5dNo07dTjwK4KUVVDvWgABTgWQEASp69A9viKHBI2WfyL/99P3X2XozTDOpCgVQUYEu875/7BVo2xbqffSqdoVFVAZbde9u2bXTmzBn1/ywT/dKlS1PP7A1AKccExLugGH4EoASgFGOmwkqLAqOpj75RvV/Nyh328FrinQZMTKPNsOM1yuOmFFU51IMCUIBnBQAoefYObIujwLqtx+jJ35yM00TOdeXY892exNIhqmB7uCc5KW5UoigfWYIoyiQ19Wuru7ubWEZ6BivZMW/ePJoxY4ZftVjnAShjycdNZbwLcuOKioYAUAJQijFTYaVDgRfuriF2w2RRlGEOAMowaqEsFIACUIBvBQAo+fYPrIuuwD0/e4fe+bg7egO518weUGr7qdsi+g4foinPdwRUQ98C6Uy5TjhA6awfsGMhi9UMH0wbv9YgpO0iG82WebPl3uyorq6mu+++m4YNSy+7OgClyLOlbDsApRh+BKAEoBRjpsJKhwLGHpQsijIMqESSHEwmKAAFoIA8CgBQyuNLjMSqwMwf7qS+i5cFliUnQDmzg+5+opUOqsqNo59+bxY17dpDS7b3BtASgDKASJYibkkrw7aB8uEVYFGUnZ2dakUWQckiKdM62LuWsWpt1KhRxD44xFMAgFIMnwFQAlCKMVNhpSegNE4EBZUAlJhMUAAKQAF5FACglMeXGIlVgSkPvy64JDwASiLfCEgflX3rF3iJN5MOgDKfy/TUqVO0Y8cOtXOWMGfVqlWp70WZz0jRa1IKAFAmpWS67QBQAlBGnmG+DyyRW0bFIAp4PRD5gUoAyiDqZlum43w/bfz9afrdiW7a90k3EgJkK39he6sdOZRmjhtFfzR5DH31+nqaWoeN/kWcDACUInoNNgdRQAxAqUcc1hkj6qDvPHyINqr/NQDlIaJ7ZtFS9Xe99OSTe2hdm3H+eqJfttLUNW7ny22scW1fh49KxKTRp7rE2xxB2TCFtq+ZTMdeeJ3uVUMqXaCpDTDan+8dz/t6m9ca49nVQ2sWUckGa3k/DZRGLO0ZOpp1CjJb8isDQJmf9ps3bya2JyU7Fi5cSJMnT87PGPTMvQIAlNy7SDUQgNLFT8s3fCqG94JYqT50jCMKtf9MkIbtf5FNe8+ZtNsPNmaeSvk9EHmBSgBKnrxI9Nw7n9IPX/2IPuu7RAOXr/BlHKwpjAKjhw+hlrnj6aHbpxZmzLIMFIBSFk9iHHYF+AeUHsuhS8DQgJdl2KbtEdmjw7xg56fuNOCiMxpShYF2QGnfg/LMcdOS77iA0j5mbQn5UipDUjdAuaaurIF6vs6wybYEXYWV4+jXJYib7HUx/koXjacutdHTNJZODxobuwO/5/HYHaABTwXMe0M2NTXRggULoBYU8FQAgFKMyQFAKTmgZA8BK5SHhqUzy3/ZTGpquj6AmDbVjtOPMzoTgNKuZ9AHIjuoBKCMMzOTrfsX//p7Onj6PH124VKyDaM1KBBBgVHDqmiaEkX5i2/MoeFDBkdoAVXyUACAMg/V0WcWCnAPKF2XNmvAjdSIRbcl3mHOO1V2REjairidt0LMmIDSDSBWjMD06c/RXrrL4udcaaU5lz9SVds3+FraN2hK7Kkc9Hk8dkdowKEAi55kUZTsYEly2DJvHFDASwEASjHmBgCli5+kiaBUb/oj6ScPt9J1fzOfzH+BTWJ6prnEO822kxg7D22EfSAyQCXb2JlBSl6PTZs2lTaiXrlyZWIbUfN2U3p2z8f0v7a3Ug/gJK9TsZB2VStgcvXcCfSDO6YVcvwiDhqAUkSvweYgCgBQKiq5LX+2RERalXQFmJZl3jEBpRuUjQMo7Ul8Uo6gBKAMcuWJVeaXv/wl9fX1qUYn+d4glgqwNogCvL0LBrG5iGUAKCUGlOpDSl0rTXm+g8w/a0NmDyiV9r3xO++xzIQOqf2V+5hPpX1zLMvMvfbssf9eaUmv5xlVGWnfH/Ev97CAUpQRFwFQnurqozuf2kvdyrJuHFCANwVqqofQs3/RTHMba3gzDfa4KABAiWkhqwJSAko/WGgGdGTfP5K053lLlu6MAWXSEZQ6oNT259SObaX9MpOf2QCUyWuad4tbt26l9vZ21Yzly5dTXV3pxTBv09A/ZwoAUHLmEA9zAChdhJEjgtL2F1KPJRTmPWHC7YvjByjd9+VZ8Z77khffDbkVP/ktKXdbwuK9540YF2glKwEow/mQp5vSj7d/RE+8eZIuYc/JcE5E6cwUWPHFcfTEKmWZIg7uFQCg5N5FWhFY2gAAIABJREFUMDCiAtwDSgOumf4Ab91fMdgek57P4o4EN/p+j6YIStc9KG0A02qT/Xnabw9J9/JNu/bQku29pgjPyntQWlZxmSMu2c+39Jr2yIw4WQJWA6AMKJRAxd544w06fvy4avHixYupsbFRIOthapYK8PQumOW4ResLgFJWQFla3m3NJHj7Yf2Bwi2Ln/6gFWzfHB9AGXKJhv0vwm5LvC2/i7Lvj2sd0S7Zsr0AlOF8x9NNie09+Zvj2ibtOKAAjwpMrK2mnQ/8EY+mwSabAgCUmBKyKsA/oGTKG4BP94IjIY2yWmlnB91+z2QqZb22ZPFmWzB5ZfnWIyZLSW+URDMsY/bMMtALnyTHbrMCFp/spb9Vt4TS3hl8gwYsy8796vsvKdcCJEZapnFaUZS8Asq2ngF65aNe2t9xkY529lPvRSRNDPq9NunKGRpB/XROebc9N2gkfU7DglYtfLnhVYOosWYIffma4fSl8cPpi3Vya8fTu2DhJ18FAQAoJQWUbjd7dailB6f4G3dXfIDxg4E+e+oAUPp/bQFQ+mtkLsHTTWnmD3dS38XL4QaA0lAgYwVav3drxj2iuygKAFBGUQ11RFBADEAZR8l0E8LEsSyrutbVW3qvfu8QMYzjEVD+/OBn9MLRXjrfj+fCGK5Nteq0K6dp2pVP1T4+GDRB+YxPtb88Gh81bDDNGTeMvn3zGBqt/CzjwdO7oIz6JjUmAEoXJcVf4m3OEGgaoCWq0eWhKNT5GBGUjiUrzj11ACj9L3EASn+NeAWU8r90hfMNSvOpAAAln36xWwVAKYafYGV4BeS/VwJQuu2p6Qotw08f1xo8Acr+gSt038tnqLNvgPouIWIyIRen0kwa8yYVQ2M2quRJpAmjh9A/Lb1aSkgJQBlzgmRUHYDSRegVz39KAyL/EcvzL4/ag5C2zJvUn3PZg7LDvum3x546dccte9JYoaVex2ffH889bzK6wNLsBoAynLo83ZTkf+kK5xuU5lMBAEo+/QJAKYZfYGV8BeS/VwJQakk7TQk11WlT3s8y/iyytpAGaIr6PP7Uvm7a/GEvfQ44mbSbE28vjXmTuJEJNcgg5Zz64bTu1qsSapGfZnh6F+RHFf4sAaB08cnXt7TT6fMD/HkroEVu0YdG1fJfJVvpOuWBwHvfG+OhyXtfHN89auz78phgonUJunNPHTIvAffM4u237w8bH0vKo48+xSUjAV2TWDG2Z8h/rJJveQETqAhZvOV/6UpsqqOhHBUAoMxR/BBdI4IyhFgoKpQCuFcK5S4hjE0DNEUBlB92XqTvvv4H6r4gckSMEC5PxMg05k0ihqXUCFviff/cL9CyKda9YVPqLrNmASgzkzpWRwCULvL9895ztPkDJTOd1IffX239zkstDveDm1o7lJ5YXse9nVEMBKCMohrqQIHkFQCgTF7TNFoEoExDVbTJgwIAlDx4QS4b0gBNUQDlk7//jDYePi+XuBKPJo15w7tcNypRlI8skSuKEoCS91mn2QdA6eKnNz/uo0d+e456pE5i4Qcg/c6LMcFltHKYEj15z/SRdO+NNTIODxGUUnoVgxJRAQBKMbwGQCmGn2BleAUAKMNrhhqVFUgDNEUBlN/aepbeO9sPdwmiQBrzhveh1wwfTBu/1sC7maHsA6AMJVduhQEoPaSX/8bhByD9zuc2Zwvfcf2oKvrZinHEQKWMByIoZfQqxiSiAgCUYngNgFIMP8HK8AoAUIbXDDUqKzD+SheNpy610GkaS6cHjY0tWRRA+dWNp+mCkiQHhxgKFBFQMs9Emds8exSAkmfvlG0DoPTwU2ffZSWzWgd1K/+SnBxIjBkKKy0KjK2uoh8r4fYTa4ZIqwwApbSuxcAEUwCAUgyHAVCK4SdYGV4BAMrwmqFG9gpEgTjLN3yavaHoMbICAJSRpeOqIgAlV+7wNAaAsoKfTnZforVvdFJH7wD1IcOaGDNaRiuVP7AOHzKIxlQPph8srCW2/ySO8ArwdFPCS1d4/6FG9goAUGaveZQeASijqIY6IiiAe2UUL2EFVBTV4tQBoIyjnhh1ASjF8JOflTy9C/rZWuTzAJQBvP/zg5/Rm59coNZzF2kAydYCKFYucsflfTSYrtBlJQz15cFzQtVFYU0BFi15U8Nwuu/GL0i7rDsLX/N0U5LrpQsvQ1nM3zz6AKDMQ/XwfQJQhtcMNcRQQK57ZQXNZ8+i1nvGER0+RFOe74jpnDTuyVqba84kYV/M4XFYHYCSQ6ckbBIAZcKC5tQcT++COUkgRLcAlEK4SVwj169fXzK+paVF3IHAcuEV4OmmJNdLVxovQwGnW2IvdWFevsKUDTgOTosBUHLqGJtZAJRi+AlWhldArnul9/hX/emttII6aOlMou88fIg2hpCK1f0RmcFhGvdk533P2W8IoyUrCkApmUNdhgNAKYePeXoXlEPRdEYBQJmOrmhVVwCAElOBFwV4uinJ9dKVxstQsFkT9aXO64UuWHRIcV7UACiDzcO8SwFQ5u0B9J+WAnLdKz1UaphC29eMpJ883ErXKVGKU3e+TvceDK5oNoDSaQ8AZVkTAMrg81XUkgCUonrOajdP74JyKJrOKAAo09EVrSoKDAwM0IYNG0parF69mqqqqqANFMhFAZ5uSnK9dOUEKGO81CX9YpV0e7lcIC6dAlDy4onKdgBQiuEnWBleAbnule7jn71kPm2ua1WXdpt/1kq73F/VlQMs0lIDmmvqTO2qS8R71OXYU3ceIrpnFi1VT/fSk0/uoXVtRln9D22luh2myM1x9NPvTaEPX+ig2++ZTNfqdd9fbERqau3b+/0OzaIf1R2nu59oJYOvquOZ2WH5XfhZwH8NAEr+fRTXwtHUR6Ov9KnNnB9UTeepOm6TQtSPMrd5HhhP74I865S3bQCUeXtA4v6PHDlCe/fuLY1w3rx5NGPGDIlHjKElrUBnZyedOnUqcLO1tbXU2NjoWt64KZ0+fZoOHz4cuM3x48fTzJnKuqsKR9g2v7/jLJ0YZH6rCGxOTgUrvcwYL1BeL0Ps/PVEv2ylqWuivCwRqQBQeckxL32r/FLHZLLZbHpxc77QdWh96Mvk1J9tL1pUeilUxlkqK++LmjlaIMiku+2224h9cGSvAABl9pqjx2wUkB9Q2gCk+oe3cfTrEkysBCi1peCeKwLqylDSek/zWAVQuscyQMnu1dZ7rr0fR7/qPXKUCYRq/dx+eA8t2d6bzYTJqZcoEAdZvHNyFroNpUCUuR2qg4wLA1BmLHjE7gAoIwqHapUVYNGTmzZtor4+7a9N7KiurqaVK1ciihKTJ7ACx44do927dwcu39TURAsWLHAtb9yU9u3bRy+++GLgNufMmUNf+9rXKpYP2+YHg8bTrsFfDGxDvgX9XmYMEFh+GVLh4aIeHSgGO29e1ub6ImQBlMFe6sxLttXl4O9pS+fcIh4tv/N50SrCixoAZb5XXZjeASjDqIWyIikgPaAsrQQw9p20Q73ogNKyVNz0B7aN5p9Lk0GDkvQCu0eafy7PFt/7nv5HwRKQdMBWkWZeOFujQBw+AGVOK2DCyYvSOSoQZW7naK5v1wCUvhJxUQCAkgs3yGeEPXrSGCGiKOXzdZojAqBMU92Abfu+zLg94JpfcPzOO+3wXRbm91Ln82LkCyh9XrSK8KIGQBnw+uCgGAAlB06ACakoIDug1P6YN9Kp3RljqbRIgJK0Jer6km7idHn3+CtdNJ66VM1P01g6PWhs7LkbBeIAUNrgt2OhkjWCN7aT0EAkBaLM7UgdZVQJgDIjoWN2A0AZU0BUdyrgFj1plEIUJWZMGAWwxDuMWimVzQJQqkCR7XVlOkovaB4As9JLnavNtodhS9ZTZ1RlpRctf0Apxoua34zBHpR+CvFxHoCSDz/AiuQVkBtQukcqkuUPbGIBSiJjTHvow1vCJ/xJfgY5W0wj2UkUiANAGeCZbKZ979QsZoi1Dx72GM/ThihzO3svBe8RgDK4VnmWBKDMU31J+/aKnjSGiyhKSR3P+bB4uikJ9dIVBVDqwPGYulzM5QXL/AJGGpzUymqTqHIEZYCXOrVN8z5e/g+cjgfAko3vEv2J9UUrCKAU4UXN75IFoPRTiI/zAJR8+AFWJK+AUPfKsMP3/EOadZm39X7j3B/SuWeyH9TU21D3Ze5Qrba2EWKJt32vZqMtNRqOzwg4AErzROVjibcXgHPdDzzsdRazfJ5w0DA9TxsAKGNOIFSPpAAAZSTZUMlLgUrRk0YdRFFi/uShAABlVNX9XmaC7TG5xrRhv2WPSgvMZDbq/ZkiKC1JcgK91JGWZfSM9QXMsgel7cXKa9n33yovWaS8bP3kYWOPMGe0pddDtGY3vy9qfjMCgNJPIT7OA1Dy4QdYkbwC0/7nDrp0+UryDXPQYiXoYN3H2YCS+r3kyV762zUjy/ck8woESxbv8h/9zEneWGKd0n3W0MGyYiEYoNQiPfWVDybYqfU1jsj8Ow70NkwoHqDkL8mhfTp4XgseSaPKiQ7NEDxuQkZ79nqXSavOadL3azUnhmR2tNJ1pez29sjPqD6w11Nsyvi6AqDk6MurQKYAUBbI2VkM1S960rABUZRZeAN9mBUAoIwzH8wvSEo7lpcZ/aFwZwfdfo+xTNv8cOaX5VuPmCwt2Vbq7uqhNcrSnrufaCUWVGkGlOUM2lrkh/nwfqmzPdS5vFi5PiB7vGi5R1uK96LmNyMAKP0U4uM8ACUffoAVyStwy2O/pZOd5WSLyfeAFhNXgPPkOEkDyuFVg+g/Vo0PLWM2S7x5THLolMob1jv3Mzf/4dm62ibYH8u9EzIGy15fhvsGHC0/H2/TVwJZ/2jt9IGf3fY/eiOCMvTl5VmBp3fB5EYlX0sAlPL5NLcRBYmeNIxDFGVubipsxzzdlKRetuaYYXwsIcpl4nP+ouanCQCln0J8nAeg5MMPsCJ5Bf7HS0fp3/Z+knzDaDE1BXyT3KXWc7CGkwaUU2uH0hPL64J1biqVCaCMskVPaR9Rjy16LOedw47i/0CAssNt6x496vHJPbSuLW5CxoCRwy7jd9hv1t31OdDHbpvfAChDX14AlMlJlktLAJS5yC5np0GjJ43RI4pSznnA66gAKPPyTHEBZZQH9by85NZvZUB5hnY8/hi1L1lLq76YhdVZ95fFmJLpA4AyGR3RCn8KvHLkDH170xH67MIl/oyDRS4KWPfP5FGiJAHlMCV68p7pI+neG2tCD1UaQBkyyaGbUIGWeOv7lVuSKeqNaZGLAQBlRVsrA8plvzhA0658qvQ4lBavXEgNH50r7ZvuDyhtSSD97AagDH09Ba3A07tgUJuLWA6AsoheT2HMYaInje4RRZmCI9CkpwI83ZQQQVmEicr/i5qfFwoJKN/bSGs3KBsLzF5Na7Mhr35uKJ3ftWsXXbrkBDWvvfZaqcxtt93maG/IkCG0aNGiwP2gIBTgSYF7fvYOvfNxN08mwRaBFUgSUNaPqqKfrRhHDFSGPbgFlKkmOXRXKVCSHN8VKXETMlYGlF/7xR6ac/kjdQCTlfvspM5BIQCld9JGIr+kVs59z8POtTjlsQdlHPVQN6oCAJRRlUM9iwJhoyeNyoiixETKSgEAyqyURj+yKBAUUM4Z+gGdOnVKHfaUKVPUT/JHNhGU721cS+/SbDqoMMrVa1dRJsGhulis7w3kDUZffvll2r17d2hpFyxYQHfccUfoeqgABXhQoON8Py3/f9+izp6LROE5EA9DgA0cKZAUoBxbXUU/XnIVTawZEml0mQBKI+mgZ8b2YPs2Jpbk0EMprySFP1L2In9SXb7NKjr3crQ25zMW34SMFQClklRxzeOv0TVRAGVAu817Y9qTWuWZzRyAMtLljUoxFQCgjCkgqmsKHD16lPr6wm9kzqIop0+fDhmhQOoKAFCmLjE6kEyBoICyru01MqL4WASfWxRffGkyAJRndtDjj7XTkrW3UUemy9c1dfwA5fnz5+nRRx91jaL00pdFTz744IM0evTo+C5AC1AgJwU+PNNLa55/lz7pvkCf9w/kZAW6lUGBWIBSSSg/fMggGlM9mH6wsJbY/pNRj2wAJbOOnySHWgZ556ElQrT93pKM0TjnktWajGQ1cRMyugNKI1v9cWWlgvGcEyqCUjU9iN1smbo+TvveoS6JHaPOu7D1ACjDKobySSgAQJmEimgDCkAB7hUAoOTeRTCQMwVav3e9us/kq+2GYbNNUYUGMFxNbRs2KK8I2jFl/m30zbtuU35i539B9GdLqP2xDWo2dqJ6+soD99PiUj4BrQ339nVgd9Dos9wfKf1FaU8hgNrybeOo/wo9cP9iMsw5s+Nxeqx9ibq02/xzqbwKMF+lkhyOMVUaTyX77fWUhj2WmIeNokT0JGcXFcyJpcCjr7fSK++fpffbe+jSZYUW4QitwDC6RP0ULeovdGccVogDKFm05E0Nw+m+G78QaVm3WY7sAGUcJ4i0h3i6tsaZN3E8kHddAMq8PVDM/gEoi+l3jBoKFE4BAMrCuRwDjqVAD/3r1b+jV+vLS47VCD8bMHy1vV6BkrOodc9rem/jFIj5t8rSaAO6laGkCv1erdchpzMi0h5B6NWfATnV8+0GZPRpT4WLB2m2BZCaBbLVd5R/jzau3UDtX3mA7meE1XFeH69JL3W8il4aBHXqYbXfP4KSWRsmihLRk7EuAFSWQIH3339fglEkNwS20mnHjh20fPny5BoVrKUDBw4Q+7CjublZ/eRxAFAmrToAZdKKsvYAKNNQFW36KQBA6acQzkMBKCCFAgCUUrgRg8hKgSvv0jcvGzDR6FSDdAphVDJ3l4HetAv76MUXX1QLjVU+jbbz5Vwz5vrOgViBnv28yxJvNSLSe69Ia3s2wOho3ljebew7qfV3cHZlIFnKYu4KQFmf26lehaL+9vst8TZMDhpFiejJrC4W9MOrAgCUVs/s3buX2J7xixcvpsbGRl7dlqpd7e3t1NambmpIDQ0NVF9fn2p/Xo0DUCYtOwBl0oqy9gAo01AVbfopAEDppxDOQwEoIIUCPAHKaf9zB5anSTGrJB5EFoDSbcm0bdl1WWF/wKdFNdqWYFva0yCl2/JwLbrTunhb7btU3yeC0nX5t2b9bC9gawOsQQFlkChKRE9KfG1iaIEVAKAsS8WiJzdt2kQDAwNUW1tLK1asCKwjCiavgBiAMvlxi9oilniL6jmr3Ty9C8qhaDqjAKBMR1e0CgWgAGcK8HRTuvOpvXTo9HnOFII5UKCsQO3Q92hlX50tk7V/BGW10sQ0LyBnjjIkDSbWq2W1fmNFUOqAMHB7Khxs1/fE9IjstERFmuGmGTzqmoVdQs6qRQSUrKpfFCWiJ3E1QwEiAMryLDCiJ43fFDmKkodrA4CSBy8EtwGAMrhWPJfk6V2QZ53ytg2AMm8PSN7/tm3bSiNcunSp5KPF8HhWgKeb0v946Sj9295PeJYLthVcgT+e3Ev/9dhvlSXOtj0obXs+sj0om+/8Ch146TldsS8oUPPb/ntQOoCiDgBNEY9ue1CWllTbAV+A9iwuNQPFDq+l4qZl3uNeo7Xb6y1JdaxTxLkHpdt5T/tVXmneU7PyBKwURYnoyYJfvBh+SQEASk0Kc/SkIQ6iKPO9UAAo89U/bO8AlGEV47M8T++CfCrEh1UAlHz4QVor1q9fXxpbS0uLtOPEwPhXgKeb0u7jXbTm+Xep+/NL/AsHCwunwMhhVfQPd0yjVTd2mpZEKzJYlkvrWbqXzKZ3NrxKnbpKtf9pCn3rvm8q//PPum1dVq0k0/lKPb16sAwBQwFK1qNlmbatPXsGb6W8tvS6cnIac2KfcS7LwI02tOG7ZOMmexbycsSoPYLSskTdI4u3eTJ6RVEierJwlywG7KEAAKUmjD160pALUZT5XToAlPlpH6VnAMooqvFXh6d3Qf7U4cciAEp+fCGlJQCUUrpVyEHxdlP6P3/xLr36wVm6OHBFSD1htLwKzBo/ml66b17gAba2ttIzzzyjlp8yZQp985vfLME6S8Rg4Bb5K2jNQK7b55OkJ+1RuEVRInoybdXRvkgKAFC6R08aPkQUZX6zGYAyP+2j9AxAGUU1/urw9i7In0J8WARAyYcfpLUCgFJa1wo3MN5uShcuXabFj/2O/tDbD0gp3GyS1+DxNcPpP+69icaNHhZ4kGZAyTLD/tVf/ZWcgPLgbMsSb1doGVi1ZAraoygRPZmMrmhFDgUAKL2jJw0PI4oyn7m+4vlPaeByPn2j1/AKjKY+Gn2lT614flA1nSe247b8B7J4y+9jHkcIQMmjVySyCYBSImcKPhTeACWTs7vvEv3d/3eEfqMs+WY/44ACeSlQPbSKmq4eQc/+RXMoOMns7erqokcffVQ1fezYsfTggw8qP7lk3c5rcIn0W2n5diIdRGrEHEWJ6MlIEqKSxAoUHVC67T1pdzeiKPO5AL6+pZ1Onx/Ip3P0CgUCKDC8ahD9x6rxAUqKU4THd0Fx1MvOUgDK7LQuZE8AlIV0O5eD5vmm9PqHf6BHXz9OR8/00vkLAJVcTiBJjaoeOlgBkyPpL2+aQH8575pIo2Qvwbt371brVldXE4viw5GdAkYUJaIns9McPYmhQNEBpdfek3bvIYoy+/n8z3vP0eYPerPvGD1CgYAKTK0dSk8srwtYWoxiPL8LiqFgNlYCUGajc2F7AaAsrOu5GzhuSty5BAZBASiQgAIsivKxxx6jBx54gEaPHp1Ai2gCCsihQJEBZZDoScPLRYqibG9vp7a2NnXoDQ0NVF9fn8tkf/PjPnrkt+eo5yLWeefiAHRaUYFhSvTkPdNH0r031kilFN4FxXAnAKUYfhLWSgBKYV0nneG4KUnnUgxIIgVOdfXRxt+fpt8eP0cHTp9HJHFI316l7Ij1BwKcDCkbGRHEy6+7mm6dehXNbZTrZSysHrKVLzKgDBo9afi8KFGUBw4cIPZhR3Nzs/rJ6/jW1rP03tn+vLpHv1DAU4H6UVX0sxXjiIFKmQ68C4rhTQBKMfwkrJUAlMK6TjrDcVOSzqUYkCQKPPp6K/3sdx9jH1ZJ/CnqMGqqh9AfTx5Lj/yXGcR+xiG+AkUFlGGiJw0vFyWKkidA2dl3me57uUO59ylRlHJxIPG/PAo8grHVVfTjJVfRxBr57oN4FxRjYgNQiuEnYa0EoBTWddIZjpuSdC7FgARXgGWyv/1f3qKOnn76vB/JAgR3pxTmD1WiRSbVjqAX/ttcQEoJPFpUQBk2etJwdRGiKHkClEz3k92XaO0bndTRO0B9l65IcNVhCEIqoEy94UMG0ZjqwfSDhbXE9p+U8cC7oBheBaAUw0/CWglAKazrpDMcNyXpXIoBCa7Aul9/SP/+9qfUAzgpuCflMp9Byi9PqaVnW/Jb+imXovmNpqiA8tChQzQwYP2jT39/Px05ckR1xrBhw2jGjBkOx9TU1NDkyZPzc1gGPfMGKI0h//zgZ/TmJxeo9dxFGsC2lBnMBHRhVoBFS97UMJzuu/EL0i3rNo8T74JizHsASjH8JKyVAJTCuk46w3FTks6lGJDAChxS9pn8y3/fT529FwUeBUyXVQG2xHvtf55Gf3JDg6xDLMS4igoo3Zzb09NDmzZtUk+NGjWKVq5cWYg5YB8kr4CykM7AoKFAxgrgXTBjwSN2B0AZUThUC6YAAGUwnVAqfQVwU0pfY/QABYIqsG7rMXryNyeDFkc5KJC5Amw/yv/99Rsz7xcdJqcAAGVZSwBKTQsAyuSuryK1dOzYMWIfdjQ1NakfHOIpgHdBMXwGQCmGn4S1cuvWrSXbly1bJuw4YLj4CuCmJL4PMQJxFNi3bx+xRA0LFixwNfqen71D73zcLc6AYGnhFKgdOZTe+faXCzdumQYMQFn2JlvyffbsWfUXgwcPprq6OplcHXgsAJSBpUJBkwKYN3JMB7wLiuFHAEox/AQroQAUiKkAbkoxBUR1KFBBgbfeeovOnz+vlmhsbKTnnnuOqqur6cEHH6QhQ5yZIGf+cCf1XcRGW5hUfCvQ+r1b+TYQ1lVUAIASE8SuAEAT5kQUBTBvoqjGXx28C/LnEzeLACjF8BOshAJQIKYCuCnFFBDVoUAFBZ555hlqbW1VSzAgeenSJfXnO+64wzWKcsrDr0NPKMC9AgCU3LsIgFJsF2VuPUBT5pJL0SHmjRRuJLwLiuFHAEox/AQroQAUiKkAbkoxBUR1KBAQUJqLjR492jWKEoAS00kEBQAoRfCSt42IoBTbf2lYD9CUhqryt4l5I4eP8S4ohh8BKMXwE6yEArko0NYzQK981Ev7Oy7S0c5+6r14JRc70GmxFKgeOpiarh5Jy6+7mm6dehXNbawplgACjtYcQWk33y2KEoBSQCcX0GQASrGdDkAptv/SsB6gKQ1V5W8T80YOHwNQiuFHAEox/AQroUDmCvz84Gf0wtFeOt+PfeIyFx8dlhSoqR5CLJvuI/9lBrGfcfCpwIsvvkgsMY7b4RZFCUDJpx9hlVUBAEqxZwQApdj+S8P69vZ2amtrU5tuaGig+vr6NLpBm5IpAEAph0MBKMXwIwClGH6ClVAgMwX6B67QfS+foc6+Aeq7hIjJzIRHR54KDK0aRJNqR9AL/20uICWH84TtN/n000/T6dOnPa2zR1ECUHLoSJjkUACAUuxJAUAptv9gPRTgRQEASl48Ec8OAMp4+mVVG4AyK6XRDxQQRIGn9nXT5g976XPASUE8VgwzGaT88pRaeraluRgDFmiUL7/8Mu3evbuixSyj9wMPPEAsmpIdAJQCObjApgJQiu18AEqx/QfroQAvCgBQ8uKJeHYAUMbTL6vaAJRZKV3QfrZt21Ya+dKlSwuqgjjD/rDzIn339T9Q9wUs6xbHa8WxlC3xXvufp9Gf3NBQnEFzPtLDhw/Tc889F8jKBQsWqFm9ASgDyYVCHCgAQMmArUcPAAAgAElEQVSBE2KYAEAZQzxUhQJQoKQAAKUckwGAUgw/AlCK4SdhrVy/fn3J9paWFmHHURTDn/z9Z7Tx8PmiDBfjFFABth/l//76jQJaLp/JXV1d9C//8i/U19cXaHBDhgxRM3qzKEr5IyhH0kN/M5+m7nyd7j0YSB4U4lABAEoOnRLCJADKsljse3rXrl3qL0aMGEELFy4MoSSKQoFiKwBAKYf/ASjF8CMApRh+EtZKAEqxXPetrWfpvbP9YhkNawulQO3IofTOt79cqDHzOFi27yTL3H3q1KlQ5hlRlACUoWQLV3j2LGq9ZxzR4UM05fmOcHVR2qIAAKXYEwKAsuy/np4e2rRpk/qLUaNG0cqVK8V2LqyHAhkqAECZodgpdgVAmaK4CTYNQJmgmGjKqQAApViz4qsbT9MFJUkODijAswKABvl7J8i+k25WGlGUs/+fvfkPIlUL8ougXPWnt9IK6qClM4m+8/Ah2pjqOK2Ns75/RPKAUXzXZDh5UugKgBKAMoVphSYLqAAD/OxjAH4G+XGIpwAApRg+A6AUw0/CWglAKZbrlm/4VCyDYW0hFQA04MPt58+fpzNnzlBra6v6L/tUyuRtWM2iKP96zwg+BpGaFTkByoYptH3NSPrJw610XQ5LzAEoU5tQaDiCAgCUAJQRpg2qQAEoIKkCAJRiOBaAUgw/CWslAKVYrgOgFMtfRbUWgJJvzzNIaQBLA14ymGkcLIry6Su38D2IQNZpEHJNnVG4wxSxaADKQ0T3zCItRVwvPfnkHlrXxn5m568n+mUrTV3jdt4o49U+kQoDZ5r7JJq9ZD5trmtVl3abfy4NRwWYk+lay/jsdkUZk10LpQMJlpjjuybQhcBtIQBKAEpuJycMgwJQIHMFACgzlzxShwCUkWRDpaAKAFAGVYqPcgCUfPgBVlRWANBAvBnC9qxk+1Ua8PKBd74g3iAsFutA7kx5ObMVGBrArgz/VGC4qEeHmMHOm5Ps2KMTnYDSFrWpwshx9OsSFB1HP/3eLGratYeWbO8lcpx3jkm1WYGgdz/RSgdVqMrgZXlMqg11x/XzOjTFEm/B57Y85gNQAlDaZ3N7ezu1tal/JaKGhgaqr6+XZ8JjJFAAClRUAIBSjAkCQCmGn4S1EoBSLNcBUIrlr6JaC0ApvueFT5KjJqKx7/GoAUB6gWXudlviHea808dWWOgyB0rLu419JzUbbj9cGUiWIKgDWLI+mM1T6EMVcrqMyaYDlniLf23KNAIASgBK+3xGshOZrnCMBQqEUwCAMpxeeZUGoMxL+YL0C0AplqMBKMXyV1GtBaAU3/MAlH4AU/Gx23LsM+VoRfss0CI0RzonR6mOTwSl6/JvrbltXtAVgFL8i1HiEQBQAlACUEp8gWNoUCCkAgCUIQXLqTgAZU7CF6VbAEqxPA1AKZa/imotAKX4ni8koNQB4DEv2GeOYCRtr0itrObvyhGU5uhM0/ywREVqZbT9MM3gUf+PawSlea4hglL8K69YIwCgBKAEoCzWNY/RQoFKCgBQijE/PAGlGObDSt4VWLt2bclE88+8211U+4SHBkV1XMHGDUApvsPF/67RYZ8pEYx1P8Zge0ya93O07FFpgZnM33p/pghKyx6UrkvOWT3TMu+OKdR6S29pv0jnLHLuQWktExBQmvakFH2m4rtGbA8CUAJQAlCKfQ3DeiiQpAIAlEmqmV5bAJTpaYuWFQUAKMWaBuJDA6fe2ks8+705U208v6TRZjyLilUb0EB8f8vxXWOLSLQsv9azdO/soNvvMbJmO7NlT93pleVbj5gsLdlW6u7qoTUzy4DRDCiJfc95JKcxg8/DLsvAteXbxpxyycZNRqZwf0BpWZaOLN7iX6iCjwCAEoASgFLwixjmQ4EEFQCgTFDMFJsCoExRXDQNQCnaHJADGphU912yGMFDYdpUo5rGEUnwoh5BqdSqAFCmJm1mDUv3XRNaObc9KEM3EqqCNYu4XtUz8jJU09IWxneN2K4FoASgBKAU+xrmxfpjx44R+7CjqalJ/eAQTwEASjF8BkAphp+EtfKZZ54p2f7Nb35T2HEUxXDpoEEaL98h2mQRTiuU6KOlSgTndx42MutmM5tky6ZrVg3QIJs5lGYv0n3XhBYrJ0A5s8OyxNsVWoYei7wV8F0jtm8BKMv+GxgYoLNnz6q/GDx4MNXV1Ynt3IjWI4t3ROEKXg3zRo4JAEAphh8DAUrc4MVwJqyEAnEVkC5JDoOJFfdci6BY0DbVSMuR9JOHW+m6v5lPU3eal1FG6DdkFZkB5SurJ4RUA8V5U0C675rQAmcPKI39KNdYuISxfDv0AApRAYBSbDfj/UVs/6VhPUBTGqrK3ybmjRw+BqAUw48AlGL4CVZCgUwUkAkalPeJ1KUrLbO277Fmf0H3Pu/VpiVZhd6dGplU10pTnu/Qsu/qP5ccqSfBuNbiWecedWWYYLbTgBtu+9e57CEn2RLz/+vqdx3XA4sGqaqqsvye/Z/9/uqrr3acy+SCQieeCsj0XQM3y6sAAKXYvgWgFNt/aVgP0JSGqvK3iXkjh48BKMXwIwClGH6ClVAgEwWkgwaOaEdnllorXHRGNTkiEV0iKJ2A0taOY99KLblG0649tGR7L2mJJcbRr5/cQ+vamKuddqqQs7Q805kh2JpBmEjmCMpvDmwPdT2sXr3aF1B2dnZSbW1tqHZROLoC0n3XRJcCNTlWAICSY+cEMA2AMoBIBSsC0FQwhyc0XMybhITMuRkAypwdELB7AMqAQqEYFCiCAtJBAztMdN0/UoOFZMlkW/a2FQwqvw+yxLu0vNvYd1IDircfrgwkS8vAXRPxMDun0IcqxPTPpgtAqflw2LBhtGrVKt/Ld+PGjdTf3081NTXqh8FK9jH+79sACoRSQLrvmlCjR2FRFACgFMVT7nYCUIrtvzSsB2hKQ1X528S8kcPHAJRi+BGAUgw/wUookIkC0kGDKIDSben1mePlxBIBAKWWeGKk02eldnwiKF2Xf2vNbVNBarEB5b8tsS7lNoQ+c+YMsUQA5qOvr4/mz59f8frp7u6mzZs3VyzDloozWDlhwgRqaGig6urqTK5JWTuR7rtGVkcVfFwAlGJPAABKsf2XhvXt7e3U1qYuVVHv5fX19Wl0gzYlUwCAUg6HAlCK4UcASjH8BCuhQCYKSAcNwgLKDrbUejIdM0VTho+g9IjItERFamWWmryqgUf9F64RlOYpUGxAmXSSHPbCsnfvXmLLvIMcQaMyg7RV1DLSfdcU1ZGSjxuAUmwHA1CK7T9YDwV4UQCAkhdPxLMDgDKeflnVBqDMSmn0AwUEUEA6aOCIdtTBoClpjGXvRj1ysQwo9fI+EZSWPShdl5Ez55uWeSsgtHJ2cecelNbpExBQ1pkiPwWYf0FNTBpQmvtlUZgsorKnp0eNsmA/syhM89HY2EiLFy8Oai7KuSiw4vlPaeAypIECfCsAQMm3f/ysA6D0UwjnoQAUCKIAAGUQlfgvA0DJv4+YhQCUYvhJWCu3bdtWsn3pUnO8mLBDktpw+QElc58tetEMH5Wz1uXZSlbtXT20ZmZvxSXeZkBJf3or/YgOqdm77YfWdg995+FDdNhlGbglitJIlFNnbsXI5O0PKLXEO5NJzRIuWRbvNAGl2wXO9qbs6upSgSX7TJw4kWbMmFHxu4ABTvbB8jF3mb6+pZ1On7cux5f6yxWDE06B6qGD6fDf3yKc3TC4rAAAJWYDFIACSSgAQJmEivm3AUCZvw+CWABAGUQllImswPr160t1W1paIreDitkoIB2gzEa20L2YQeVGo7Zn5GXo5qWvkDWgjCKo8TDL9qpsamqi6dOn06hRo6I0JWWdf957jjZ/oGSwxwEFOFVg1vjR9NJ98zi1DmYFUQCAsqwSWwmwa9cu9RcjRoyghQsXBpEQZaAAFFAUAKCUYxoAUIrhR0EA5Q76/oz7aAOtpqeO/AO5L6wLUiYPpxynZ7//XVq34R2lc8X+VxT7J7v9Li3b8tUFgDItv6bTLgBlOrraW3Xsa6kUcIWW2ZgjXC8iAEqWdIctDzcfLNHOrFmziC0RL/rx5sd99Mhvz1HPRazzLvpc4HH8w4cMpv9+83+i7y5t4tE82BRQAQDKslAson/Tpk3qL9gfy1auXBlQRRSDAlAAgFKOOQBAKYYfEwaUCnj78+W0jrG40jGX5q6+n/7xHxbT5MCa2KFaEMgWpU5gg6IX3PF9mnHfBr3+XHrolefoG8ftv7ufPlzuB2ANE4JoYTY3bPnoQ3WrCUCZrJ5ptwZAmbbCRvv6HpOuy7ezskHcfngHlCyT+L59++j48eOO/SuZ6rW1tdTc3Fx4UPmtrWfpvbP94k5EWC6tAteMGU7b77+ZGKjEIa4CAJRl3wFQijuPYXn+Chjb9jBLGODHipj8fRLFAgDKKKplXycDQKkPavVTdESBlMGOKLAxSp1g1sQpteP7M4jxybkPvULPfUNDtM7fhYGIYcqqvQWIPo0zwsp1ASjT0zaNlgEo01AVbSatAO+A0jxeBimPHTtGn376qUMGFlF50003Efu3iEdn32W67+UO6lb+pUFFVABj5lGButHDaMP/cSNNrRvJo3mwKYQCAJRlsQAoQ0wcFIUCUEBKBQAoxXBrSoBSjxRUeNzxZ79Py9ephI5eee4bIaIozQIGgWxBymTvFANGrn7qCBl81u136VmWry4AlOl5No2WASjTUBVtJq2ASIDSGDvb/+vdd9+lDz74gFiEpflge1QuWLAgaZmEaO9k9yVa+0YndfQOUN+lK0LYDCMlVECZeiwpzlWjhtLTfzab2P6TOMRXAIASgFL8WYwRQAEokJQCAJRJKZluO9kBylIEpRsw84t+dKlzXPndd5Vl0epy8rm0+qEVROvWmfaptNfRl5/TQ/TUig/pcQWaalVX00P/+A+kBzey8Eb6cyXk0bJKXWlfXZrtWKN+XCn+XXpcMcIoP1cBsff/4ze0fSbty92VvlYrFmo264cKbq+lnzr22DTvU8nMfEpfJu/UYsezf66Mp2yDdUwAlOleQnK1DkAplz9lHY2IgNIMKg8fPkxHjhwpgUqWEXzevGIn4/j5wc/ozU8uUOu5izSAbSlDXbpjqJdmXj5Fbw2eRgOEJcmhxNMLs2jJRdfW0kPLmrCsO4qAnNYBoASgtE/N9vZ2amtrU3/d0NBA9fX1nM5emAUFoEDSCgBQJq1oOu2lBChtxlqiJ5MAlG57XRp9Gol0PACllTxqlQz7jj9Lf758nQ1OqgVcAKWfDffSR5EBpXvbWhSmF8z10hyAMp1LR85WASjl9KtsoxIZUJpB5d69e4ktu1u6dClVVVXJ5iYhxyPKw+ulS5fo4MGD9NZbb9GpU6fUbQK+9KUvFTYSV8jJBqNTVwCAEoDSPsmQ7CT1yw4dQAFuFRDlGY9bATMyLBtAaYaArnsihoygLIFEIyu20oH5d2qmb29AOfchJRrxG0rSHnsdPaFNab9I+//NTnG1QelTTXaj5OvWl3QHW+Jts7WUWKec9ZtFam5d9pwLoDxOx3ccJ1qsJyFS7Pq+AlnLGc8BKDO6lqToBoBSCjdKPwgZAKXhJLbcG3CSnynL+8PrmTNnaPfu3SqcZNsGGMfw4cNp6NCh9OCDD9KQIUP4ERSWQIEcFQCgBKAEoMzxAkTXUIAzBXh/xuNMrtzMSQlQmiMOy9GA7hGAbOwhAaUB8CyJd/zaMOww22ar4xFBad4/suQpVxvKCXASAZSuiYWcwJHt8/ndXynL0i3RoV6RpNnONexBma3ecXtb8fynWF4ZV0TUT10BmQBl6mKhg1AK8Pjwao+WrDSgO+64A1GUoTyOwjIrAEAJQAlAKfMVjrFBgXAK8PiMF24ExSidI6A0gULf6EcvkFiOoDyutPFddXm23xLvSoCyHAGpuZ/tbfmP9A/OzSfVvSpnsPTcrL9XlIhNtj8l2xczyQhKZc/Kp5T9Mdl+ljueVSIor3WJoDSiPBWY+RzLwoMIymJcuSmN8utb2un0eWsCj5S6QrNQIJICw6sG0X+sGh+pLipBAT8FeHp49YqWtI9h0KBBdOWKlmBo9OjRiKL0czLOF0YBAEoASgDKwlzuGCgU8FWAp2c8X2MLXCAlQOmmqAEO/fZudFueHWI/yRiAcrKSbEZhnB4JcexjqjAO056bkZZ4lyJKrX26RqCWQKndPkRQFvi6jjz0f957jjZ/0Bu5PipCgbQVmFo7lJ5YXpd2N2i/oArk/fAaJlrSy0WIoizo5MWwHQoAUAJQAlDiiwEKQAFDgbyf8eCJYApkAijnrlYyW9/LMlvrRjkycN9PU391H617xwuqBcni7ddGkCXe5QjIuXPn6sZeRyvuv5e+UTLeJKwyjmd/+jitK6Xlnqsk0L5fz7atlYsGKJWKFo0qZfHWMonfZ9jAMoVfp2QK3wBAGewSQCmzAm9+3EeP/PYc9VxEGl3MDP4UGKZET94zfSTde2MNf8bBIikUyPPhlUVMPv3005a9JaOIiijKKKqhjowKAFACUAJQynhlZz+mY8eOEfuwo6mpSf3gEE+BPJ/xxFMrP4sTBpT5DSSJnjWYqCzrfuof6V4Vph6nn35XSXrzjlsW7yR6lL+NrVu3lga5bNky+QcswQi/tfUsvXe2X4KRYAiyKVA/qop+tmIcMVBZhAMJdLL3ct4Pryz5zYsvvkgskjLOgSjKOOqhriwKAFCWPcnuJ2fPnlV/MXjwYKqrK+ZKBGTxluXqznYcmDfZ6p1Wb3k/46U1LtnaBaAseTTI0nPZ3I/xQAGnAp19l+m+lzuoW/mXisGBMA0EUGBsdRX9eMlVNLFG7gzF7e3tdPjwYWL/1tTU0NKlS5HlO8P5ycPDa2trKz333HOxIikRRZnhpEFX3CoAQMmta3IzDKApN+mF7hjzRmj3lYzn4RlPDiXTHQUApVlfdVn140rEZDkd9lxlyfT9aqKadB2B1qEATwqc7L5Ea9/opI7eAeq7pCVfwAEFMldAmXrDhwyiMdWD6QcLa4ntPyn7wcCkOfK8sbGRFi5cCEiZkeN5eXg9ffq0Cim7uroijxxRlJGlQ0VJFACglMSRCQ4DoClBMQvUFOaNHM7m5RlPDjXTGwUAZXraomUoILwCPz/4Gb35yQVqPXeRBrAtpfD+FG0ALFrypobhdN+NXyjMsm7mo0OHDtG+fftK7qqtrVUhJYuoxJGuArw8vJ4/f542btxILJoy6oEoyqjKoZ4sCgBQyuLJ5MYB0JSclkVqCfNGDm/z8ownh5rpjQKAMj1t0TIUgAJQAApAgUgK7N27l44cOWKpO2vWLGKfYcOGRWoTlfwV4OHh9a233lKjaPv6+vwN9imBKMrYEqIBgRUAoBTYeSmZDtCUkrCSN+s/b87RwZe2UFdzCy2amIUYWfeXxZjS74OHZ7z0Ryl+DwCU4vsQI4ACUAAKQAEJFWAZI/fs2UMsuYFxMDg5Y8YMmj59OlVXV0s46nyHlNfDK4ORDEzu3r2bWPSk+Vi0aJG61Jsl0Al7IIoyrGIoL5MC2QJK+YHByV3raSfdQi3ZEBjrVDy5i9bvJLqlZRH58x9vX7BtVNra2tS2GxoaqL6+XqYpj7GkpEDRAKV6rZ8wizmWbrjrTpo9JiWBM2o2r2e8jIYnTTcAlNK4EgOBAlAACkAB2RTo7u6m3/3ud2rSHPNRVVVF06ZNo3nz5sk25FzHk/XD65kzZ2jXrl0qfLRn7mZw8Wtf+5rqZ3a8/PLLKsAMeyCKMqxiKC+LAgCUyXpSBkCZrCJorSgKFBJQmv4Yce7gS7RlPyUCKfP8Hsn6Ga8o10fS4wSgTFpRtAcFoAAUgAJQIGEFWDQle0Du6ekptTx58mR1b0ocySmQ5cPrM88847rHJIuMnTNnDt12222WKFkGMB955BG6cOFCqAEjijKUXCgskQIAlMk6M0+wQAlFUCarCForigJFB5REJ2mXFsIcewl7nt8jWT7jFeXaSGOcAJRpqIo2Swps27at9PPSpUuhDBSAAlAACsRQgIFKtjdlZ2cnLVmyhCZMmBCjNVS1K5Dlw6s9IrKuro4WLFigwskhQ4Y4nMOiLVmkJYumZeDly1/+Mg0ePFiFnEYynSlTphD72I/Zs2cTax8HFCiSAgCUyXo7T7AAQJmsL9FaOAXMgLJcc5JpywFjW4FbiHbuJG11tHlZNDv/BtHCZura4naeldfa2N9l9GBuX0GE6rJr43d+/fm3p11TpnXcY2+gu+6cTWwVt/NatwPKyra6tz2RTlrGp3Q0KdstI7J8xgs3w1DarIAQgJI9jB8/fpzOnTtn8d6IESOosbFR/bDlbjj4U2D9+vUlo1paWvgzEBZBASgABQRUgMGqIMCJ3TvZvpVsny3cJ/0dneXD6+nTp+npp5+mmTNnqlDSWMrtbyWR2f+vvfYasQ87WNQl++CAAlCAVJCf7FHppdwPGCQNKPwAhAEUzMBkOI2pH0WDOv9AXRdZ/XAAxQktvPVQy3aXgYdqLVsmqgAWDYL4AI5zB+klZU2pxmoUO2+oof3KEtNwe1C6wyJ/25KdNWhNfAUOHHhLWcWifZ80NzerHzdguL+rfE1py6Jr9DlrzPfK581JduzXm19/1nnt3IfV0p56fZ2gSR77Sgbqu6YMFy22hWw7y9mR5TNeluOSrS9uASVLCvDBBx+oS9r6+/sr6m7sxcW+LJDdlK8pCkDJlz9gDRSAAsVSYOPGjaV7KAOaLOKytrZWhZtIsuOcC3EeXllyGyOakWm7bNky38nGkuPE9QMApa/MKFBQBZIFlDpg8HopLwG3jAGFyR4rANQApYIgVEByVc9R2rRpjzoTqoaPotX/daUGWEoQ0Q+g2KOqfPRQo7O6TXvWaeVPTLqLFD6pRYp52m5v2zqWoElyPGFRRdsEzwJS0Gs97WEf2LWFDpzQAqUMQGld9uyWmMkcdeh33jkC6/VsP+/Sns82CG7fD903sOvROeedSXJM0Zyu/ZjHqv1cse2ckm3FecZLe46h/bICXAJKFhmwY8cOYg/uYQ4GJ+fPn09sXy4cfCgAQMmHH2AFFIACxVOA3UtfeeUVz4GPGjVKBZUGsBw7dmzh/8gX5uH11KlTxKIg2YeBSaa3cTDo+Pd///eZTDoAykxkRicCKpAooPR9KfcDEH7nQwIK1yglBgYO0Fg1Ksq6JJPtX7xp0ya1E/bdv3LlSkYcTZmx/e2zRFUF1EMDkgoAMdtLbtFbJtvdzsfeg9IJi1xtA58U8EpP3+Seo6/Tpj2X6IZlzXStcv2wayhxQGmJGtbHZFp2bR1lAEDp254B/lnL1izdFbdz8L32WXsR207ZlWGe8VI2Bc1XUIA7QMmWo7EslSyCMurBlkrNmjUranXUS1ABAMoExURTUAAKQIEQCrAM4EePHlX3LGR7VvodNTU1dPfdd/sVk/p8pYdX9mzCYCQDkQxO+h1//dd/TePHj/crFvs8AGVsCdGApAoIByh9gYLJUW5l9dOT1EQWeQNK65JuJWSyvLzbz3Yyg1N9UIkCygq2SXotYFgxFfCFci7AUJ/nNer16HVeX2atQvn9pJXVbI0VQWnpO0B7tqji+IDSpHeYtmO6ya86AKWfQnyc5wpQspeo7du3x4KThqwsknL69Ol8qFxgKwAoC+x8DB0KQAFuFGArEtra2lRQyQAbu9/ajyBZwVkUDkvUwyIvhw4dGmgfTG5ECGBIpYfXRx99lLq6SrvXu7bGEtSwvSTZv2x/7CwOAMosVEYfIiqQO6BME1D47PNmz7obKYLS1ke4CEo2YwxIeheNPbCFSvvr+dnudj4uoHQAGw/bRJzosDkDBfSIQFNSl3BbJPhsoeAxP0/YE9c4kuSYsmqbr5EA7VlEq3StO9T108JWwa1t2/60GThQ7QKAMiul4/XDDaBkL08vvfRS6GXdXsNn+1KyrNFBkgjEkxC1KykAQIn5AQWgABTgUwEGKhmwPHv2rPovA5R+qw8YnGSRhOaDLWdm0ZfsaGhoKJ1i91+2DMo4x4MKBphlsJYdTAO2YmPevHnqUvdKD6/PPfccHT582DI+NkYWJWkASbfs22mPG4AybYXRvqgKJAoojSWLnAEK8z6OVj9Fi6D0TvJh34MyGKQo72XnzHjsZ3tpD7tSxKU1q7H3vPSGQTcsu46u6N//g9oP0H71VhC0XVGvBNidjALmZctKi5bl13oSrOZJdGKnKblTKQmNXxItPWKylMJbTwx1Yqw1s3ZQQKmYpyXpMf6oamvPnsGbXQWm6M2KEZSqmBW08Glb2+5B1whZvJOZmpK1wg2g3Lt3Lx05ciRRednLxooVKxJtE42FUwCAMpxeKA0FoAAU4FkBlriOfYIeM2bMUOFfpYNBQwMYupVjAHTMmPLGYAx4+iWWOXToEH3yySdqc5cvX7bsD+nWx8KFC1VAWwlQsn0m2dJuFhnJPnnASDfbASiDzkaUK5oCyQJKn5dyNUnOG0oGjawABbPHngmb/c6AbdEAZVeze+ZrdfQsqY4luUUlYKPPNgNWOEBEJdvZ0MxZvJUx3TWWDmzpomYl4U+wJDnuvrhyonwPa548hg4cVxKfZAxJinYdYrzla9WcpRu6ZK8AIiiz1zxKj1wAShY9yTZujrPvpNfgFy9enNkyqygOkL0OAKXsHsb4oAAUKJICDNAZy8TZPdttqbhZj3K2S2+VwkLPBQsWUFNTU0XZ9+zZo+6/GfQw9q4W8eEVgDKol1GuaAokDyjjKOiWhCZOe+Hqui7xtjSRkn1+y7nDDSN2afP9pvm6Bjr5/gWaVIpyi908GoACHgqkdH1B71AKiPiMF2qAkhTmAlCGfTkJo/2ECRNoyZIlYaqgbIIKAFAmKCaaggJQAApwqEB/f39pb0YGL9n/2cGiIq+//npi9+FKR9hngCCJ8NzaZFu/XH311aopbGk2++/+GJEAACAASURBVD+LxhwxYoS6FJ19RHx4BaDk8KKASVwoAEBZdkNegLJyoo/sp4n53nBdQzW9f+G60hLa7K1Bj8VRAICSB1+L+IzHg25Z28AFoHzllVd8l19FFYa9gKxatUp9EcGRvQIAlNlrjh6hABSAAiIp4LfEm62yOHdOWYanHyx60i+Ckr2Msw87zHtk+uki4sMrAKWfV3G+qAoAUOYNKDUoc2LSXXTn7PI2HfHmo21ZuaOxyvtJmgGlwifpwnVJ2hZvZKgNBaBAugqI+IyXriJ8tp47oGRLxDZs2JCqOsuXL0eynFQV9m4cgDIn4dEtFIACUAAKhFZAxIdXAMrQbkaFgijAF6DMV3T/CMp87cuqd8sS7+ZmYtuQ4IACUKAYCoj4jFcMz1hHmTugNN8w03IA9qFMS1n/dgEo/TVCCSgABaAAFOBDAREfXgEo+Zg7sII/BQAoyz4BoNS0AKDk7zoVwaJjx44R+7AjyCoOEcZURBtFfMYrop9yB5RsadfWrVtT1T7IhvqpGlDgxs2+XbZsWYGVwNChABSAAlCAdwVEfHgFoOR9VsG+vBQAoCwrz1asnT17Vv3F4MGDC7uyDIAyr6tR7H4xb8T2n2G9iM94cigfbhS5A8ru7m7avHlzOKtDll64cCFNnjw5ZC0UhwJQAApAASgABYqkgIgPrwCURZqhGGsYBQAow6hVjLIATcXwc9KjxLxJWtF82hPxGS8fpfLtNXdAybJ9bty4MVUVWORefX19qn2gcSgABaAAFIACUEBsBUR8eM0LUHacV57ffn+afneim/Z90k2dvRfFdj6sF0KB2pFDaea4UfRHk8fQV6+vp6l1Iz3tBqAUwqWZGgnQlKnc0nSGeSOHK0V8xpND+XCjyB1QMnM3bdpUyrYZzvxgpVkW72HDhgUrjFJQAApAASgABaBAIRUQ8eE1D0D53Duf0g9f/Yg+67tEA5evFHKuYND5KzB6+BBqmTueHrp9qqsxAJT5+4g3CwCaePOIGPZg3ojhJz8rRXzG8xuTjOe5AJR79+6lI0eOpKJvXV0dsSzeOKAAFIACUAAKQAEoUEkBER9eswaUf/Gvv6eDp8/TZxcuYTJBgdwVGDWsiqYpUZS/+MYcGj5ksMUeAMrc3cOdAQBN3LlECIMwb4Rwk6+RIj7j+Q5KwgJcAMrOzk761a9+lYq88+bNoxkzZqTSNhqFAlAACkABKAAF5FFAxIfXLAHls3s+pv+1vZV6ACflmfQSjKRaAZOr506gH9wxDYBSAn+mOQSWnLWtrU3toqGhAVuApSm2RG0DUMrhTBGf8eRQPtwouACUzOQdO3bQqVOnwlnvU7q6uppWrlxJVVVVibaLxqAAFIACUAAKQAH5FBDx4TUrQHmqq4/ufGovdSvLunFAAd4UqKkeQs/+RTPNbawpmYYISt68BHuggJgKAFCK6Te71SI+48mhfLhRcAMoWRTlK6+8QgMDA+FGUKH0ggULqKmpKbH20BAUgAJQAApAASggrwIiPrxmBSh/vP0jeuLNk3QJe07KewEIPrIVXxxHT6yaBUApuB9hPhTgTQEASt48Es0eEZ/xoo1U7FrcAEom49GjR2nPnj2JKDp9+nSaP39+Im2hkegKbNu2rVR56dKl0RtCzRgKnKODL22hruYWWjQxRjOoSnRyF63fSXRLyyLylxK6Y8pAAdEUEPHhNStAyfae/M3xLtFcCnsLpMDE2mra+cAfAVAWyOcYKhTIQgEAyixUTr8PEZ/x0leFvx64ApRMHvMXQFS5GhsbaeHChVjaHVXABOutX7++1FpLS0uCLaOp4ArIAsq0ceyvuYVa8iKtAJTBpx1KQgEBFRDx4TUrQDnzhzup7+JlAb0Kk4ukQOv3bgWgdHF4X18f7dq1Sz0zYsQI9T0JBxSAAsEUAKAMphPvpUR8xuNd0zTs4w5QskHGiaRkCXFYYhwcfCgAQMmDHwAoE/MCAGViUqIhKMCjAiI+vGYFKKc8/DqPLoNNUMCiAACl+4To6emhTZs2qSdHjRql7tGPAwpAgWAKAFAG04n3UiI+4/GuaRr2cQko2UDZnpTsyyBo4pza2loVTNbX16ehE9qMqAAAZUThEq0mC6BMVJRojQFQRtMNtaCAIAqI+PAKQCnI5IKZmSgAQAlAmclEQyeFUoABfvYxAD+D/DjEU0DEZzzxVI5vMbeA0hgaA5UMUh4/fpy6u7stI2ZZuidOnEiTJ08GmIw/F1JpAYAyFVldGtWXP5e2B5tk2ifRAJS3EO3cSSfU2mPphrvupNlj2M/s/BtEC5upa4vbeaOMsrzatX22NeN62nnC2adXeW0vR80SzZwb6K47Z5NqToVzaj9kWuJ97iC9tGU/WXdFM8bmN27/cZGlfaXdG2po//6we1C6666Opds0buaJgy/RFkXHkhZZTR/0AwWggKqAiA+vAJSYvFCgrAAApftsQAQlrhIoAAWKroCIz3hF9Bn3gLKITpFpzACUWXjTuTejFRga8LIMJVUQtr9Gh5jBzpuT7NhBoVt/nuVV6HeCJpUAqUmjSudUdmkGlCdpl5KxpvuGu+hORloddZ3jskJBp25WQGg/r/WnWB4qSc7+Lg/dVRDbbQPFW+jEJH08WUwdKfpAhLAUbuRkECI+vAJQcjJ5YAYXCgBQAlByMRFhBBSAAtwpIOIzHnciZmAQAGUGIhe5CwDKDLzvuuxYg2kKSVMyd7sBnDDnnWMIG+lnLW8Di5bmK52zAUoPIFkGoy7jNmvlCkNZ/wdoLIOn5AJSYy/xdupeApI+cDaDmSRoFwCUgjqOS7NFfHgFoORyKsGonBQAoASgrDT12tvbqa2tTS3S0NCAFXg5XafoFgrkoYCIz3h56JR3nwCUeXtA8v4BKDNwcBaA0m0ptXlZtn2YvuWNaERW0bzcnP3f+1yUCEpzJKe2fFxfou26PFwbyCQGdslU1hhfooDSuqRbWWeP5d2RLhcASj/ZHFsj+FUo8HkRH14BKAs8YTF0hwIAlACUlS4LJDvBlwYUKK4CIj7jFdFbXAPKM2fOUF9fn5owhx3s53Pnzqk/jxgxgmpqatSf2V6UY8aMobFjx9KwYcOK6EduxwxAmYFrogBKHc7VeEVYmqP51EjC/aSV1cZTMYLS0naA8o6lzibNbOfcAKVpJ0sNLOo2antrbqHKgNJjqbk2SOdS9LiA0qGNEVF5F409YLM1g6kjRxcAlH5+BKD0U6h8XsSH1zCA8uWXX6Y5c+bQ+PHjg4uil0QW79CSoUIOCgBQuouOPSg1XQAoc7go0SUU4EQBEZ/xOJEuUzO4AZT9/f3Ewu4ZlGQf9nOUg2Xzrquro6uvvpquueYaFV7iyE8BAMostNcjDieVk8e47rXotReiDvI890r0gGonTBGUlj0oA5S3qBJiT0oLaGGw8MDYCgllfAClMe4aU9Idi2Fue1yyhDwJ7UGp96Vpx/4TtN0s5hRvfXCWBMozkVOQOVcpIVXchFX6FgW3TKITO+3Jo3SfGt8TlRJV8eb+DO0R8eE1DKB89NFHqauri2bOnEm33XZbKFBZPEA5kh76m/k0defrdO/BDCdhzK5W/emt9CM6RFOe74jZkpjVASgBKCvNXABKMa9rWA0FklBAxGe8JMYtWhu5A0oGIz/44AM1S/fAwEDi+k2YMIGampqosbGRqqqqEm8fDVZWAIAyqxliXhat9GlZfq1Dj2YztLBn8WbRe15ZvvWIyVJKbj2b9YkyHLRn8daS8Bi5tW3l7WCEoTkj8rHSOaWcPRLM2o+mdTmK0g8WsdJ28KW2UE6CY1kGrvz+rrF0YEsXNbcsolKgpqeL/XTXKxpjNgHmrGaNGP1wlgSq4l6hfnMuWEIqzz8WuEB167XnnsjJEUGJ/U49p76ID69RAKUhQBhQCUCZ/jfm7CXzafOikZaOPtq1h5Zs7w3cOQDlrSWt3n///cC6yV4QEZSahwEoZZ/pGB8U8FZAxGe8IvozF0DJlmqfPHmSjhw5Qt3d3ZnozpZ+M0g5bdo0NcISRzYKAFBmo3O8XsRcImvNRG6Gffoek/FEya42YFFlraNsYaDvYxosSZSz+8pJoColcgoGKC3bDoSx1W1fVEt9cxKm8ricS7wrJ6PKbvLz15OID69xAGUYUAlAmf58VQHlzA66+4lWZXMV5WiYQtvXTCYKASkBKAEo3WYqACUAZfrfYOgBCvCtgIjPeHwrmo51mQJKBib37dtHx44dS2c0AVtle1fOmzePWHQljnQVAKBMV99kWhcYUJ6YZFni7QotkxEptVbCZkRPzRBeG84CUPomdbKL45XISRRAycZTKVEVr5MhfbtEfHhNAlAGAZUAlOnPPwegVLoMCxzDlk9/VNn2gCXe7noDUAJQZnslytUbYxcGv2ArM9kHh3gKiPiMJ57K8S3ODFAeOnSI2IftNcnLwb5c2Gbx2KcyPY9s3bq11PiyZcvS6wgtx1BATEDpuzw7hiL+VW1L6h0Vgu4nqWl/YtJddOfsMf7dFrFEFECZZhIoB6tk2d676Ya77qTZYyIASksErUt98/lul8zykSIobYOolKiqYHNOxIfXJAFlJVApJ6DU9plcU1pY00HfefgQbVSFMPagPER0zyxaqv6ul558cg+tazPOX0/0y1aausbtfLkN9/Z1+KhETBp9BgOUlWx2A5qVy8t2iQNQunuUbaN19uxZ9eTgwYMLu5oMS7xlu+KzGQ/mTTY6p92LiM94aWvCY/upA0q2x+SePXtKmbh5E4Et/b7pppvwlxDeHAN7oAAUgAKqApwlgbJ7xbZE3z3TvAGs4+5B6adFhSXe3Td4J5Qq8DYD5qgiw7UseQz7VDrMUDDIhZpmm5UAZVg77WMx71EpH6DUwd2ZckIZNfqwBAwNsFeGktoekT06UAx23pxkxx7daO2PyGuJ97EXjEQ9fjbbAaWzvBsEDTKHRSkDQCmKp/KxE6ApH91F7xXzRnQPavYDUIrhx9QAJYuUfPvtt3Nfzh3UDWxfyoULF9KoUaOCVkE5KAAFoAAUyEQBjpJA+SRysi6dtidWMiIkvRJS+Z03AVtDd0tCLHdASeYl7CwZ0+TjStSnmjq+dJSTS2XiUG46AaAM5oovfelL9K13RtEADQ5WQYRSs2dR6z1kiphkRo+jn35vFpEKBN2yeIc57xTBDw46k+SYIzqV9nxttgFKdQ/LcfTrUtSnMcYp9KHldyI4LJiNAJTBdCpqqXRBEwcrklxXnVT2tpZsj5UxJ9AUZ4Y499lO3vZ0503y9qJFdwUAKMWYGakByh07dtCpU6fEUEG3ksHJFStWEIuqxAEFoAAUgAIyKMDBC0NJRj9b/M7L4A++xgBAWdkfo0ePpkWLFhEDlNP+7zf4cl5ca3xhXwKAUk9yc63Z1jPHy0lwbGOwAkw9+pFM5X1tdgOUk8nSv97ntlJUZlwh+aoPQMmXP3izJl3QxME9PCygdKyg0Fd61Ch/zFw0MXX3aXvHd1n6GXtDuG2PAChTd5M0HQBQiuHKVACl+ctfDBnKVrLEOUuWLBHNbNgLBaAAFIACrgpw8MIAQMnt3LQnjvi7v/s7bm31MiyNPSjNYHLIkCFq19It8faFfS6AUgeO2pJrr/N6xCJpGbjLy7NdlnBXBJTKSUt/yv99bQ4SQSncFA9lMABlKLkKVxiA0uZyB9DMAVCaE17qKz6Ujb0D780OQFm4yzjygAEoI0uXacXEASXbhHnjxo3E/hX1YMlc6uvrRTUfdkMBKAAFoEBgKJilVH6w1O98lrYWoy8ASquf3cCkUUI6QKkv51562LYHZZ0RsRhsj8k1dR57VNrhotGfKYLSdw9KRXzrvpXaEnNvm/33oJT9ygaglN3D8cbX3t5ObW1qlitqaGhI+H2Pg3t42AhKVv7AWO89quPJ7VtbjaA0A0qlRljgGLa8r1EuBdIF21EsQp0oCgBQRlEt+zqJA0r2xW/O3Jz9kOL3OG/ePJoxY0b8htACFIACUAAKQAEowK0CAJSaayqBScN58gFKNjId+BmDtCy/ZoBSydK9s4Nuv8dYJm3P4j2fpu70yvKtR0wuGqm3rtTd1UNrZvaWlngHAZRa1OQoU/bwSjYHyeLNzLHtbcntFRreMADK8JqhRhgFjGR3Rh0jCR77v98+0uy8slXGwmbq2rKTtJ2g7fs+Vmpfh3cK0LulZRGpC7DNe0yztm6oof37qXxet6m8irpct7z3pD4Wtke1sqzbCvz8xlQet1sfasv2vbtNe2cHA5QBNCHzkvTK5cN42ygLQBlFNf7qAFDy5xM3ixIHlCIv7zYEamxspMWLF4vhQVgJBaAAFIACUAAKRFKg6IAyCJg0hJUTUEaaNnoltz0q47SHukkoAECZhIpow10B5/JnDfIZ0M8AY2XoqO2xWKMDw2Dnu5pbyNj+0R4d6Npfab9II6GgzR7TfpIOIOgSQekGKPd3lceknu++QY+6dGpi6cOxx6VVWYc9OnCtucXQwE9ze8Sljz0RpzYAZUThOKsGQMmZQzzMSRxQ7t69W5jM3V4uYsu72TJvHPEV2LZtW6mRpUuXxm8QLUABKAAFoAAUSEiBogLKMGASgNJrsgFQJnQZJtoMAGWicqIxswKuy6c1KKgQSAUqui3xDnPeKbdbhGGplBv8M9voCgeZPQdo7F130uwxSksBAaUZmmoRkXqUpm8f2vi7PfaUdCbJMUek6vYZfZUGbtbUBih97Yk2pQEoo+nGWy0ASt484m4PAKWLLgCUyU3e9evXlxpraWlJrmG0BAWgABSAAlAgpgJFA5RPP/00zZ49W83KbSS/CSohIijtSgFQBp07WZYDoHRXu6+vj3bt2qWeHDFiBC1cuDBLt8jRVxaA0rJkW5fNtCTaIqSbPQ54uJ+sObK1FiYZEYqJAEqfPsiI7GQ9W5e0WwGsHv1IRnSmUtxXczdA6WdP+OkIQBleMx5rAFDy6BWnTQCULn4CoExu8gJQJqclWoICUMCqQNgtRZqbm4l9Kh1ptAm/8atA0QBlHE8AUMZRD3WzUgCA0l1p+3fdypUrs3KJPP34wjKXCErLkmWv8ydoEotopIP00pb9VF7ezLaYdCaRKQkaKYLS5o5EAKVuP4vI9DtUDbuVJN1aBKfvEm9fzYNEUPoZ5X8egNJfIxFKAFCK4CUiAEoAylRnKgBlqvIGbJyDrIIBLRW+WKjsifCL3d+VEqzV1dVRTU0NNTU1laqlARPTaFP4eS3xAPr7++nIkSPqCIcNG0Zf/epXhRvta6+9RuzDjttuu039pHEAUKahKtpMWgEASndFASiTmGl6JKCeTIa16Lofo2m/xlB7UDr2X9T7M0VQWvegtC2fLkVfeu9B6VAhLqA0kvCY9rmsqLQNqvonyfHT3H8PyiQ8z64f9mHHqFGj1A8O8RQAoBTDZwCULn5CBGVykxeAMjkto7cEEBZdu5A1AShDCmYtbv6+cGvI/t2cBkxMo81YoqBypgqI+PAKQJnpFEFnnCsAQAlAme4UNS9XVnqyLL/Ws3Q3T/r/2XsbYCuqO9H3z9cBgRzBwDmaQQSExOA5aoLmegUMRJKJEEd8lTGVc+uNvpsJJt5UaWom5bwp8+K8eK2pykwFp5zJkzuZ0jtzMSov0ZkAjkOiEXBIDC8OXxpBRHRGOaAHCRDk8PF69cfe3b1798fe3b17df86dSqH06vX+q/ff+1D83N9yP6NzjJj95Lm6BOxvXsy2qdy759kH0gTdYq3ISaXTZLtaw9Lv3PKd8Mp3oqOa5/HtgWlqs9/ararDf8J3qr12gE4TWaI+mZZGr0297G0Tj33M/cLyoh4sh0c1F5wAjq+4xUcaSbhISgDsCIo0xtrCMr0WLZeE4KydXYJn0RQJgTmLZ5UULbVGA9DIICAji+vCEqGMgTqBBCUwaOBGZRF+JTwPl6ELBBDdQno+I5XxWwhKBGUmY57BGWmeGNWzgtRTFDtF0NQtsXQ/ftiyZIlDXWNGTNGJk+e3FYbeTy8d+9eUV/qUkvS3cvS82ifNlonoOPLK4Ky9XzzZPkIICgRlGGjenBwUA4cOGAW6e3tFTUpJb+L9/H8WNMSBBoJ6PiOV8U8IigRlJmOewRlpnhdlfuXV7iWb9hLLw73LxTZ6CyR8C852Swyv18Orw26r5oJq9+/5MRe4tK0PrVUY7tMWugsgXFiCW+jIQbXHkBR8VmnANYWh3iX5ITdi+i3sbu3uaG5dUKivRRnm8jC2tKasPyHL/Xx7mtk1RO6WXpeQy3Ddsry+4LN1DMcJBlXrePLK4Iy40FB9VoRQFAGp4sZlBaXzv79jKDU6pcJwZaOgI7veKVLQowOISgRlDGGSetFyiIcWieQx5O22HNtUO3dRNsRf3UpmWjT7prgHJAFF1r9MeuXhTJg/yBZe85eMo0SdVtUH3z3X79IxdTYf4/ICzrl0ElL2L2Ajb+9gtDfblC/ogXltmabqTfswWO1t3/6Mlmqjj4s4VWW3xed/QdQCQdGjl3S8eU1L0E5+78/J6fOnM0xGzQFgeQEEJQIyrBRw9/PyT9TPAGBshDQ8R2vLOyT9ANBiaBMMl4Sly2LcEjc8TwfCFxWbMkyYypfTeAd7q8LRmfD6Xj3GzsTPpMv6L8Qu+Nxf2/XHdWHbjVTcb9MX7ZUGtxcoGS0Z2ma5X2nHHq6E3Ivql4JiKntJd6NeasJyVCZmueAy66tsvy+4B9A2Y2RrGvW8eU1L0G59H9slV1vH806BdQPgZYJTB4/Rn71R9fUnn/llVdarqtsDzKD0soofz+XbWTTHwjEJ6DjO1783pWnJIISQZnpaC6LcMgUUruVR8k9e4ZhW4LSs5TZDthzcqG7ExkISlFLtJssnQ6KzQ6nflKg+wRA9/J2VbDJvah6g2JKVVB6l3Qb0ydl7f7ptZMc2x02PJ8dAf4BlB3brGvW8eU1L0F597rd8g9b/yPrFFA/BFom8J8vmiSP/MHlCMoAgghKBGXLHywehEBJCOj4jlcS9Im6gaBEUCYaMEkLIyiTEmuhfCuC0pZv3c1mWLpn65kzBbeJVdaKL/EMSs/svzxmUIZwbFg67Srrvhc0Q9JdbdCMxnYFpScvdXkqC5fJpO1rxSuZWxgrPJILAQRlLpgzaUTHl9e8BOWW1w/Lisd3ypHfnsqEPZVCoB0C47tGyf/92dny+cvPR1AiKJsOJf5+budTxrMQ0JuAju94ehNvLfrUBeWRI0fkxIkTrUVTkKd0OSm2ILhCw0BQ5pElewag69AY7wErbe5B2USa7XfNoGxlD0prebnDJ2YfYu5BGUo99p6UjXtbeuv1LQ+vzbh0760ZFklUXqxnLbbqu7j15jHmaCOMAP8A0md8nDx5Un7961+bAXd1dckNN9ygT/B2pHkJStXcbY/tlJ/ueUeGT7MXpXYDpeQBzz1/oqz78jxPL1niXcfBDEqLBX8/l/wXQUbd27t3r6gvdc2aNcv84tKPAIJSj5ylLij16DZR5kVgw4YNtaaWLFmSV7MVbMe9TNnovmf5tX2qdr9zarbC4z/FW83Oa3bKtz1jcpt1VnXttOr9k2rLjYMEZfP6AmZQmvWG9SHgfugp3qq8LfT8p3SrO44cDbtnxuQ/WdxVr3nbfYq30d6ySbJ97WHpj32Kt3F6etO82LidGD39reAQ16jL/ANIn2T5/9H+jW98Q5/g7UjzFJTvnzoj1z7wC3n3+EkkpXYjpbwBn989Vv7pSx+XqRO7PJ1EUNZxnD59Wt555x3zByNHjpQpU6aUd0CE9Iy/nyuZ9rY7zbhpG2EhKkBQFiINkUEgKCMRUQACZScQtGdkO31Ou752YinBsxU4HKcEWfJ0gRdZfTKKoEyeqyMnTsk3/vHX8q/Gkm/1PRcEOkVg3JhRMuuD58jDX+xvkJMqJgRlpzJT3Hb5+7m4uSlyZIybImcnfmwIyvisOlkSQdlJ+rQNgUIQSFsopl1fISB1LIjw/T47FhYNhxDgRVaf4YGgbD1XP3v1XVn5s9dl96HjcvR9RGVSkl1ySk7K6KSPUd4gMG7MSENMjpf/8vEL5L/M+1BTJghKhoufAH8/MyZaIcC4aYVa8Z5BUBYvJ0ERISj1yBNRQiBDAmkLxbTry7DrmVXtW67e0E7c/SQtlvunL5OlfedmFi0Vt0bgrbfekp07d5oPjxo1qrZk7sCBAzI4OGj+vKenx9yraOLEiZ5GJkyYIOqLq7MEEJSd5V/V1k+dOiV/+7d/K3/4h38oo0cjKbMaBwjKrMjqWy+iSd/cdTJyxk0n6afXNoIyPZZZ1oSgzJIudUMAAhCAQGkJqD29nnzyycQHwymZef3110t3d3dp2ejSMQSlLpkqV5xbtmyRp556Sj772c/K1VdfXa7OFag3CMoCJaMgoSCaCpIIzcJg3GiWsCbhIij1yCOCUo88ESUEIAABCBSQgDoBeuvWrYki+8hHPiLz5nlPm01UAYVTI9C6oDwkz/3NAzK4+B75/EdTCyekoubt5XlITlhPX1pzjzwqX5B78gGSB/RM2lCzJ1euXClHjx41Z1bfeeedzKLMhDR7UGaEVetq1eoGtcpBXb29veYqBy4IRBFAUEYR0uM+glKPPCEo9cgTUUIAAhAoPYHVq1fX+jgwMKBFf0+cOGHOolSzKeNcavbkjTfeKOPGjYtTnDIZE0BQWoAPPfc38sBPrW0JnKvnU1+T26+Nf9IvgjLeYHVmTzqlmUUZj1srpZhB2Qo1noEABPwEEJTlGBMISj3yiKDUI09ECQEIQKD0BHQUlCopagalmkkZ51IzJ9UMSq5iEEBQWnkwBeWOPvna7deKqSQPPSd/88BPRRJISgRl9Jh2z550SjOLMppbqyUQlK2S4zkIQMBNAEFZjvGAoNQjjwhKPfKkbZQ/+clParFfd9112vaDwCEAgewJ6Coo1SzKH/7wh5GA1KxJNXtSzaLkKgYBBGUTv+I03QAAIABJREFUQWn8OKlwTFq+GCMg3yj8syed1plFmU0eEJTZcKVWCFSNAIKyHBlHUOqRRwSlHnnSNkpdhYO2wAkcAhoT0Pn3xXPPPSdvvvlmKH11GIY60ZurOATCBaW172N95XOffOGez4u15aSzJ+QXRB59VHaYP+sxJhzeLtaqaHX/MZGbF8vgA0H363UE128LQmNWo9Vm8/bO7HhW1D6U6pppHAz/2jGHrzte42cvrZF7HrUitcL9VG3GZMMMSrO4f0/JMB7JyxdnFOQTSdDsSadlZlFmkwMEZZ2r+g9pmzZtMn9wzjnnyPz587OBTq0QKCEBBGU5koqg1COPCEo98qRtlDoLB22hEzgENCWg8++LoaEhWb9+fVPykydPNk/u5ioWgeaC0pZxPfVDX0xh5xOGPx2sS0lrH8cej1CMuu8+ZMcvBKPaM+8Pfko+MfeM/MIWlD19i+T2zy8yIXvqM5ds75C+mkD15qHZEu+eLziHAEXx8AvKxvJBErRYoyHbaJrNnnRaZRZl+vwRlHWm/t91ajY/FwQgEI8AgjIep6KXQlAWPUNWfAhKPfKkbZQ6CwdtoRM4BDQloPvviw0bNog6ITTouvbaa2XatGmaZqa8YZ88ebK2f2hXV5fccMMNVmfN2YbimjFp/lDWWD80Tu4OOlU7yf1GpuECL6A9O8a+RVNkhy0oFy1aJOpLXd76rNgGm+wp2XhITtDsyzAecYSoiuEZ6WkiScs7ykTCZk86/WYWZfojAEFZZ4qgTH98UWN1CKjPj/pS14QJE8wvLv0IICj1yBmCUo88aRul7sJBW/AEDgENCej++0It8VZLvf2XEpNKUHIVn0Dt5TUPQWkfRONR2q5l115a8QSl+idTbYW3qsBTnyUpG5ej+2WmPftR6kvAo4VtkKD8qQTp+r7arMzij4e0IoyaPem0wyzKtIhb9SAo6zwRlOmOLWqDAAT0I4Cg1CNnCEo98qRtlLoLB23By3uyY91aOdw/IAsu1LcXWkT+xiZZvVFk4cACAXV7GSvD7wu1zFst93Zfamm3WuLNVXwCbQlKWzhay6IDhKJ7mbVYp2TXl1AHnKTtwRVPULqXeIfOyDQF7GBtz8zIJd6RwjbODMri5z+LCOPMnnTaZRZluhlAUCIo0x1R1AYBCOhMAEGpR/YQlHrkSdsoyyAc9ISPoMwtbwjK1FCX4ffF7t275YUXXqgxueiiiziMILURkn1F9ZdXe7Zhn28PSmPPx6/dfq1MsQ+tidpjsul9j8xU/bLbc814DNqD0r1npTOr0b3Euy4oG+vz+k7vnpTRh+RE8YjegzL77BWzhbizJ53omUWZXh4RlAhK/2hS27AcOHDA/HFvb6/09PSkN+CoCQIQKDQBBGWh01MLDkGpR560jbIMwkFP+AjK3PKGoEwNdRl+X5w+fVqefPJJUSemjho1StRBBOPGjUuNERVlS8D78upeEm2061kubZ/SvbhPdjzqLGX2n+L9gAwubnbKtz1jsnaEt/Hsp3rkpzt6aidrtyIo63R89flP8DYKupdaB8629M2yrElUpxHfcvToU7/Vg769LbNNZ8drTzJ70gmWWZTppQ1BiaD0jyYOO0nv80VNENCNAIJSj4whKPXIk7ZRlkE46AkfQZlb3hCUqaEuy++LX//617J161b5yEc+IvPmzUuNDxVlTyC9l9egQ3Syif9Z44Ac9aUu9yE52bRGrUkIJJ096dTNLMoklJuXRVAiKBGU6XyWqAUCZSCQ3jteGWgUtw8IyuLmphSRlUU4FDMZloTcdtiJbrprH0RHUC4U2bhR9ptFJslly5ZK37nqe3V/s8j8fjm8Nui+U6ZZ/SJvbFotG/c7bUbV94ZsWr1dJi2cLvs3bpPDtVjC+hAQw/SFMlDbVDPiWVMcWj23un+ZLFvaJ2b3w+7Z+3cGc1Xodsi6taoPNtPLumXbNvagTOMzUpbfF2r25D//8z+L2ntSnQzNpQ+B9F5eEZT6ZD27SH/5y1/K0aNHGxpwhLK6MWPGDPO+mjk5ZcqU2vdXXnllw3OqrkOHDsUO2F1ns4fKXOe7774bykr9rj5y5Ehsnmo2fHd3t5Z1+g/J+d3f/d3K9N2dMPcMylmzZon6irp0zru/b1Ua83n0PWrscL9YBNJ7xytWv8oWDYKybBktWH/KIhwKhtUIx5Zz3XVh1ygMlVysS8n3dqyTtdu6bYnpyL3w++5Ddsz6pdX2lKBUIrRRom6L6oPv/usXqYN/Gvtv9s8QpqaENCWi0VpNyLoyGHYvgKun3ob7Qf0q3mghovwJqH8MTpigzlTm0olAei+vCEqd8p53rPfcc09Dk1dccYUsX748NJQXX3xRnnjiidjhVr3OuXPnhrLau3evqFmucS8ls66++mot6/QLyv7+/sr03Z0wt6CsQt79fazSmM+j73HHEOWKQSC9d7xi9KesUSAoy5rZgvQLQZlRIgKXFVuyzDCQNYHnPcU7yf3GuL2izn8/aEm5uz339/azUX3oTioZ7VmappS02jty2TJZak0ZdV0h93zy8sCx0/L0a6/Kb7a9LG91fUJ+fuo1uenMoOwf+QnZOsKu8uxOufWMMVF11KXyakbpptpqERg7aoRM6x4t13xorFx5/lj56BRmYeY1AnR8eWWJd16jI712EJRellmJVARlnTOC0mKBoKyOlEdQpvd3Vllq0vEdryzsk/QDQZmEFmUTE0BQJkYW74EouWfPMGxLUHqWMtthuZdJeyLNQFCKWqLdZOl0UGx2PNNNQav+4MxuVN+7l7eH3Aupd//IxfJTCZCRCMp4Y5ZSLRGY0DVSrpjaJX/0iXNlovE9V7oETp48KWrPUHWp5fg33HBDug3kUBuCMgfIKTfx0EMPNdQ4e/ZsWbBgQWhLe/bskU2bNsWOpup1Rp3Q/NZbb8nOnTtj8/zQhz4kUdKzqHX6BeUnPvGJyvTdnWC3oFSrHOKsdNA57/7BXdTxWZQ41UGHahm8uj7wgQ/I1KlTze/V58fZrkNtnRE0bi644ILaNh2xf6lQMFcCCMpccbfcGIKyZXQ8GIfAhg0basWWLFkS5xHKxCHQiqC05Vt3sxmW7tmDYu2zaJW1Ako8g9IzGzGPGZQh4ExeR1x7cLrKuu8Z/V5rLA3/1cSr5BfDxkvKqbPeSs/uYwZlnPFJmVQJjDa85AUTR8v9132wJUmplnSpr7hXnH25ylLnmTNnanv6qX9wfOMb34iLqTDlEJSFSQWBFIwAh+TUE6LEyzvvvGP+YOTIkZUVKZziXbAPacHCUZ+TJ598siYp44Y3atQoufHGG0XtV8pVXAIIyuLmxh0ZglKPPBElBHwE7NmBrkNjzD0ijzgHwcTbY7LpHpUemamatttzzaBMtudlgKB06ozqQ8w9KEOHSOw9Kd+Th//ftTJmuF8eGmEdVuC9BuVTp3fKuSM+IT8aaewvaArL14yDd3pY4s1nNFMCSlJe0TNW7vvkeYnbSbqkTe1Npr7CrjLWiaBMPLR4AAKFJoCgLHR6OhIcgrIj2LVqVK2q2Lp1a6KYP/KRj8i8efMSPUPh/AkgKPNn3kqLCMpWqPEMBApBwL2E2QjIs/zaPlW73zk1WwXsP8V7rRzub3bKtz1jsnaUtfGsOq16/6TaSdhBgrJ5fUGCUsUU1oeA+6GneKvy9iE8/lO61R1nNmjIvVeHhuWun70pc377r9LvmTzpEpA1KanaM35uiMrLzhyTbexBWYhPRZmDUEu8b//YB2TJjPGJullGmagApC1SEZSJhhWFIVB4AgjKwqco9wARlLkj167BpLMomT2pT4oRlHrkCkGpR56IEgIpEwjaM7KdJtKur51YWn921b/9Rta8fLT1CngSAhkTuNyYRfmdxclmUaq9k9RX3CvOvlxlrFMte7zmmmviYipMOZZ4FyYVBFIwAgjKgiWkAOEgKAuQBA1CSDKLktmTGiTUDhFBqUeuEJR65IkoIZAygbSFYtr1pdzdmNXdseEdeemdkzFLUwwC+RPoHjtS1izvzb/hirSo48srgrIig5NuJiaAoEyMrPQPIChLn+JUOhh3FiWzJ1PBnVslOr7j5QanQA0hKAuUDEKBQH4E0haKadeXHwl3SzeseVveP+07GKczodAqBJoSePoLF0AnIwI6vrwiKDMaDFSrPQEEpfYpTL0Dg4ODcuDAAbPe3t5eiTrpPfUAqFAbAnFmUTJ7Upt0moHq+I6nF+F0okVQpsORWiAAgRIQ+Myjb5WgF3Sh7AQQlNllWMeXVwRlduOBmvUmgKDUO39ED4FOEoiaRcnsyU5mp7W2dXzHa62nej+FoNQ7f0QPAQikSABBmSJMqsqMAIIyM7Ra/td1BGV244Ga9SaAoNQ7f0QPgU4TCJtFyezJTmcnefsIyuTMOvEEgrIT1CvU5k9+8pNab6+77roK9Zyu6kgAQalj1qoXM4Iyu5zr+PKKoMxuPFCz3gQQlHrnj+gh0GkCzWZRMnuy05lprX0d3/Fa66neTyEo9c5f4aNfvXp1LcaBgYHCx0uA1SaAoKx2/nXpPYIyu0zp+PKKoMxuPFCz3gQQlPX8nThxQjZt2mT+4JxzzpH58+frnVyih0BOBIJmUTJ7Mif4KTej4zteygi0qA5BqUWa9A0SQalv7qoYOYKyilnXr88IyuxypuPLK4Iyu/FAzXoTQFDW83fs2DF58sknzR9MmDBBbrzxRr2TS/QQyImAmkW5Zs0aUf+vrpEjR8ry5ctl3LhxOUVAM2kR0PEdL62+61QPglKnbGkYK4JSw6RpHvLrr78uF110UUu9QFC2hI2HciaAoMwOuI4vrwjK7MYDNetNAEGJoNR7BBN9UQj88z//s7zzzjtmOBdccIEsXry4KKERRwICOr7jJeheaYoiKEuTymJ2BEFZzLyUOarHH39czpw5I5dccolcfvnlibqKoEyEi8IdIoCgzA68ji+vCMrsxgM1600AQYmg1HsEE31RCPzrv/6rvPbaa2Y48+bNE7XEm0s/Ajq+4+lHuf2IEZTtM6SGEAIISoZH3gSUoBweHjabVZtYJxGV5RSU4+VPv3qVXLzxZ/KlHXlng/ayIICgzIKqVaeOL68IyuzGAzXrTQBBiaDUewQTfVEIbNmyRfbu3WuGc/XVV8usWbOKEhpxJCCg4ztegu6VpiiCsjSpLGZHEJTFzEuZo3ILSqefcUUlgjKdkfH53/+k/MUl7rqOy6pVL8h9B9Kpv+q1ICizGwE6vrwiKLMbD9SsNwEEJYLSP4IHBwflwAHrZaS3t1d6enr0HuQJoj9w7LQ8/dpx2XZwWHYPnZTjw2cTPF3togvOvCSzz75tQtg08qOyZ8T51QaSoPdjR42Qad2j5ZoPjZUrzx8rH53SleDpdIvq+I6XLgE9akNQ6pEnbaNEUGqbOm0DDxKUcUUlgjKdtJuCUnbJjMcPmhX2Lb5KfrxAkJTp4BUEZUogA6rR8eUVQZndeKBmvQkgKOv545Aci8X27dvNL3X19/ebX1W4/n7Hb+RHu4/L0ZNnqtBd+lhQAhO6RsoVU7vkjz5xrkw0vs/70vEdL29GRWgPQVmELJQ4BgRliZNb0K6FCcooUYmgTCepfkEpMlW+/825Ij9imXkahBGUaVAMrkPHl1cEZXbjgZr1JoCgRFD6R3DVBOXJ02fly08dkqETp+XEKWZM6v0brRzRjza85AUTR8v9130wd0mp4zteObKerBcIymS8KJ2QgFtQqr0A1abCEyZMaFrLxo0b5ciRI3L69OlYLU2bNo064ekZK3EEpfPAyJEjZcqUKeYyH3V9a9dEOSrjYo29YhWy9plcMcWJ6qD88bd3yRrzj84elLtEbpor15k/cy+5VvcvFfnhPrl4RdD9eh3B9YtYS7rrbUYLyrB4lcycIa/+6KB8+qaLZKYT69S5su+mqXXsh16Xz31vn1jbarbT/2JlMk40CMo4lForo+PLK4KytVzzVPkJICjrOWYGpcWiaoLyf7x4RH786nH5LXKy/L/wNOqhkpRX9IyV+z55Xq5R6/iOlyuggjSGoCxIIsoahltQqj4uWbIkdL+XRx55RM6eTfZf+Kiz+f45VeSZRFD6P3dPjfyYvD1ikmYfR1vOHaovqfYKQ0fe1aWkteT6mC0x4913H7LjF5BRgjIwHle8ZjyG4LSEozXb8jpxSdbeGfLMiqnyL4H7WCbvvxnPFLfgTJ7yz575lZx/9nDogy+OnCkvjpgRWuaKs/vkijPWyZBxrqMjzpGJZ38bpyhlKkxg0aJFor7CLrfYjIOKOuHZbJwUdSz5BaVbTsUZ83GWAOtYp5oocOONN8ZBULoyVRKUrw4Ny10/e1eOvM+y7tIN5BJ0SC3xvv1jH5AlM8bn1hsEZW6o22oIQdkWPh6OIoCgrBNCpOYjUtsRlD8ZeZm8MeKDUcO6WPf71MxCcc2YVOG5l1QHneKd5H5jd71CsfF+4yE5UbLRnjVpCsig5eDWz2ZtekEWP3Pc22Ar/Q98JllaEZTJeFE6XwLIRGSibjLRH28a0hNBWafqFnMIymrsQbnq334ja14+mu9fPrQGgQQELjdmUX5ncX6zKBGUCZLTwaIIyg7Cr0LT//iP/1jrJsuxWd7ebMynubQ/iaAcMWKEdHd3y+/8zu+IOulbyyXerQi6RALTyJo5g1Ett3ZdniXW3sw2LvF23Q+qy779E3OPymb7VTozK1Vh1xL1VvqPoKzCXz+V7iOCEkGJoBRBUCIo/Z+DKs2gvGPDO/LSOycr/XchnS82ge6xI2XNcmubrTwuBGUelNtvA0HZPkNqgAAECkQgjqBUYlIJ8//0n/6TdHV11aLX8pCcVgSdLQn3mkIwYIale0m1WHLSKmuhijWD0nWKt2d4hC7XViVjHKhj9nmCdSq4uTdlwhmkKQvKvLcGYA/K7H7h8PKaHVtqhkDeBNiDMm/ixW+vSoLyhjVvy/vGITlcECgygTzfaXnHK/JIqMeGoNQjT0QJAQjEJBAmKJuJSadqLQWls2fjy749KGt7LMbbY3LFlCZ7VHpkZl0gXueaQRm1B6U3dY17RnrvxxCUHslpz6yM6L97D01BUMb8NFWvGC+v1cs5PS4vAQRleXPbas+qJCj1fKdtNbM8pysBBKWumcsubgRldmypGQIQ6ACBIEEZJSb1FpQuaeh0pOGEa+OU7o3OqdiqkP8U76vk4o3NTvm2Z0wucDaxNp7ddExWXHK8dop2MkGp2vefuq1+5uxTGSAoTaHoOsHbKG0tB3c67F7+bfws4ITvtAXlJ87slvOMM9/V9YuRc+RdmZjbaM/zZS63ThWkIQRlQRJBGBBIgQCCMgWIJasCQVmyhNId7Qnk+U7LO54ewwVBqUeeiBICEIhJwC0o44pJp+pq/tfmoEN0YsKmWEcI5Pky15EOdrBRXl47CJ+mIZAyAQRlykBLUB2CsgRJpAulIpDnOy3veHoMHQSlHnkiSghAICYBJShPnToVuMdkVBUIyihC3C8CgTxf5orQ3zxj4OU1T9q0BYFsCSAos+WrY+0ISh2zRsxlJpDnOy3veHqMJASlHnkiSghAICaBnTt3ypw5czyH38R8VBCUcUlRrpME8nyZ62Q/O9E2L6+doE6bEMiGAIIyG6461zo4OCgHDhwwu9Db2ys9PT06dyc09mq+05Y2naXtWJ7vtLzj6TGMEJR65IkoIQCBHAjwMpcDZJpom0CeL3NtB6tZBby8apYwwoVACAEEJcOjygR4p61y9vXpe57vtLzj6TEuEJR65IkoIQCBHAjwMpcDZJpom0CeL3NtB6tZBby8apYwwoUAgpIxUGICJ06cELUy6NJLL5Vx48Yl6invtIlwUbhDBPJ8p+Udr0NJTtgsgjIhMIpDAALlJcDLXHlzW6ae5fkyVyZucfrCy2scSpSBgB4EmEGpR56IsjmBY8eOyZNPPimjRo2S2bNnJxKV1Xyn5eBH3T5Peb7T8o6nx+hAUOqRJ6KEAARyIFDNl7kcwNJEqgTyfJlLNXANKuPlVYMkESIEYhJAUMYERbHCEnAEpRNgElFZzXfa/AXl53//k/IXl7iH0HFZteoFuc/a6pQrgkCe77S84+kxHBGUeuSJKCEAgRwIVPNlLgewNJEqgTxf5lINXIPKeHnVIEmECIGYBBCUMUFRrLAE/IIyiais5jtthwSl7JIZjx8009O3+Cr58QJJRVKa8tNVd2EHahuB5flOyzteG4nK8VEEZY6waQoCECg2gesff0tOnyl2jERXDALnyVHpOnvKDObdERPlpIzOLbA8X+Zy61RBGuLltSCJIAwIpEAAQZkCRKroKIFmgjKOqERQ5pO6Rok4Vb7/zbkiP/qZfGlHezEgKNvj53+ad7x0eWZVG4IyK7LUCwEIaEfgD9YOyttHT2sXNwHnT+CzZ34l5589bDb81MiPydsjJuUSxNhRI+SfPn9+Lm1VsRFeXquYdfpcVgIIyrJmtjr9ihKUYaKyvILSmiW5YorT+4Pyx9/eJWvMPzozKHeJ3DRXrjN/5l5yre5fKvLDfXLxiqD79TqC6xexlnTX24wWlGHxGu31zZV9N02tD+pDr8vnvjcov+fpo3H75foszTJ9AvL8j+684+kxchCUeuSJKCEAgRwI/NXW9+THe47n0BJN6E6gU4Ly4slj5Hufqb2V646xcPHz8lq4lBBQiwT27dsnDz30UOynZ8yYIbfeemto+bLW2dPTI0uWLAnt++DgoGzYsCE2T+qEZ7PBknQsxR50RkH3HpW/9+RQkkc1KWvLvkN1WecVho4MrEtJa8n1MVtixrt/8cb67Ee/gIwSlIHxNIu3d4Y8s2Kq/EuTPSuZQZnusOQdL12eWdWGoMyKLPVCAALaEXj+30/Id37+nhwbZp23dsnLOeBOCMouY/bkTXPGy5cu7865t9VpjpfX6uS67D0tq0zMQqQiE6spEydPnizXX3994cV0K7+rlKjcdHa2/HrEh1p5vLjPmLMNxTVjUoXqXlIdtAdlkvuNXTcFpzFj8nPf2ydBK7YbD8lxzeiMjNeKbdamF2TxM40TJBCU6Q5F3vHS5ZlVbQjKrMhSLwQgoCWBOza8Iy+9c1LL2Ak6PwJ5Ccorzu6TK868Frtj/f39or7Cru3bt4v6intVuc5FixaJ+gq7nn32WVFfcS/qhGezsZLmWEJQPhT3IykIymoKygkTJsiNN94YOk6SznbMYizFHsh2QSVe1d/b/3XzqKSPFr98pPBLQVCasxovkpluGuay6xBB2ewgm8h4VSOWpGxcjm4vJ+eQnNTGJYIyNZSZVoSgzBQvlUMAAroRGDpxRr781EE5Yvy/jNAteuLNiwCC0ku6rNITmYhMzEMmOm2kKSjz+l1Y5HbYg7LI2elMbO6/q+L8x7fORFlvNe4elOoJR0xOmzbNrKCUe1BGCr8AQWkLx73moTXN7tvLrMWSk1ZZKw+xZlC2JShdo8zs34TaCeDMoEz3E4igTJdnVrUhKLMiS70QgIC2BN44ckru2TwkB4+flhOnzmrbDwLPjkAugtIYeleO2Cd9p5lBGSeTcf6xmVSkIigRlAjKOJ++YpZBUBYzL52MqoyC0i8mHb6lFJTObEPXgTGmxJvizHCMt8fkiilN9qj0yExF0p7d6JpBGbUHpXd82883jdf3afDtSentWyc/Odm1zSE52bHVtWYEpa6ZI24IQCBzAn+/4zfy/H+8L/veG5bTbEuZiPd5clSmnz1kPvOuTJT9I8p1sEsegvLC7tHy8d6x8uXLPyBq/0mu7AnwX9ezZ0wLEMiLAIIyL9L6tFMmQdlMTJZbULqkodNRz/Jr+5TujQfl0zc5y7T9p3hfJRdvbHbKtz1jcsF4u3bj2U3HZMUlx2tLvJMJyoh4/Sd4G8V/4pq9Ke7l5pzi3fYvGt7x2kaYSwUIylww0wgEIACBahHYu3evbNmyxez09OnTZcGCBaUCoE5zVXtTqUud/qr2neLSnwAvr/rnkB5AwCGAoGQs+AmUQVBGicnyC8p2xnXQHpXt1Mez7RJgBmW7BMv3PIKyfDmlRxCAAAQ6TsAtKNV+SNdee23HY0ozAARlmjSLUxeCsji5IBIItEsAQdkuwfI9r7OgjCsmEZRh4xZBWbRPNYKyaBnpfDwIys7ngAggAAEIlI6AW1COHj1abr755lL1EUFZqnTWOoOgLGde6VU1CSAoq5n3sF7rKCife+4581Ru5/CbuFkt5x6UcXvfrByCsl2CaT+PoEybqP71ISj1zyE9gAAEIFA4Am5BqYIbGBgoXIztBISgbIdecZ9FUBY3N0QGgaQEEJRJiZW/vG6Csp2MICjbocezeRFAUOZFWp92EJT65IpIIQABCGhDoOyCcuvWrTI0NGTmY968eaKWXnHpTwBBqX8O6QEEHAIISsaCnwCCkjEBgWIRQFAWKx9FiAZBWYQsEAMEIACBkhEou6AsWbrojk0AQclQgEB5CCAoy5PLtHqCoEyLJPVAIB0CCMp0OJapFgRlmbJJXyAAAQgUhACCsiCJIIxEBBCUiXBRGAKFJoCgLHR6OhIcgrIj2GkUAk0JICgZHH4CCErGBAQgAAEIpE4AQZk6UirMgQCCMgfINAGBnAggKHMCrVEzg4ODcuDAATPi3t5e6enp0Sj6ZKGyB2UyXpTuDAEEZWe4F7lVBGWRs0NsEIAABDQlgKDUNHEVDxtBWfEBQPdLRQBBWap00pmEBK5//C05fSbhQxSHQM4EEJQ5A9egOQSlBkkiRAhAAAK6EUBQ6pYx4lUEEJSMAwiUhwCCsjy5pCfJCfzB2kF5++jp5A/yBARyIjB21Aj5p8+fn1NrvOPlBrrNhhCUbQLkcQhAAAIQaCSAoGRU6EgAQalj1ogZAsEEEJSMjCoT+Kut78mP9xyvMgL6XnACF08eI9/7zJTcouQdLzfUbTWEoGwLHw9DAAIQgEAQgaGhIVm/fn25jc6hAAAgAElEQVTt1sDAAKAgUHgCvLwWPkUECIHYBBCUsVFRsIQEnv/3E/Kdn78nx4ZZ513C9GrfpS5j9uRNc8bLly7vzq0vvOPlhrqthhCUbeHjYQhAAAIQaEZg9erVCEqGh1YEeHnVKl0EC4FQAghKBkjVCdyx4R156Z2TVcdA/wtIoGfCKPm766eKEpV5Xbzj5UW6vXYQlO3x42kIQAACEKggATVDdHh42Oz5pEmTpKurq4IUytdlXl7Ll1N6VF0CCMrq5p6eWwSGTpyRLz91UI4Y/y/5eSDwQyCUwKRxo+QvF58nF3aPzpUU73i54m65MQRly+h4EAIQgAAEqkpgw4YNMjg4aHZ/yZIl0tPTU1UUpeo3L6+lSiedqTgBBGXFBwDdNwm8ceSU3LN5SA4ePy0nTp2FCgQ6Q8AYemNHj5Bzx42UP5s/WdT+k3lfvOPlTby19hCUrXHjKQhAAAIQqDABBGU5k8/LaznzSq+qSQBBWc280+tgAn+/4zfy/H+8L/veG5bTbEvJMMmZgJot+fHesfLlyz+Q67Judzd5x8s56S02h6BsERyPQQACEIBAdQkgKMuZe15ey5lXelVNAgjKauY9rNdq5cOBAwfMIr29vax+YIhAoEIEeMfTI9kISj3yRJQQgAAEIFAgAgjKAiUjxVB4eU0RJlVBoMMEEJQdTkABm9++fbuoL3X19/ebX1wQgEA1CPCOp0eeEZR65IkoIQABCECgQAQQlAVKRoqh8PKaIkyqgkCHCSAoO5yAAjaPoCxgUggJAjkR4B0vJ9BtNoOgbBMgj0MAAhCAQPUIICjLmXNeXsuZV3pVTQIIymrmPazXCErGBASqS4B3PD1yj6DUI09ECQEIQEArAkNDQ/Lmm2+aMU+ePFmmTZumVfxRwSIoowjpeZ+XVz3zRtQQCCKAoGRc+AkgKBkTEKguAd7x9Mg9glKPPBElBCAAAa0I7N27V7Zs2WLGPGvWLLn66qu1ij8qWARlFCE97/PyqmfeiBoCCErGQBwCCMo4lCgDgXIS4B1Pj7wiKPXIE1FCAAIQ0IqAW1CqwAcGBrSKPypYBGUUIT3v8/KqZ96IGgIISsZAHAIIyjiUKAOBchLgHU+PvCIo9cgTUUIAAhDQigCCUqt0EaxNgJdXhgIEykOAJd7lyWVaPUFQpkWSeiCgHwHe8fTIGYJSjzwRJQQgAAGtCCAotUoXwSIoGQMQKB0BBGXpUtp2hxCUbSOkAghoSwBBqUfqEJR65IkoIQABCGhFoOyCcuvWraIOAlLXvHnzzIOAuPQnwMur/jmkBxBwCCAoGQt+AghKxgQEqkuAdzw9co+g1CNPRAkBCEBAKwJlF5RaJYNgYxPg5TU2KgpCoPAEEJSFT1HuASIoc0dOgxAoDAHe8QqTitBAEJR65IkoIQABCGhFAEGpVboI1ibAyytDAQLlIYCgLE8u0+oJgjItktQDAf0I8I6nR84QlHrkiSghAAEIaEUAQalVuggWQckYgEDpCCAoS5fStjs0ODgoBw7sl8FXXhH5yBK5rq+n7TqjK3hPdqxbK4f7B2TBhdGlKQEBCGRDAEGZDde0a0VQpk2U+iAAAQhAQBCUDAIdCfDyqmPWiBkCwQQQlIyMYAJ5C8OM23tvh6xbu00O252dvhARysiHQBAB3vH0GBcISj3yRJQQgAAEtCKAoNQqXRUPtv6Px/963YcrzoLuQ6A8BBCU5clluj3JWBg2BJtle2/IptUb5chly2Rp37lGy6qt7XLu0gXS7mTNNzatlo2yUAaY9pnu8KO2jhFAUHYMfaKGEZSJcFEYAhCAAATiEEBQxqFEmWIQqLigPPSc/M0DP5VBOxl9X7hHPv/RYmSGKCDQDgEEZTv0yvxslsIwiFuG7ZmzJ/fL9GVLxfSTKV4IyhRhUlUhCCAoC5GGyCAQlJGIKAABCEAAAkkJDA0Nyfr162uPDQwMJK2C8hDIiUCVBeVLsuaeR2XwU1+T26+dYvA+JM/9zbMy9fbPS7uO8qU198ij8gW5B9uZ0zimGT8BBGWVx4T1e32bs+5ZpsvCAWdWofM7f6HIxo2y38Q0SS6rST51f7PI/H45vDboviofVr+IKff2O21GtRddn1GhrN5oRWqFe5ksW9on54o1g3L/9GYzHcPjbOiHWU+3j53RXq3+sPpULNtl0sLpsn+jWnLuZlrlsUjfi0IAQVmUTITHgaDUI09ECQEIQEA7AqtXr67FjKDULn0VCrjCgtKcPblD+r52u5h+MsULQZkiTKpqiQCCsiVsJXjIlmjddWkXJAy3Ha4LtPd2rJO127ptielIuPD77kNv/LMNo9oz7x9xJGPjDEtPfVGzJF3yclJtqbdKYyMHs5+GOLXkZjCn1y+y9rBsnEEZxdWWpR4ZXILhRBdKQwBBqUcqEZR65IkoIQABCECgQATUDNHh4WEzokmTJklXV1eBoiOURgLxZtN0G7NpdpgP98inatJOzSp8TOTmxTL4wKMB91V5VeYB+amzTlr65Av31GchmrJuh/tnvvJ97pmGzesy6xn8lHzt9mul5hNfWiPGJEi7vbA41GzJZ6TnC32y41G1pFv10e6Tp303vfB+NfTbrGeqj4VRX63+pPGlL075dFSHAIKyOrn29NQUduKaManuWvLM+KEh34KWXCe5H/A3jEf8+e8HtBcYY/05r0j07zMZnFdLsqopo/bMzUCxac9yVLNFjb/NwpaHNwjKSK5uhhUde3S70AQQlIVOTy04BKUeeSJKCEAAAhAoEIENGzbI4KBlo5YsWSI9PT0Fio5QvASiZn3UZ8t86mt3mjMJDz33N/LAT3t80q8uLYPuDy6u793onz3oFZS2pOupS0l1f+el6vngezW5acrIQZ88fUB29Kkl2mKJQVe9ZpyGGLWEprWc25gv6ZGnYtZpa9naUm9FsDEWb31h/RCjWv8S74i+NYuP4QyBFgkgKFsEp/tjkSItBUHpOznbRFZbdt2CoIysz5mdaDbkWo7ua8uuxyggSy98w3O6t7ukedK3BInceikEpe4fBOL3E0BQ6jEmEJR65IkoIQABCECgQAQQlAVKRlQoCf6xWj/F25J5hsmrSUO3gDT0m+t+YwBekee7H7as2jMb0nmuMRZLSJomtb5EW4KWa9uzJs3ZoDFiNqeA2gIzME5XfYHt1fvaICgj+xYeX1SauQ8BPwEEZUXHRILf+bUDqm2x191shqV7NqI583CbWGUtxt4Zj37uETMoPW3HqM/s35EmktJqa/90R1CGHKATsXQcQVnRz0+Ju42g1CO5CEo98kSUEIAABCBQIAIIygIlIyqUBP9YbVlQ+k7CNkPq8S3FrvlG95JsX/CREs+e3WnPijSmTNZnSAbFYFdvncwdQwDadRhTNOX2ubs8p3u7IzXrk5B+GIURlFEDk/tZE0BQZk24qPU3Hhzj7Pn4n6/skaMH9svgK6/IgfcnGpLv98zTrxPtQdkgFO32XDMogw/JqQtN69Abexl6jPo8pF1i8cI3jGXdh/uNg21sU+qRl42rB7wZi7EHZW2fTPVkc67uA3usZfRFHRvEVWUCCEo9so+g1CNPRAkBCEAAAgUigKAsUDKiQmlFUNqirqfZDMqGmYs/NfZ2rC/xzm4GpdHZWts3izz2gNRmdkYeeBNDUNrLus0ZmqagDDlAJ6I9BGXUwOR+1gQQlFkTLnL97iXRRpy2PNy/fbtsN77U1Tu9V97ff8A4bVpd/lO818rh/manfDtC0zki3Hj2sm7Ztn+SffhMs1O8mwhKo/X6/pF2LO76/Cd4G0XMJdo1J6lODHdy4V/+7d9/WZVzn2ju4+Q+Ddy97Lz282CuhuM1LvagLPIngthEEJR6jAIEpR55IkoIQAACECgQAQRlgZIRGUrUrI8296D0yEwVjL3Xo2sGZfw9KO1nXYfWBB2Mo372jLEUW53Ys7h2GE/jHo9eNI2C0hSpg4uNg20+ahX17HEZVV+MPSg9B/pE9S2OQI1MNgUgUCOAoGQw+AkoOekIyv7+flFfjVfQHpWwhAAEdCeAoNQjgwhKPfJElBCAAAQgUCACCMoCJSNWKGGzPtQ/RjeL9E+XtzduM063Vpf/FG81U/ELIo8Gn+JtHZrjHOFtPPupHvnpjp7aaduNp3g7B9bYwXtO0fbdC1oq7hxs03D6tv+UbFW/cyhOsAC0YnMguvutfhZWn7of0g/3kvNanGF9Q1DGGsoUik0AQRkbVWUKIigrk2o6CoEGAghKPQYFglKPPBElBCAAAa0IDA0NyZtvvmnGPHnyZJk2bZpW8UcFi6CMIqTn/eCXV0vSeQ/J0bN/RA2BKhFAUFYp2/H6iqCMx4lSECgjAQSlHllFUOqRJ6KEAAQgoBWBvXv3ypYtW8yYZ82aJVdffbVW8UcFi6CMIqTnfQSlnnkjaggEEUBQMi78BOIJSrhBAAJlJICg1COrCEo98kSUEGiBQN576OTdXlwkRY0rbvx6lnMLStWDgYEBPTvSJGoEZanSWesMgrKceaVX1SSAoKxm3sN6jaBkTECgugQQlHrkHkGpR56IEgItEMhbzGXcnvs0QYOG+wTDcDjRcb2xyTgB8chltdMXW4Ad7xHnJEb3KYnxntSuFIJSu5QRsEGAl1eGAQTKQwBBWZ5cptUTBGVaJKkHAvoR4B1Pj5whKPXIE1FCoAUC0WKuhUpDHsmyPeuAiyOXLZOlfecaMai2tsu5SxfIhZGdiI4rTUFp1iULZWBBY2Tq3usyXfbvF1k4ECf2yM4VtgCCsrCpIbAQAry8MjwgUB4CCMry5DKtniAo0yJJPRDQjwDveHrkDEGpR56IEgItEIgWcy1U2hlBac6e3C/Tly0V008muvLl0FRQmn04LP0D/fLeurVyuH9AAhxmop4VuXDZBeXWrVtFHQSkrnnz5pkHAXHpT4CXV/1zSA8g4BBAUDIW/AQQlIwJCFSXAO94euQeQalHnogSAk0IWPJt22Hn9nTXzDxHzC0U2bhRjEl7xjVJLqtJPnV/s8j8fjm8Nui+Kh9Wv4gp4/Y7bUa1F12fUaGs3mhFaoXrLLu2ZlDuD1waHSAgzXqcWYrRcb23Y52sNfqxbGmfWP4zvN8N9824un25MKpxxWu2cbjfnFnp/t7qqOrfdpm00JhduXGbHK7lKWEcxuzMoszMLLug5FdSOQnw8lrOvNKrahJAUFYz72G9RlAyJiBQXQK84+mRewSlHnkiSggEELDlVXd9OXGQMNx2uC4lTTG2rduWWI78Cr/vnunnnx0Y1Z536XSjSPTUFzVL0iUvJ9WWetdlomdGYoCgbM7B0I0eQdnINeq+uXT7ImtGZPAMSl/fG/pqC1iPYIwXR1h+OvmxQVB2kj5tt0qAl9dWyfEcBIpHAEFZvJx0OiIEZaczQPsQ6BwB3vE6xz5JywjKJLQoC4EiEfBIOCcwS3QZBtKQZUFLm5Pcb+xs40xDd5momYxR9fn3mQyGbUlWNWXUP3PTtWQ6cAale0m1m4NPUAaKUnuGo5p9KuHLzQMFZW15t7PvpMVq/3RnT01vPGbPo+IIWOoenp98By+CMl/etJYOAV5e0+FILRAoAgEEZRGyUKwYBgcH5cCBA2ZQvb290tPTU6wAiQYCEMiMAO94maFNtWIEZao4qQwCORLIQ1D6Ts42e1dbdu3vawxBGVmfM5PQbMi1HN3Xll2PUcA4NEdM2Rc1g9K752OUoFTLrBsv8+RwcS8fbywTJCjrUtVX3reE3RLLdpkgVvat2gnmkTxzHI++phCUnWNPy60T4OW1dXY8CYGiEUBQFi0jxAMBCECgcwR4x+sc+yQtIyiT0KIsBIpEoBVBaQut7mYzLN2z9syZgtvEKmt1vK0ZlJ62Y9Rn9u9IE0npnoHYgqD0xeLpV9RS84j7jYIyYHakBdN18E/cGZSuAZiUZ85jF0GZM3CaS4UAL6+pYKQSCBSCAIKyEGkgCAhAAAKFIMA7XiHSEBkEgjISEQUgUFQCjQfHBO352PIelA0CzG7PNYMy+JCcJkutY9TnIe0SeBe+UT9gxizjk5deKejfzzFqr83oPSi9IyB470/PHpRHnMN9nFidA3vcNbkl6xHX0nynTGM7jXzcArkxP50cuQjKTtKn7VYJ8PLaKjmeg0DxCCAoi5cTIoIABCDQKQK843WKfLJ2Oy4oh06ckadfOy7bDw7Ly++elCPvn0nWA0pDoAUC3WNHysxzx8hlU8fIounnyIXdo1uopQiPuJdEG/F4ll/bp3T3OydDq3j9p3irpdHNTvm2xV3tiHDj2cu6Zdv+SbXTrhMJSqN171JnX33+E7yN8rWlzKbnUyeGO8z9y7/dHIy9KZdNku1rD0v/gNrzMYpD0MxQ/+nZql33Cdk+7u7Txd3Lro2fL5SNxv/qBxm5R0390KKL5PXa3qGeEo0ng7viCOXZ4eE5NDQk69evr0UxMDDQ4YhoHgLRBHh5jWZECQjoQgBBqUumiBMCEIBA9gR4x8uecRotdFRQrn/1uHx/+2/k6PBZOXPmbBr9oQ4IJCYwfsxIWTbrHPnyFd2Jn9X7gaBDdPTuUavRF+lwmVb7UMTnVq9ejaAsYmKIqSkBXl4ZHBAoDwEEZXlySU8gAAEItEuAd7x2CebzfMcE5TeeeVf2DA3LsWFmTOaTaloJI3DO6BEyvXuM/OWnzpOuUSMqAgtB6SQ68OTtiowCutkaATVDdHh42Hx40qRJ0tXV1VpFPFUoAry8FiodBAOBtgggKNvCx8MQgAAESkWAdzw90tkRQfnk7mPyd9uPym+Rk3qMkopEOdYQk5+dNV7+28erMpMSQWkdVKNO7A45Mbwi459uJiOwYcMGGRwcNB9asmSJ9PT0JKuA0oUkwMtrIdNCUBBoiQCCsiVsPAQBCECglAR4x9MjrbkLygPHTstXnz4kR08yc1KPIVKtKCd0jZT7Fk6Wj05hNlS1Mk9vIZCMAIIyGS9dSvPyqkumiBMC0QQQlNGMKAEBCECgKgR4x9Mj07kLyoeMPScffemonGbLST1GSAWjXHjhOfLNayZVsOd0GQIQiEsAQRmXlF7leHnVK19EC4EwAghKxoefgFr5cODAAfPHvb29rH5giECgQgR4x9Mj2bkLSrX35L8Nvq8HHaKsJIHzJ46S/7mM5ZqVTD6dhkBMAgjKmKA0K8bLq2YJI1wIhBBAUDI8/AS2b98u6ktd/f395hcXBCBQDQK84+mR59wF5Q1r3pb3mT6px+iocJRPf+GCCveerkMAAlEEEJRRhPS8z8urnnkjaggEEUBQMi4QlIwBCEDAIcA7nh5jIXdB+ZlH39KDDFFWmgCCstLpp/MQiCSAoIxEpGUBXl61TBtBQyCQAIKSgYGgZAxAAAIISr3GAIJSr3wRbU4EEJQ5gaaZ0hIYGhqSN9980+zf5MmTZdq0aaXqK4KyVOmsdQZBWc680qtqEkBQVjPvYb1miTdjAgLVJcA7nh65R1DqkSeizJkAgjJn4DRXOgJ79+6VLVu2mP2aNWuWXH311aXqI4KyVOlEUJYznfSq4gQQlBUfAAHdR1AyJiBQXQIISj1yj6DUI09EmTMBBGXOwGmudATcglJ1bmBgoFR9RFCWKp0IynKmk15VnACCsuIDAEHJAIAABFwEEJR6DAcEpR55IsqcCSAocwZOc6UjgKAsXUor0SFeXiuRZjpZEQIIyookOkE3mUGZABZFIVAyArzj6ZFQBKUeeSLKnAm0KihPnjwpXV1dOUdLcxAoHgEEZfFyQkTRBHh5jWZECQjoQgBBqUum8osTQZkfa1qCQNEI8I5XtIwEx4Og1CNPRJkzgaSCcnBwULZt2ya9vb3S39+fc7Q0B4HiESi7oNy6dauog4DUNW/ePPMgIC79CfDyqn8O6QEEHAIISsaCnwCCkjEBgeoS4B1Pj9wjKGW8/OlXr5KLN/5MvrSj6EnTKdaiswyPL66gdMSk+n91KTmJoNQ790SfDoGyC8p0KFFL0Qjw8lq0jBAPBFongKBsnV1Zn0RQljWz9AsC0QR4x4tmVIQSCMpOCMreGfLMiotkpj0CfvKjuHI0WlB+/vc/KX8x5XX53Pf2Saa+tW+u7LtpqsjLu2TG4weLMJZTjSFKUPrFpNM4gjLVNFCZxgQQlBonr8Kh8/Ja4eTT9dIRQFCWLqVtdwhB2TZCKoCAtgR4x9MjdQjK3AXlVPn+N+fKrE0vyOJnjhujREnHGfLK93bJmsgxk6+gNGWnBAtIde96OSjXXSLyx9+OE3tk5wpVoJmgbCYmEZSFSh/BFIAAgrIASSCExAR4eU2MjAcgUFgCCMrCpqZjgan3+AMHDpjtq22Zenp6OhYLDUMAAvkS4B0vX96ttoagzFtQmrMnp8q/rHpB7rP+fkxwRQvKBJVFFm0qKM0+jJe//vY++bA2y+Mju+sp4BeUUWLSeZgZlMk4U7q8BBCU5c1tmXvGy2uZs0vfqkYAQVm1jNNfCEAAAs0J8I6nx+ioiKC0xN6KKU5SDrpm/TnSb5fITXPlOrPIcVlVE4jq/qUiP9wnF68Iuq/Kh9UvYoq+S5w2rRmU1wUujQ4QkOZSameWYlSsIn2Lr5IfG23Vl3iHx9YQuxnXMR8vo4uueM02puwzl3a7v7foqv7NkFd/dFA+fZNaxu6wTBiHMTuzkzMzHUEZV0zGEZQnTpyQI0eOxP7NMG7cOOnu7g4tT53wjDOgOjGWEJRxMkOZohHg5bVoGSEeCLROAEHZOjuehAAEIFA2Arzj6ZHRCghKW4wdqi9V9gpDR5zVpaQp3RYcswVZvPvuQ3b8Mw+97RkDw9m/0fj2tdpS77ro9BzYEyAoV0xpFqtfUDb23Sswg9lc/5K1J2bwDEqfRG2YEWoLWI9gjBdHGMO8P07/sHiUeSq3c/hN3PbDZlD6hU1UnbNmzZKrr746tBh1bonCWLsPz3zHEoIy9tCkYIEI8PJaoGQQCgTaJICgbBMgj0MAAhAoEQHe8fRIZvkFpUfwOUmxJJqYh9MELZtOcr8x0Y2zGIMHgyVCxxs3ndmCcWdQug/VccfqE5SBy8ntGY5qhqiELzcPFJS15d3OvpNWzJ9+2dlT0xuP2fOoOAKWusdlmMXHbKKckNs/+GpiOaliQVAGZwSRWj2Revr0aXn00UdrA2JgYCCLjyt1QiBVAry8poqTyiDQUQIIyo7ip3EIQAAChSLAO16h0tE0GARlGoLSdyq3SftQzJO07WfFnEkppuyLmkHpuW8uqXZka5CgrJ8W7h4F5snh4l4+3jhGggRlXar6ytf620xQhsShjhtvh2EGnzW1xDvp8u4oQfnWW2/Jzp07Y0f7oQ99SObONXIbclEnPOMMqE6NpdWrVyMo4ySIMoUhwMtrYVJBIBBomwCCsm2EVAABCECgNAR4x9MjlQjKIEFpy7K9zWZYumcEmrMQLxKrrJX0ZLP/3DMQWxCUnljjzKB0DcyIA3saBWWAfFTVeeqJO4PSH0c7DNP/sLkPyUkiKjkkJ/1cUCMEikhgaGhIhoeHzdAmTZokXV1dRQyTmBIS4OU1ITCKQ6DABBCUBU4OoUEAAhDImQDveDkDb7G58gtKe4ah+1AaU7xNcWY4xttjsum+jz5BaB0SYxyC45pB6d6D8mXXATOWzVSzGCfUDuXxSkH/fo5RsUbvQekdJzH2oKxxcmJ1Duxx1+SWrBM8MzqtUo3teOKIwbDF8d3yY/5TvFVFcUQlgrJl5DwIAa0IbNiwobYNxJIlS6Snp0er+Ak2mAAvr4wMCJSHAIKyPLmkJxCAAATaJcA7XrsE83m+AoJSgXREnw3Vs/zaPqV7o3PqtCrjP8VbLbtudsq3LQXNvSTtZzcdkxWXHK+dpO0/JMf6s5Ngd1v+WI29KVcdl/+2Yrz89bfVno9RscY5xVu14T4h28fGfbq4e9m18fM/NpaE/4XUDxtyD9H6wUIH5XrXkvN6Gf8p3t44vEvHDSY+hvl8HOqtBAlK526YqERQ5p0p2oNAZwggKDvDPetWeXnNmjD1QyA/AgjK/FjTEgQgAIGiE+Adr+gZsuKriKBsJxlBh+i0U1+2zyZbXp5tLDrXHiYow0QlglLnrBM7BOITQFDGZ6VTSV5edcoWsUIgnACCkhHiJ6AmGRw4YJ3O2dvby+oHhggEKkSAdzw9ko2gjMyTXoIy8OTtyD5SwE8gjqAMEpUISsYSBKpBAEFZzjzz8lrOvNKrahJAUFYz72G93r59u6gvdfHOzviAQLUI8I6nR74RlJF50kRQ1pZj+5eMR3aQAgEEkghKt6g8efKkTJs2DaYQgEDJCSAoy5lgXl7LmVd6VU0CCMpq5h1BSd4hAIEgArzj6TEuEJR65IkocybQiqDMOUSagwAEOkgAQdlB+Bk2zctrhnCpGgI5E0BQ5gxcg+aYQalBkggRAhkR4B0vI7ApV4ugTBko1ZWDAIKyHHmkFxDIigCCMiuyna2Xl9fO8qd1CKRJAEGZJs1y1IWgLEce6QUEWiHAO14r1PJ/BkGZP3Na1IAAglKDJBEiBDpIAEHZQfgZNs3La4ZwqRoCEIBAhwk8++yzor7UtWjRIvOLCwIQgAAEikMAQVmcXBBJgQggKAuUDELRlsDq1atrsQ8MDGjbj6DAEZSlSmetMwjKcuaVXkEAAhBQBBCUjAMIQAACxSaAoCx2foiuQwQQlB0CT7OlIoCgLFU6K9EZBGUl0kwnIQCBihJAUFY08XQbAhDQhgCCUptUEWieBBCUedKmrbISQFCWNbPl7ReCsry5pWcQgAAEEJSMAQhAAALFJpC7oLz+8bfk9JliQyE6CCAoGQMQaJ9AmQXl1q1bZWhoyIQ0b948mTx5cvvAqKHjBBCUHU8BAUAAAhDIjACCMjO0VAwBCEAgFQK5C8qvPn1IXh0aTiV4KoFAFgS6x46UNct7s6iaOiFQKQJlFpSVSmSFOougrFCy6SoEIFA5ApLjFZ0AACAASURBVAjKyqWcDkMAApoRyF1Q/tXW9+THe45rholwq0Tg8p6x8p3F51Wpy/QVApkQQFBmgpVKMySAoMwQLlVDAAIQ6DABBGWHE0DzEIAABCII5C4otx08Kd/aNCTHTrLOm9FZPALjRo+Qr328Wz4zc3zxgiMiCGhGAEGpWcIIVxCUDAIIQAAC5SWwb98+UV/qmjFjhvnFBQEIQAACxSGQu6BUXf8zQ1D+/K0TcgpHWZyRQCQmgYsnj5HvfWYKNCAAgRQIIChTgEgVuRJAUOaKm8YgAAEIQAACEIAABCBQI9ARQXny9Fm5Ze1Bee/900hKBmNhCEwZP0r++tNTZPK4kYWJiUAgoDMBBKXO2atm7AjKauadXkMAAhCAAAQgAAEIdJ5ARwSl6vZRY4n3X/7iPXlx8KQcG2YqZeeHQnUjGDtqhEzrHi33XXsecrK6w4CeZ0AAQZkBVKrMlACCMlO8VA4BCEAAAhCAAAQgAIGmBDomKJ2Ifvn2+/L3O47K60eG5fjwWVIFgdwIOGJy2axz5HOzJ+TWLg1BoCoEEJRVyXR5+omgLE8u6QkEIAABCEAAAhCAgF4EOi4o9cJFtBCAAAQgEJcAgjIuKcoVhQCCsiiZIA4IQAACEIAABCAAgaoRQFBWLeP0FwIQgAAE2iYwNDQkw8PDZj2TJk2Srq6utuukgs4TQFB2PgdEAAEIQAACEIAABCBQTQIIymrmnV5DAAIQgEAbBDZs2CCDg4NmDUuWLJGenp42auPRohBAUBYlE8QBAQhAAAIQgAAEIFA1AgjKqmWc/kIAAhCAQNsEEJRtIyxkBQjKQqaFoCAAAQhAAAIQgAAEKkAAQVmBJNNFCEAAAhBIlwCCMl2eRakNQVmUTBAHBCAAgfQJ7Nu3T9SXumbMmGF+cUEAAhCAQHEIICiLkwsigQAEIAABTQggKDVJVMIwEZQJgVEcAhCAgEYEnn32WVFf6lq0aJH5xQUBCEAAAsUhgKAsTi6IBAIQgAAENCGAoNQkUQnDRFAmBFaB4m8ePiFr/u1t+fnr78n2t4/K0fdPVaDXdLGTBMaNGSmzPjhePvPhD8onLz5PPjatu5PhlKptBGWp0klnIACBEhJAUJYwqXQJAhCAAASyJYCgzJZvp2pHUHaKfDHbXfmzffJ3v/h3OXICKVnMDJU/qu5xo+U/XzRJvvN7HxH1PVd7BBCU7fHjaQhAAAJZE0BQZk2Y+iEAAQhAoHQEEJSlS6nZIQRlOfOatFfvnzojn/5/fikHj52U3548nfRxykMgVQJjRo2Q6ZPPkR/9Hx9DUrZJFkHZJkAehwAEIJAxAQRlxoCpHgIQgAAEykcAQVm+nCIoy5nTVnp137+8Kv/r/3tLjiEnW8HHMxkQUJLymhmT5eGB/gxqr06VCMrq5JqeQgACehJAUOqZN6KGAAQgUHgCq1evrsU4MDBQ+HiTBIigTEJLn7LMoNQnV1lFusvYZ/K//K9tMnR8OKsmqBcCLRFQS7zv+d3Z8r9d1tvS8zwk5gE5HJLDSIAABCBQXAIIyuLmhsggAAEIaE0AQal1+ioZPIKykmn3dPq+DXtl1b++AQgIFJKA2o/ykT+4vJCx6RAUglKHLBEjBCBQZQIIyipnn75DAAIQyJAAgjJDuFSdCQEEZSZYtar0pr/7lfzq349oFTPBVofA5PFj5Fd/dE11OpxyTxGUKQOlOghAAAIpE0BQpgyU6iAAAQhAwCJQZkG5detWGRoaMvs5b948mTx5MmkvAQEEZQmS2GYXLvnzjXJi+EybtfA4BLIjsO+bn8yu8pLXjKAseYLpHgQgoD0BBKX2KaQDEIAABIpJoMyCspjEiapdAgjKdgnq//yMb/9M/07Qg1ITQFC2nl4EZevseBICEIBAHgQQlHlQpg0IQAACFSSAoKxg0jXvMoJS8wSmED6CMgWIVJEpAQRl63gRlK2z0+7J9bfJiKUi684+KNfbwa+/bYQsXaX+cI2s3L1Z7pidR6/2yP3z58iuu8/Kg04gLTRrxi7r5Gw7lbTQbtQjnWEaFRX3dSaAoNQ5e8QOAQhAoMAEEJQFTg6hBRJAUDIwEJSMgaITQFC2nqF9+/aJ+lLXjBkzzC+ukhLwC8o998v8OY/JzbmJSYdrfEFZl332syvqQjJvQdkQS5DU7RjTko5ZumUSQFAyECAAAQhAIBMCCMpMsFJphgQQlBnC1aRqBKUmiapwmAjKCiefrscn4BeUATMq41fWTsk4gnK93GZM91zlEpKqRSUJ7527WzYbUz3zE5TBsey5f77MufN5WbHONRO0Y0zbyQfPFp1AxwXl0Ikz8vRrx2X7wWF5+d2TcuR9NiYv+qApQ3zdY0fKzHPHyGVTx8ii6efIhd2jy9At+gCBQhFAUBYqHQQTgwCCMgakkhdBUJY8wSXoHoKyBEmkC9kTCBKU986V3ZvvkFxWdtd6GC0oTfm4Y2VobHkJyrBYGu4pxh1hmv3woYXOEeiooFz/6nH5/vbfyNHhs3LmzNnOUaDlShMYP2akLJt1jnz5iu5Kc6DzEEibAIIybaLUlzUBBGXWhItfP4Ky+DmqeoQIyqqPAL37r5bYt7e0Xs3wu1fmrrtZHlt6pzzvLD0WtYRb/Vldxh6TK/vkzjutPSiNB+y9J212zkxFU2Kam1Ja1zV1SWgtcV5R38OyadkAAemRo879dSJLjVmSTny1pebWjEWjodA9KhsFpVWvManR6ZRnv01jymXTvjW/FxGLWecOc//OD3+nCVO9hyfRF4BAxwTlN555V/YMDcuxYWZMFmAcVD6Ec0aPkOndY+QvP3WedI0aUXkeAIBAGgQQlGlQpI48CSAo86SdXVubNm2S2bNny/nnn5+4EQRlYmQ8kDOBpILy1KlT8stf/lJGjx4tV155Zc7R0hwEvARmzpwpV1xxhXzrW98y/z/5ZS9BFpc8FFvW9Tl7NgaU8c/2i9g/0SMoQ8vGE5R3Pl8/mMdaLt1nCcWY+zh6BWVjm577YXVG3rtT+prJUv+zzKBMPnx5IpJARwTlk7uPyd9tPyq/RU5GJogC+REYa4jJz84aL//t42WaSfme7Fi3Vg73D8iCC/NgmXd7efSJNlolgKBslRzPdYoAgrJT5NNt96GHHjIPwrjkkktk0aJFiURleQXlePnTr14lF2/8mXxpR7q8qS1fAnEFpSMmlbA/evSo+VlQX1wQ6CQBJSidg4qWL1/egqgMmOUXJN0il3hb9exYae3xGH6FlY0nKL2neLv6MCfe4T1RS7xN6fnYzfYy8bB4Q+6ZHBGUnfx80HYHDsk5cOy0fPXpQ3L0JDMnGYDFIzCha6Tct3CyfHRKV/GCaymivIVhtu29t2OdrN122EdiuiwcWCC5+NfIHFj939a9UAbyMcKREVEgGwJDQ0MyPDxsVj5p0iTp6irL74xseOlSK4JSl0yFx+kISqdUElGJoExxDPTOkGdWXCQz7Sp/8iPkaBp0owSlX0w6bSIo06BPHe0ScAtKp65kojJAUAYd1hIpKFXrzkxL9X19hmNwH5uVbVNQXt/iEm9bJtZWeJtdcO9jGda3ZvfiLPG2ls1fb+JjD8p2Pw8830gg9xmUDxl7Tj760lE5zZaTjMeCElh44TnyzWsmFTS6pGFlKwwbo8m2PVNQ7p8uy5b2yblJUWRQ/o1Nq2WjuGUkgjIDzIWscsOGDTI4OGjGtmTJEunp6SlknASVjACCMhmvopb2C0onzjiiEkGZVlanyve/OVdmbXpBFj9z3KhUzeCcIa98b5esabOJz//+J+UvZJfMePxgmzXp+XgzQdlMTDq9RFDqme84UavfeQ8//HCcoh0vs2XLFjlx4kRgHF/5ylfku9/9rowbNy4kzrRmUPqacO2vGD2hsr4X4x2zWxCUvpmKUbMjVaSNS7i9Mx29MygT9M3X77BYOCSn4x+fSgSQu6BUe0/+2+D7lYBLJ/UkcP7EUfI/l5VFNmQrDBsznG17xReUeo55ok5OAEGZnJkOTyAodchSdIzNBGUcUYmgjOYbq4Q5e3Kq/MuqF+S+A7GeiF0IQflJD6soMYmgjD20KJgDgaAZlGq/4LvuukuUoAyXk6aqCzhUxrdsuTa70HfITdiJ075l4g2H5LjZBJWVZvtfOofZNNmDUtXrxOsc3mO3ZUrHXXfL2QevjxCU9oxIzwxKV8CR+04+Jjc7h/Y0icXi4ZtlygzKHD4x1Wsid0F5w5q35X2mT1ZvpGnW46e/cIFGEduz9morn91Lnh1huFBk40bZb/Zqkly2bKn0mVMQ1f3NIvP75fDaoPtOGWPZcmD9IuYsQmNWo7XMOqq96PqMCmX1RitSK9zLajMmQwWl+dwRV9/ekE2rN4oRmLH/Zrv9VHVtl0kLp8v+jdvEv8jcjHO6NZOyYVZlSH8s/s3ZajQIKxcqgrKcKUdQliOvUYLS6WXQjEq9BaW1z+SKKU4PD8off9uZsejsQblL5Ka5cp1Z5LisqglEdf9SkR/uk4tXBN1X5cPqFzHF4SVOm9YMyutebjbTMbyuhrbMeo75+meEVKs/rD4Vywx59UcH5dM3qSXn7n7rN+adGZRxxaTTQ2ZQirn3obP/oTpJur3TpPUbO0WI2C0ok4lJJ/omy5A9S54NMbl7rtw7Z5fc3Ww5sv+Ua6P6Fa7DYTyCMqKsd6m4v20lKG8Ruds5dVz1I2g5uf9UbjMgU06qyz+z0Tpox1ngbZ9a/thcaw/KsHgj+2K2Zkpg1/nmvuXjdi4QlEX4SJUuhtwF5Wcefat0EOlQ+QjoIygblxQHCcNth+tS0trHsdsjFKPuuw/Z8Qu4qPbM+0ccydg4w9JT33s7ZN3a/TK9JlC9YytoD8rppoC0yrnbOuJZfu2IwAgOrr0jvTLUkp1GZJ79LhuXeNsxOMu+Q/vTmLuizRAt3yc7vR65BeXkyZNlzJgxDZWrpd9Rl6onyUWd4bTa5RkkKJXsSnLdeuutkcWpMxJRrUArPN9+++2mSwiDWnaLSn0FpS3oDtWFoFcYOgKvLuf6Fl8lP15wzJaY8e67D9nxz2T0tmeQ7psr+26aaiJ/rbbUW/2pMVYzFkNufu57+2RHwH1V9/UvWXtYNs6gjOq7LUvFLWzjj8Gildzzf843T+V2Dr9pJz61h/Kdd94ZWsXhw4dl5cqVsZvRpU6EbeyUplpQCUq1xDv+jMlUm6cyCECg4AQQlAVPEOF1hoA2gtKcnacmCboPifHPHPSf4p3kfiP/cIkWsMQ7MMZ6vUEi8Mhly2SpNcXTc0ULPKtvR4wX7sOHHQmrqghaeu7i0B0kRu1Zk6YsdTOrhxQpKMWOJ6g/gfLS3WZnxj6txiPgFpTNnhgYGIiszH3SeWRhowB1hlNql2eQoLznnnvipKZWJk75OGXcjcYpH6cMdYansq+vT+566YNyWkYmynkhCpsyUFwzJlVUlpgT83CaoFO8k9xv7KVXKjanYInQ8UYBWxAGLv+2ZzmqGZ0Svjy8QVBG9t3dz0Jkq+UgJsoJ+cMPvGS84wSu5Uhcry4yMYs4EZSJh0sqD/zgBz8QdShO9FLuVJqjEghAQDMCCErNEka4+RBAUDpLow3epkjzLWt2Lbv2ZiSGoIysz5mtqGp2L0dXoUQfkuPMspzkkYJxBGXw0m1rhmarglL1oUl/gjjYMN2zQvMZ8bSSlACCMpyYriIVQenNa1mlp3/0jh49Wq688kpZsGCB9H13a9JfB8UoHynpUhCUvlO5zY4fet2e9RiBwX5W1EzKXT2e073dT5onfUuQbK2XqrKgVBR2fH2eOXtSzaJUy7zbubIQf7rUiaBsZ+TwLAQgAIFsCCAos+FKrZoTKLWgtMVYd21vRt8MS/fMPmOhlZKTVlkrqW3NoPS0HaM+376SkYLSqX+6sVfkfvd+lAGCsqGfzZeWO5LR2s+yPrijZ1D6Pgju/phsw9rU/ENU8vCHhoZkeHg4tJdxTvZ2TgKPi4s6w0m1yzNIUDr7lcXNUZw9zagzLk2JtUecn+dTTz0lapl31OUWkxMnTjSLa7vEuxVBaUvDvc1mWLpnOpqzGi8Sq6xFNu4MSqu0JUg//bIjKEMO0Ik4YKfqgtLZg/Lo0aOJRCVCLuo3AvchAAEIQKDTBBCUnc4A7ReSgDaC0pmdZx/QomAG7fkYtcdk0/sNQtGeDeiaQRl8SI5L5LmXeMeozzMgfMug48jRbfY+ki1xcO1B6R2YITMoa/trWk8ESctaXZ7+NO5BWcgPA0FBoEIEOCSnHMmOOiQnSEw6PddWUNrLud2H0pgib4ozwzHeHpMrpjTZo9IjMxUte19H1wxK9x6UL6tl3VP2GQfbHLTQmgJ1gn0oT+Oekd6RF7ynpGcPylq/XLG4DuTx9r08S7xVbx1B6TCLKyoRlOX4/UYvIAABCJSZAIKyzNmlby0T0EdQmkrMPsDF7q5n+bV9enW/+/Rp/yneagZls1O+7RmTtSO8jWcv65Zt+yfVTtZOJCiNEL0H3fjq8594bZR3L3cOOiTHKGHuwdntOfynzsXaz9JYEmWclh3Wz8YTtVUdzqE4wYLSs/w96BTviP6Et9ny8C3Mg+79AOMs+S1M4ARSWQIIynKkvpmgDBOTTs/1FZQuUed0xrP82j6le6NzkrUq5D/F+yq5eGOzU77tGZPmXpL2s5uOyYpLjteWePsPybH+7ATjPznbf+q2Kuc+xMY52MZ+3n0auHupee3nvvKevpdbUDqEo0QlgrIcv9/oBQQgAIEyE0BQljm79K1lAq0ISnUinXo5nDJlSsvt5v9g0N6M+UeRfYtV6Wf2JJO0gKBMQouyRSCAoCxCFtqPwS8o44hJp1W9BWU77IL2qGynPp7NioB/BqW/nWaiEkGZVUaoFwIQgAAE0iKAoEyLJPWUikASQanE5M6dO2XPnj0yd+5c6e/v14hFVcRdVfpZrKGHoCxWPogmmgCCMpqRDiUcQZlETCIoEZQ6jG0VY5SgdPrhF5UISl0yTJwQgAAEqksAQRkr97y0xcJUokJxBKVbTJ4+fdrsvZKTCMoiDgQEZSeygqDsBHXabIcAgrIdesV59h/+4R/M1QzqVG7n8Ju40TGDsn4ITlxmlMuXQFxB6ReV6rOgPhNcEIBAncD620bIUlknZx+8vk0se+T++XNk191npe2q2oyExyGgMwEEZazs5S8ozZMRa/v8OEG69+aJFXiGhaI2OM+w6RyqDhOUQWLSCUk/QZkDTJqoLAEEZWVTr23HEZTaps4T+KlTp0TNnmzlqq6gbIUWz3SCQFJB2YkYaRMCuhCIKyjNcqvcvbpGVu7eLHfMdn4WLSjNOnaslN2b75DaYymCio4xxcaoCgIZEUBQxgLbIUF5ycHaxuOxwsywkLnRueyqn8Yo1ROUYWISQZnh4KNqbQkgKLVNXWUDR1BWNvW1jiMoGQNFJ4CgLHqGiE8nAtGCcr3cNmKprFrhnWW55/75MufO52XFOmfGZL6CMihu/8+sGMUnUjufnWjmnY+RCDpHAEEZiz2CslFQxgKnbSH3DMo4YhJBqW2qCTxDAgjKDOFSdSYEEJSZYNWqUgSlVumqZLAIykqmvTSd3rdvn8yYMaMw/YmSZWGzHr33ogVlmp2OIyhFLLkqNYmaZgSt1xXFvPWaebIMBBCUtSzaMwJrBzC7l1M7gnKXyE1z5TrzmeOyatULct8B9b26f6nID/fJxSuC7jtlrpIVgfWLmALQmDH5x9/eJWuM4uYS72YzKPvmyr6bJrjanyrf/+ZckR+pfYPajUXVNUNe/dFB+fRNF8nMoFH+sjWTskFamnFNrT9x6HXXDNAwvsX7KClBmURMhgnKN998U4aGhmJ3ctq0aTJ58uTQ8tQJzzgDqtNjafv27bUwBwYG4oRMGQh0lACCsqP4C9E4grIQaSCIEAIISoaHzgRmzpwpV1xxhXzrW98y/7+1y5KBxgRG+1phOLgHRe0iac4afOxm1zJqS9LtWLlbNjvrsdffJpa3e1CMm549KK1l0k59EYLPrGeHPUPREZTrRJYaMy7NyLzLwBtja94Pq2O+++Yszjm+vhvF7NmdjeLPHb/6/l6Zu+5meWzpnfJ8LbawGNS9W0Qevlt2zQnuU0OMUs+FJUjdbQZk24h9nZEB/9L3RlatjRSe0o8AgtLMWeNyZa8wdORaXUpae0Qes4VivPsXb6xvPO6Xe4GC0rcH5U9MAWkNMrP8FEsAXuJZfh0vlhWH6su1vTLUkp3XiXe/y6AZlJ6f9c6QZ1ZMlX+pSVv3h6GRb6iA7fDn6Bw5Kf/X7EPmqdzO4TdxQwrag3LLli2yd+/euFXI1VdfLbNmzQotT53wjDOgijSWEJRxMkaZThNAUHY6A51vH0HZ+RwQQTgBBCUjRGcCSlCqWZTqWr58eQui0hZqffUl1x6puOd+mT/nMbnZ2R/SkIjznzBbk8326TVukeeXeo113Sl9zWYgetpyRF9dSlpLrPuayNPGfnilXHA/n1huLSmPM4MySLau8gjECJY1QdqsT1F9sJfHe9oMiN0jelWurHofu9kllXUe9MSeiACCUuEyZ/5JbfaiRdA/K/EqcQvGZPcbcxIl6KLuO+3POnRcZk5xRKlqJ2g5uqsvB4NEoj1r0pSL7n7X444UlDavWZtekMXPHPd2OFBeuttMNGYzLzxKzsjKK47Kzp07zVmUSS4EpZcWIhWR6owIBGWS3ySU7RQBBGWnyBen3dn//Tk5deZscQIiEgj4CCAoGRI6E3ALSqcfiUSla/Zj/dxt90xBr9xS0u87H77bmNX4hCw3Z1l6l2KHLjc2BWQyQek9xds7A9MjIP0i1YRhzzhUclV8otWX9KaC0nOQj382o2+5d0yWTfs0JyhGVx9mB89AbYzdJyQD2eg86ok9CQEEpaKVh6A0JZ1vybRnCbQ3bdGC0l4GbsyyfM0jBeMIyuCl29YMzVYFpYrfmX2pvnctgQ/qu91d96zQJAM367JqibeaPalmUSYRlUGCkuXYLMeOM147vRw7ToyqTKtxqs8GFwSKTgBBWfQMZR/fwgd+Lm8MJfuPk9lHRQsQsAiMGzNSXv6TheCAgIfAQw89JA8//LD5s+9+97vm0umvf/3r8uKLL8r5558vjzzyiLz99tvyxS9+0Sxzyy23yK233iqdeO6rX/1q0wkgX/nKV8z4x40b1zzDkVLNXua96257OfR35MObraXc5uxDU6rtkrvtJeHh+yHGWeJtLRX3i0+rA1GCUi21brzMg3ekvgy9LmLrZePMoPTWHNCXSJZB+2q66jFZhvTh+riC0rs035g+6Vumzwe+SgQQlCrbrQhKW7rtre376Jth6Z41KJactMpawytKQEbdF6f9lw/KdZe496MMEJQNsTRbiq0ia0dQuj467n0yzf6HtVm8j5z7kJwkojJIUBavd0QEAQhAAAJBBBCUjIu71+2Wf9j6H4CAQCEJzD1/oqz78rxCxkZQEIhDIGgGpZKod911lyhBGSonVQORUs0oY87AUxJyuTwx/xX5xuY7ZLZ67onlsnvuvTLHlJeW9os6sCXsfuQhOb4ZmNEzKF0EI2YRdkxQuuOKmOXZ7JCeYKaOzNwtc++dI95Zm3FGFmXKQgBBaWbSnvlnH/6ifuLe43GHs0fllBb3oPTITFd7rhmUiQ7J8e2Z2VKsrj0ovYM5RFDae17ajrXxkBx3RZ5l3Y17UBb9A+QWlE6scUQlgrLomSU+CEAAAs0JICgZHU//+pD80ZO/lt+8fwoYECgUgbGjR8p//cTvyF3Xhe9TXqigCQYCPgJuQZlITNbqsfc1tA+GqUnGHStdB+PYM//6VhiH1Sy3ZKQSa7fskj51fM3d1j6OtWeNY1o8wrJ2SI5RwpaMz7vaqz23yn0ITvt7UHpRxdiD0tPnKNkaNJsximVUnxpj9PYhZAalL/Y6U/Wde2k6H6GqEUBQ1jLuXp5s/LDhBGrjlO6N7pOt/ad4qxmUzU75ri/Htpoznt10TFZccrx2ynWcQ3LEPrjmZc8BPao+K3Zr/0cxThQPj6V2KFDtRHFVh3MoTrCgdGZsmqd6B53i7T/B2yjmXb7tP8Xb3WbxPnZBgtKJMkxUIiiLl0siggAEIBCXAIIyLqlyl7vp734lv/r3I+XuJL3TjsCHzh0rz9z+CVGikgsCuhJQglLt8R97xmRgR53DV+yb17jlpPUz64Ca540Drh0Z6cg2r/wKPSSn1ravPfXzhjbtE6/vdk7JNgvZJ3y7YvKcMO4/QVuVa9w3sratpFuSOuLUfMQSrK0tVw9jGX0yeeMp3u4+NFkiHxC7ScicHWv01ieDdR3rxN0aAQRla9x8TwXt+5hKxS1UUqRYWgi/II+ECUonxCBRiaAsSAIJAwIQgEALBBCULUAr4SMHj56Uzzz4Sxk6NiwyooQdpEvaEZgysUse/d8vl4unjNcudgKGgJvAD37wA/P07sil3CXE5j2lW4cOBu1BmWHcHI6TIVx9qkZQppKrIknBIsWSCtyOVBJHUAaJyjlz5giHgXQkZTQKAQhAoG0CCMq2EZamglcPHZcVj++U/zjyvvz25OnS9IuOaETAOExeHYpz3oQx8rc394naf5ILAhDQl0DUfpfF61m+glI/gVu8jJUhIgRlKlkskhQsUiypwO1IJUkEpVtUHjt2TLq7uzsSM41CAAIQgEB7BBCU7fEr49Mrf7ZPnn7lHXll8JicOmMYIy4I5ERAzZZcMHOy/OmSWSzrzok5zUAgEwK1Jc3eJd+ZtJVqpXkKSqutx27eLZvvmJ1qL6hMLwIISr3yRbQ5EWhFUOYUGs1AAAIQgEBGBBCUGYGlWghAAAIQgAAEIAABCEQQQFAyRCAQQABBybCAAAQgUD0CCMrq5ZweQwACEIAABCAAAQgUgwCCshh5IIqCEUBQFiwhhAMBCEAgBwIIyhwg0wQEIAABCEAAAhCAAAQCCCAoSpqBBwAAFzZJREFUGRYQCCCAoGRYQAACEKgeAQRl9XJOjyEAAQhAAAIQgAAEikEAQVmMPBBFwQggKAuWEMKBAAQgkAMBBGUOkGkCAhCAAAQgAAEIQAACAQRyF5TXP/6WnD5DLiBQbAIIymLnh+ggAAEIZEEAQZkFVeqEAAQgAAEIFJPA+ttGyFJZJ2cfvL6YARIVBCpGIHdB+dWnD8mrQ8MVw0x3dSLQPXakrFneq1PIxAoBCEAAAikQQFCmAJEqIAABCEAAApoQiBKU5v1V/s6skHVnH5SyKc3Gvl4jK3dvljtma5JMwiwFgdwF5V9tfU9+vOd4KeDRiXISuLxnrHxn8Xnl7By9ggAEIACBpgQQlAwOCEAAAhCAQHYE9u3bJzNmzMiugYQ1xxKUvhmWlshLJu+i2gkKu5VnEnbfU9zf3p7758ucO6VwkjJvLu0w5dnkBHIXlNsOnpRvbRqSYydZ5508XTyRNYFxo0fI1z7eLZ+ZOT7rpqgfAhCAAAQKRgBBWbCEEA4EIAABCJSKwMyZM+WKK66Qb33rW+b/d/qKkl3N7ps/37FSdm++Q+JMMIxqp4iCUmS93DZiqRjTRaVIK+BbYdnpcUb78QnkLihVaH9mCMqfv3VCTuEo42eKkrkQuHjyGPneZ6bk0haNQAACEIBAsQggKIuVD6KBAAQgAIFyEVCCUs2iVNfy5ctbFJV75P75c+TO5x029SXX5qy/x252iUNLsu1YuVs2O2uV198mlnd7UIybnj0ordmR9fqayrA998v8OY/JzbUl0M1i8v/ciHmFs+dlsmfWGZH6pWi9v8tk7fxbRB6+W3bNWSrWqnT/LM/m3FTpxr66BaX6/l6Zu+5meWzpnfJ8re6wOtW9dmLytxnwWTBYhnOJJ5DL9SnTuzcdEZQnT5+VW9YelPfeP42k1Hv8lCr6KeNHyV9/eopMHjeyVP2iMxCAAAQgEI8AgjIeJ0pBAAIQgAAEWiHgFpTO88lEpS3E+uoH23ikol8cGjJy/hOmDpXN9jRAt4jzS7nYgtIzu9CKadfd9ZmGgfV6loq38IwpVne4llxbdTx2s5KvYkvbupS0lmj32ftlNnLzy9xwFpasXCXu/TcjciGOvGw1pqA2A0RqKJc481tbGck8kxWBjghK1ZmjxhLvv/zFe/Li4Ek5NsxUyqwSTL3RBMaOGiHTukfLfdeeh5yMxkUJCEAAAqUlgKAsbWrpGAQgAIHSEnjooYfk4YcfNvv33e9+11w6/ed//ufyJ3/yJ/L222/LF7/4RfPeLbfcIrfeequo8qqM+vr6178uL774opx//vnyyCOPmOWfeuqpWrm06/2zP/uz2gxKf0K+8pWvmPGPGzeuea5csx/rh9S4Z/q5pd1sURLuOx++W2TpE7LcPNjGKwajlgs3vx++/DlK/gV1MPoZb9+MzrlmcTYKT88S7Tn+GZ8qAnuGoj0LtPGQHLeMDOhvzFy4xW2ymIIZN+YkjEtpP/al7VjHBKVD9Jdvvy9/v+OovH5kWI4Pny0taDpWPAKOmFw26xz53OwJxQuQiCAAAQhAIFcCCMpccdMYBCAAAQhUjEDQDEolR++66y5RgjJUTppOrb48O1hQiikl5+y6W84+OMeYVfgd+fBmayn3E8uNGY6mqNsld9uncLcsKP0zNc0/q6XPruua+h6Vge208IxbYhqdcy1njyMoffHZoa6w95gMZ5GVoAyLKa6gtHNuL+33cqnYB6wE3e24oCwBQ7oAAQhAAAIQgEAJCCAoS5BEugABCEAAAoUl4BaUicSk06MYgtKaWagk5HJ5Yv4r8g11kI167onlsnvuvba8tPRmq4LSc0iOLRr7XIfJRM6GbOUZK2L74JrdMvde97LyAEHplqgSNIPSO0xyEZSJYoovKJtzKexHgcCaEEBQMjQgAAEIQAACEICAQQBByTCAAAQgAAEIZEdACcoTJ07EnzHZEIq9L2HtoBlbMnpO1LZlXd8KY8/E5cZMSkNGKjF2yy7pU8fHRO0VGXFIjrUU2nUATYNstGP0z6B0x9jKMzaL+lLsgP0gn4+/36MfbWJBacvSVU1zkXwPSp8yDTxFvNkJ6sFcshvL1JwNAQRlNlypFQIQgAAEIAABzQggKDVLGOFCAAIQgIBWBH7wgx+Yp3dHLuUO7ZVzeIpdyCUCncesA2KeNw7Mdg6ucWSZW+o1zqAMPCTHOhK7foW0ZxUyJOHKPrnzsbn108Tdy7ltoefEmOQZs6w5i9QIyiUGDQNrH9SzzthvM+4p3qqyGCeWW40GykLn5zVEHjbtxtSkzQCWzblo9fEgWIMAgpJhAAEIQAACEIAABAwCCEqGAQQgAAEIQAAChSbg3//SDDZoD8pO9yLnmAK5dJoB7SclgKBMSozyEIAABCAAAQiUkgCCspRppVMQgAAEIACB0hDw729pdSxnGRiLZr4xBXOJFSiFCkQAQVmgZBAKBCAAAQhAAAKdI4Cg7Bx7WoYABCAAAQhAIIqAJf0eu3m3bL5jtqtwvjIwKsr8pWkzLvEipVRxCCAoi5MLIoEABCAAAQhAoIMEEJQdhE/TEIAABCAAAQhAAAKVJoCgrHT66TwEIAABCEAAAg4BBCVjAQIQgAAEIAABCEAAAp0hgKDsDHdahQAEIAABCECgYAQQlAVLCOFAAAIQgAAEIAABCFSGAIKyMqmmoxCAAAQgAAEIhBFAUDI+IAABCEAAAhCAAAQg0BkCCMrOcKdVCEAAAhCAAAQKRgBBWbCEEA4EIAABCEAAAhCAQGUIICgrk2o6CgEIQAACEIBAGAEEJeMDAhCAAASKTGBoaEi2bt0q6v9PnTpV5FDbim3kyJEyefJk6e/vlwsuuKCtungYAhDQhwCCUp9cESkEIAABCEAAAhkSQFBmCJeqIQABCECgLQKHDh2S559/XsaOHStjxowRJfHKep09e1aGh4flxIkT8rGPfUwuvPDCZF1df5uMWCqy7uyDcr395PrbRsjSVeoP18jK3ZvljtnJqowqbdYv6+Tsg06LUU9wHwIQ8BNAUDImIAABCEAAAhCAgEEAQckwgAAEIACBohJ4+umnzdC6uroyCLFHLl00V6bKQdn17E4ZzKCFVqo8ffq0HDlyRG666aZkj/sF5Z77Zf6cx+TmNsVkXXLa4ayoC0kEZbIUURoCQQQQlIwLCEAAAhCAAAQggKBkDEAAAhCAQIEJPProo9LT0yMjRoxoPcoJhoice5FMnTDBquPYQXl910557VgxBaUK8a233pIvfvGLyfrsF5QBMyoTVii3GVMyV7mEpHpeScl75+6WzcZ0TARlMqKUhgCCkjEAAQhAAAIQgAAEmhBgBiVDAwIQgAAEikrgkUceaW8/xp5LZdHcqQHdU7MmD8rUAs6gTFVQ3jtXdm++Q1pZ2W3Kxx0rQ59HUBb1k0NcOhFgBqVO2SJWCEAAAhCAAAQyI4CgzAwtFUMAAhCAQJsE2hOUzgxJI4iDu+SFnYNyzPh2Qs9MmXHReDn4gi6Ccr0xk/FembvuZnls6Z3yvLOfpKgl3OrP6jL2mFzZJ3feae1BaTxg7z1pJ8CZBWnOqjQ3pbSua+oC0lrKvcLew1K1aW5oKWHbSzYKyj1y//w5cqcVlHE59dl/DGnfmI7ZNLY2hxGPQ6DQBBCUhU4PwUEAAhCAAAQgkBcBBGVepGkHAhCAAASSEmhLUNZmTzbbY7JxiXfPzKvkoosmiL0Y3LUc3Ip8wsxLZe7/397d67ZxrGEA/gy4MlMeqUjjIyBCAMqVETVxCrXxBTh3kJTxBbj0BdhlfAkqUySti+Q0ShU4TGEHilqptVwF0Zld7lLkkpT4u15yH1U2vbMz8wzl4sU3M/d3+v+etor30lbx85R6Tvt83vmWz49u8e6Hha9Gwr4iCHxQngc54Zks8BuuoLzlTMqRgHLG8ytHA8r+mHrPrkPNkX+/6Z0z9reop3YEmiwgoGzy6hgbAQIECBAgUJuAgLI2ah0RIECAwJwCywSUnRQ2HqawMauefJ2qJ8d/qgHlUMXl8MOXZ3FychqXZeCZgsmLD+mBe/fiQ+8kTjvFNvLq51m55oI/kwLKkWrGSYHepDMoR7Z490PMNy/650fe+DNjYHjbFu93Lx/F/vGTYpv4Tf3PMbYFTTUj0FQBAWVTV8a4CBAgQIAAgVoFBJS1cuuMAAECBOYQqDegTJWTuynQPO9vBU9lkXFwmC7XKW/5Hgooy8rJfCrTPp9jntVHbw0oJ12Ac2tAmfVSVlpmf07bwqfe8L3gFu882Cy3nRezGtpGfnP/s45tCVhNCTRQQEDZwEUxJAIECBAgQKB+AQFl/eZ6JECAAIHZBJYJKAfBYRkwjnU5vsU736r9n7SFe7DHO2t0vUV89+AwujvXt4H3TtIW7zyjnPz5bLMcf+rWgHKhCspKP3mg+WZqSHlbdWQed2bnVkaxzbwIJx8MnVs5WkE5R/+3jG1RV+0INFFAQNnEVTEmAgQIECBAoHYBAWXt5DokQIAAgRkFlgooY/IlOalMMg7Szd5jl+QUlZCXxYU6YxWUgzF3Ynevm86i7MTl2UmcnJZ7uad9PuNkhx67NaAsKiEH27UHlYtDl9JUz6CsDqMSco5ekpMeLt9ZXrBTtM9Dx96zuEq359wcUBYVkSMVlEODcCbl/F8MLbZSQEC5lctqUgQIECBAgMC8AgLKecU8T4AAAQJ1CSwXUGa7tItzKMcGnFVFVm7xHlyqU324X0F5mVdXRnzIz5/ciayQMgsoe/HfiZ9fB5fza90eUA4FiPnrUzD5thvP93vxLN3i/XX2UTWgrN6SnbUaqnYcCyjz91Zv5c4b5eFkv4uhCsp8SCm8HFzhXdwsftztn0F5U/+3jG1+QS0IbI6AgHJz1spICRAgQIAAgTUKCCjXiOvVBAgQILCUwLIBZdZ5JwWP+c3b5bbtdJnN2dnfcXreiYOj7vUZk+lu7t2DVBk5tIX74kMKIneKLd7pTMrDdCbl9Wt60UuX71xO+3yJmY8GlEu8SFMCBBovIKBs/BIZIAECBAgQIFCHgICyDmV9ECBAgMAiAqsIKBfp92O3EVB+7BXQP4H6BASU9VnriQABAgQIEGiwgICywYtjaAQIEGi5wI8//hj37t2Lu3fvtkbi6uoqXSR+Ht98801r5myiBNosIKBs8+qbOwECBAgQIDAQEFD6MhAgQIBAUwX++uuv6PV68cknn8SdO3eaOsyVjuv9+/fx6aefxsOHD1f6Xi8jQKCZAgLKZq6LUREgQIAAAQI1CwgoawbXHQECBAjMJfDnn3/G77//Hv/+++9c7Tb14c8//1w4uamLZ9wEFhAQUC6ApgkBAgQIECCwfQICyu1bUzMiQIAAAQIECBDYDAEB5Wask1ESIECAAAECaxYQUK4Z2OsJECBAgAABAgQITBEQUPpqECBAgAABAgSSgIDS14AAAQIECBAgQIDAxxEQUH4cd70SIECAAAECDRMQUDZsQQyHAAECBAYCv/32W2SXxrTtJ7sU6Isvvphv2j9/F3ceR/x09UN8XbT8+bs78fhV9pcv48XbX+P7z+Z7ZdOezucTP8XVD+UMmzZC4yEwv4CAcn4zLQgQIECAAIEtFBBQbuGimhIBAgS2ROD169dxdHS0JbOZfRoLzbsaUL57GY/2j+PJgsHku5ePYv/4Sbz99fsYzTXfxctH+/H0Qf1BoYBy9u+QJzdHQEC5OWtlpAQIECBAgMAaBQSUa8T1agIECBBYSmChoG6pHtfR+CJ6r/+I89iNg6Nu7MzQxULzrgaUEyoqZ+h68Mg8AWVdwWFd/czj5FkCywoIKJcV1J4AAQIECBDYCgEB5VYso0kQIEBgKwVmD+ou4+zkJE4vI3YPjqI7kgLOHxCuFnP+/mef99BIJwWUz7sTKiBnm930gHK8fV3BYV39zCbkKQKrERBQrsbRWwgQIECAAIENFxBQbvgCGj4BAgS2WGD2oG6+gPLy7CROUprZ2TuMw/udNQsuG1D+HN/deR7dn57E8eOn8b/yPMnItnBnf89+0hmTLx7E06f9MyhTg+LsyWJq3xbbsfMQMz+Usv/z5YtBgNk/r/LbwRmWNwWU10Hhfn+7d38Q/Z+yryi2gg/+7frdEVPm9NlNbVIrZ1Cu+bvq9R9DQED5MdT1SYAAAQIECDROQEDZuCUxIAIECBAoBFYTUI5zbl5A+ThexXDAVz0HMgv8Ks9kYeRwBeUtZ1IuFlD2L6sZDw7Hz6kcDTwnjLcINHvPrqK8A6f6XgGl/xq2UUBAuY2rak4ECBAgQIDA3AICyrnJNCBAgACBmgRWE1AOVzDejw/FVvDhKQy2hV9exFnv77RVPO0Vz346u7HX7Ua/yLKo0oy92Oucx+l5vp88jtJ+8otUkfl3qsgsWlXaraKCMr+eexDcxaSw8dYt3v1Q8M2Lt/HrDNd5z1ZBOSWgnBiGFlWT+aU9/bGMzGnCd6o6BgFlTb94uqlVQEBZK7fOCBAgQIAAgaYKCCibujLGRYAAAQL1BpRlkFh1Ly+3ud5GPngiDyijuASn0q6zF4eH96MTawgoJ12Ac2tAmY2vrFzM/py2hd9ww/fyAWW5/XzU5ds8aJ0SUObBZqVddRt61H97uN9EAusUEFCuU9e7CRAgQIAAgY0REFBuzFIZKAECBFonsPqAsn+L9sQt3he9eP3Heap+LIPFy7jonUT2Ub/Ccuicy3R2ZXdwdmWqnLz4ELGzk8LI/OXROzkdurV7DQHlQhWUla9PHmi+mRpSLh9QHseTqQHohICyCCcfDFWKqqBs3a98KycsoGzlsps0AQIECBAgUBUQUPpOECBAgEBTBeoMKMvQcpLFaEDZib3Dw2Lbd//py7Ne9M7Po9wZ3v+0rLxcQ0BZVEIOtmsPKg+HzqmsnkFZnVgl5Fz6DMo31xfuRHlBzoNp1Y6zBJRFtacKyqb+ehrXigQElCuC9BoCBAgQIEBgswUElJu9fkZPgACBbRaoM6BM5ZKVCsqqbFlBWQkoi3adtN37MJ1HWUsFZTa0ke3QKZh8243n+714lm7xzk+GrAaU1Ru80yP97db9eU4MKEeu584bxFVqMHYW5PBYpt7infVSBqiTt3jnFZODPoubyY+7ozeN2+K9zb/yrZybgLKVy27SBAgQIECAQFVAQOk7QYAAAQJNFVgkoByZy8gZkWVF4/UW7/LZfoXkrGdQTg4oxw1XVUHZ1NUxLgIEViEgoFyFoncQIECAAAECGy8goNz4JTQBAgQIbK3AugLKyC6uOfkjsou406GT11u20y3evXSL9/nIXu3qJTnVLd7ZWZW9dFbl9c3fu+mW7/NzAeXWfjFNjMAKBQSUK8T0KgIECBAgQGBzBQSUm7t2Rk6AAIFtF5g9oNwuibbOe7tW0WwIzCYwU0A526s8RYAAAQIECBAgQIAAAQIECKxaoK1BXVvnvervj/cR2AQBAeUmrJIxEiBAgAABAgQIECBAgEBrBdoa1LV13q39opt4qwUElK1efpMnQIAAAQIECBAgQIAAgaYL/PLLL/HPP/80fZgrH9/du3fjq6++Wvl7vZAAgeYJCCibtyZGRIAAAQIECBAgQIAAAQIECBAgQKA1AgLK1iy1iRIgQIAAAQIECBAgQIAAAQIECBBonoCAsnlrYkQECBAgQIAAAQIECBAgQIAAAQIEWiMgoGzNUpsoAQIECBAgQIAAAQIECBAgQIAAgeYJCCibtyZGRIAAAQIECBAgQIAAAQIECBAgQKA1AgLK1iy1iRIgQIAAAQIECBAgQIAAAQIECBBonoCAsnlrYkQECBAgQIAAAQIECBAgQIAAAQIEWiMgoGzNUpsoAQIECBAgQIAAAQIECBAgQIAAgeYJCCibtyZGRIAAAQIECBAgQIAAAQIECBAgQKA1AgLK1iy1iRIgQIAAAQIECBAgQIAAAQIECBBonsD/ASLuB3fapQV8AAAAAElFTkSuQmCC;" vertex="1" parent="1">
          <mxGeometry x="40" y="470" width="1320" height="658" as="geometry" />
        </mxCell>
      </root>
    </mxGraphModel>
  </diagram>
</mxfile>
